<?xml version="1.0" encoding="UTF-8"?> <svg xmlns="http://www.w3.org/2000/svg" id="Capa_1" height="512" viewBox="0 0 492.001 492.001" width="512"> <path d="m41.789 378.916c8.97 4.306 15.547 11.846 22.509 19.83 11.364 13.03 24.244 27.8 49.353 27.8 25.219 0 38.118-14.826 49.5-27.907 11.1-12.763 20.691-23.784 40.444-23.784s29.341 11.021 40.445 23.784c11.38 13.081 24.279 27.907 49.5 27.907s38.117-14.826 49.5-27.907c11.1-12.763 20.692-23.784 40.444-23.784 19.617 0 29.195 10.935 40.286 23.6 6.076 6.937 12.359 14.11 20.566 19.386 2.764 1.828 6.486 1.07 8.314-1.694s1.07-6.486-1.694-8.314c-.043-.029-.087-.057-.131-.084-6.784-4.362-12.246-10.6-18.028-17.2-11.369-12.98-24.254-27.691-49.313-27.691-25.218 0-38.117 14.826-49.5 27.907-11.1 12.762-20.692 23.784-40.444 23.784s-29.342-11.022-40.445-23.784c-11.381-13.081-24.28-27.907-49.5-27.907s-38.117 14.826-49.5 27.907c-11.1 12.762-20.691 23.784-40.444 23.784-19.652 0-29.225-10.976-40.309-23.686-7.454-8.551-15.162-17.389-26.362-22.762-2.988-1.434-6.572-.175-8.006 2.813s-.175 6.572 2.813 8.006z"></path> <path d="m38.98 304.851c-1.43 2.986-.171 6.566 2.813 8 8.97 4.307 15.547 11.847 22.509 19.831 11.364 13.03 24.244 27.8 49.353 27.8 25.219 0 38.118-14.826 49.5-27.907 11.1-12.762 20.691-23.784 40.444-23.784s29.342 11.022 40.445 23.784c11.38 13.081 24.279 27.907 49.5 27.907s38.117-14.826 49.5-27.907c11.1-12.762 20.693-23.784 40.445-23.784 19.617 0 29.195 10.936 40.286 23.6 6.076 6.937 12.359 14.11 20.566 19.386 2.778 1.807 6.494 1.019 8.301-1.759s1.019-6.494-1.759-8.301c-.018-.011-.035-.023-.053-.034-6.784-4.361-12.246-10.6-18.028-17.2-11.38-12.976-24.265-27.683-49.322-27.683-25.218 0-38.117 14.827-49.5 27.908-8.624 9.912-16.338 18.772-28.607 22.235v-320.029c0-.147-.012-.292-.022-.437.008-.118.02-.234.021-.354v-.394c-.119-14.232-11.681-25.712-25.914-25.729h-.19c-14.311.105-25.829 11.789-25.729 26.1.024 3.297 2.703 5.957 6 5.957h.044c3.314-.024 5.981-2.729 5.957-6.043-.054-7.684 6.131-13.958 13.815-14.014 3.695-.055 7.256 1.388 9.87 4 2.641 2.59 4.135 6.129 4.148 9.828v.172c0 .169.008.336.02.5-.009.137-.02.272-.02.411v52.689h-142.179v-52.686c-.002-.287-.025-.573-.068-.856h.068c-.001-14.312-11.602-25.913-25.914-25.915-14.314.001-25.917 11.604-25.916 25.918v.001c0 3.314 2.686 6 6 6s6-2.686 6-6c-.001-7.687 6.23-13.918 13.917-13.919 7.686-.001 13.917 6.228 13.918 13.914v.005h.067c-.043.282-.065.567-.067.852v312.931c-7.231 5.798-16.277 8.858-25.543 8.641-19.652 0-29.225-10.977-40.309-23.686-7.459-8.548-15.167-17.387-26.367-22.762-2.986-1.43-6.566-.171-8 2.813zm112.214-134.928h142.179v66.325h-142.179zm101.897 154.777c-11.381-13.08-24.28-27.907-49.5-27.907s-38.117 14.827-49.5 27.908c-.976 1.122-1.943 2.228-2.9 3.318v-79.771h142.182v100.235c-19.641-.061-29.21-11.054-40.282-23.783zm40.282-233.1v66.324h-142.179v-66.324z"></path> <path d="m41.789 444.37c8.97 4.306 15.547 11.847 22.509 19.831 11.364 13.03 24.244 27.8 49.353 27.8 25.219 0 38.118-14.827 49.5-27.908 11.1-12.762 20.691-23.784 40.444-23.784s29.341 11.022 40.445 23.784c11.38 13.081 24.279 27.908 49.5 27.908s38.117-14.827 49.5-27.908c11.1-12.762 20.692-23.784 40.444-23.784 19.617 0 29.195 10.936 40.286 23.6 6.076 6.938 12.359 14.111 20.566 19.387 2.778 1.807 6.494 1.019 8.301-1.759s1.019-6.494-1.759-8.301c-.018-.011-.035-.023-.053-.034-6.784-4.361-12.246-10.6-18.028-17.2-11.369-12.98-24.254-27.692-49.313-27.692-25.218 0-38.117 14.827-49.5 27.908-11.104 12.76-20.696 23.782-40.448 23.782s-29.342-11.022-40.445-23.784c-11.381-13.081-24.28-27.908-49.5-27.908s-38.117 14.827-49.5 27.908c-11.098 12.762-20.687 23.784-40.44 23.784-19.652 0-29.225-10.977-40.309-23.687-7.454-8.547-15.162-17.386-26.362-22.761-2.98-1.449-6.571-.208-8.02 2.772s-.208 6.571 2.772 8.02c.018.009.037.018.055.027h.002z"></path> </svg> 