<?xml version="1.0" encoding="UTF-8"?> <svg xmlns="http://www.w3.org/2000/svg" xmlns:xlink="http://www.w3.org/1999/xlink" viewBox="0 0 488.99 257.1" id="Contentpage_projectlogo" class="img-responsive PJ-fill-black project-fancyname svg-img replaced-svg replaced-svg"> <defs> <linearGradient id="a" x1="828.77" y1="289.67" x2="935.5" y2="289.67" gradientUnits="userSpaceOnUse"> <stop offset="0" stop-color="#f4b891"></stop> <stop offset="0.18" stop-color="#e0b8a0"></stop> <stop offset="0.26" stop-color="#d5a58c"></stop> <stop offset="0.38" stop-color="#c78a71"></stop> <stop offset="0.41" stop-color="#be836b"></stop> <stop offset="0.53" stop-color="#a46c59"></stop> <stop offset="0.6" stop-color="#9a6452"></stop> <stop offset="0.67" stop-color="#9e6755"></stop> <stop offset="0.74" stop-color="#aa715c"></stop> <stop offset="0.81" stop-color="#bd8269"></stop> <stop offset="0.87" stop-color="#d19275"></stop> <stop offset="1" stop-color="#e0b8a0"></stop> </linearGradient> </defs> <title>Amaranta-new-logo</title> <path d="M637.64,423.35h489v-5.66h-489v5.66Zm0-88.42H809.85v-5.66H637.64v5.66Zm316.78,0h172.21v-5.66H954.42v5.66Z" transform="translate(-637.64 -243.26)" fill="#004650"></path> <path d="M652.08,355.28a1.22,1.22,0,0,1,1.17-1.79h7a1.27,1.27,0,0,1,1.17.76l13.25,29.67h0.48l13.25-29.67a1.27,1.27,0,0,1,1.17-.76h7a1.22,1.22,0,0,1,1.17,1.79l-21.39,46.44a1.25,1.25,0,0,1-1.18.76h-0.69a1.25,1.25,0,0,1-1.17-.76Z" transform="translate(-637.64 -243.26)" fill="#004650"></path> <rect x="76.81" y="110.23" width="9.04" height="48.3" rx="1.31" ry="1.31" fill="#004650"></rect> <path d="M746.41,354.79a1.31,1.31,0,0,1,1.31-1.31h6.35a1.36,1.36,0,0,1,1.31,1.31V393.5H773a1.31,1.31,0,0,1,1.31,1.31v5.66a1.31,1.31,0,0,1-1.31,1.31H747.72a1.31,1.31,0,0,1-1.31-1.31V354.79Z" transform="translate(-637.64 -243.26)" fill="#004650"></path> <path d="M791.6,354.79a1.31,1.31,0,0,1,1.31-1.31h6.35a1.36,1.36,0,0,1,1.31,1.31V393.5h17.6a1.31,1.31,0,0,1,1.31,1.31v5.66a1.31,1.31,0,0,1-1.31,1.31H792.91a1.31,1.31,0,0,1-1.31-1.31V354.79Z" transform="translate(-637.64 -243.26)" fill="#004650"></path> <path d="M862.54,385.29l-6.9-15.18h-0.21l-6.76,15.18h13.87ZM832.73,400l21.46-46.44a1.24,1.24,0,0,1,1.17-.76h0.69a1.17,1.17,0,0,1,1.17.76L878.48,400a1.22,1.22,0,0,1-1.17,1.79h-6a2,2,0,0,1-2-1.38L865.92,393H845.29l-3.38,7.45a2.08,2.08,0,0,1-2,1.38h-6a1.22,1.22,0,0,1-1.17-1.79" transform="translate(-637.64 -243.26)" fill="#004650"></path> <path d="M895.11,354a1.3,1.3,0,0,1,1.31-1.24h1.72l28.71,30.5h0.07v-28.5a1.31,1.31,0,0,1,1.31-1.31h6.35a1.36,1.36,0,0,1,1.31,1.31v46.44a1.3,1.3,0,0,1-1.31,1.24h-1.66L904.08,370.8H904v29.67a1.31,1.31,0,0,1-1.31,1.31h-6.28a1.36,1.36,0,0,1-1.31-1.31V354Z" transform="translate(-637.64 -243.26)" fill="#004650"></path> <path d="M980.12,393.5a15.87,15.87,0,1,0-15.8-15.8,15.9,15.9,0,0,0,15.8,15.8m0-40.71a24.84,24.84,0,1,1-24.77,24.91,24.8,24.8,0,0,1,24.77-24.91" transform="translate(-637.64 -243.26)" fill="#004650"></path> <path d="M1017.73,355.28a1.22,1.22,0,0,1,1.17-1.79h7a1.27,1.27,0,0,1,1.17.76l13.25,29.67h0.48l13.25-29.67a1.27,1.27,0,0,1,1.17-.76h7a1.22,1.22,0,0,1,1.17,1.79l-21.39,46.44a1.24,1.24,0,0,1-1.17.76h-0.69a1.24,1.24,0,0,1-1.17-.76Z" transform="translate(-637.64 -243.26)" fill="#004650"></path> <path d="M1100.19,385.29l-6.9-15.18h-0.21l-6.76,15.18h13.87ZM1070.38,400l21.46-46.44a1.24,1.24,0,0,1,1.17-.76h0.69a1.17,1.17,0,0,1,1.17.76L1116.13,400a1.22,1.22,0,0,1-1.17,1.79h-6a2,2,0,0,1-2-1.38l-3.38-7.45h-20.63l-3.38,7.45a2.08,2.08,0,0,1-2,1.38h-6a1.22,1.22,0,0,1-1.17-1.79" transform="translate(-637.64 -243.26)" fill="#004650"></path> <path d="M859.76,291.87a39.34,39.34,0,0,1,18.92,32.69c-11.07-8.38-17.9-20.14-18.92-32.69m37.34,5.81a39.44,39.44,0,0,1,7.45-5.84c-1,12.58-7.87,24.36-19,32.75a39.41,39.41,0,0,1,11.52-26.91m-50.91,21a39.36,39.36,0,0,1-11.28-32.25,39.28,39.28,0,0,1,18.82,2.47c0.11,16,8.44,31.06,22.56,41.24q-1.14.06-2.27,0.06a39.4,39.4,0,0,1-27.84-11.53M888,330.13c14.14-10.18,22.47-25.27,22.57-41.26a39.22,39.22,0,0,1,18.77-2.46,39.36,39.36,0,0,1-39,43.79c-0.77,0-1.54,0-2.31-.07m-16.68-36.61a45.22,45.22,0,0,0-11.56-8.37c1.17-13.77,9.32-26.56,22.38-35,13.06,8.41,21.21,21.2,22.39,35a45.19,45.19,0,0,0-22.41,25.7,45.29,45.29,0,0,0-10.8-17.31m10.82-50.26-1.52.91c-15,9-24.59,23.13-26.54,38.57a45.06,45.06,0,0,0-22.29-1.84l-2.06.35-0.35,2.06a45.21,45.21,0,0,0,52.14,52.14l0.59-.1,0.59,0.1a45.24,45.24,0,0,0,52.14-52.14l-0.35-2.06-2.06-.35a45.11,45.11,0,0,0-22.24,1.82c-2-15.44-11.56-29.55-26.54-38.56l-1.52-.91h0Z" transform="translate(-637.64 -243.26)" fill="url(#a)"></path> <path d="M764,473.46H766l11,26.9h-2.22l-3.51-8.67H758.58l-3.47,8.67H753Zm6.49,16.41-5.61-14-5.61,14h11.21Z" transform="translate(-637.64 -243.26)" fill="#004650"></path> <path d="M789,473.46h2.1l9.36,16,9.56-16h1.86l1.21,26.9h-1.94l-0.93-23.88L801,491.89h-1.25l-9-15.37-0.93,23.84h-1.94Z" transform="translate(-637.64 -243.26)" fill="#004650"></path> <path d="M835,473.46h1.94l11,26.9H845.7l-3.51-8.67H829.53l-3.47,8.67H824Zm6.49,16.41-5.61-14-5.61,14h11.21Z" transform="translate(-637.64 -243.26)" fill="#004650"></path> <path d="M859.09,473.46h8.11a15.11,15.11,0,0,1,4.44.56,7.7,7.7,0,0,1,2.94,1.59,6,6,0,0,1,1.63,2.42,8.89,8.89,0,0,1,.5,3,8.23,8.23,0,0,1-1.35,4.66,6.71,6.71,0,0,1-4.3,2.72l6.41,11.9h-2.22L869,488.7h-8v11.66h-1.94v-26.9ZM868,486.89q6.65,0,6.65-5.81a5.33,5.33,0,0,0-1.75-4.36,7.9,7.9,0,0,0-5.14-1.45H861v11.62h7Z" transform="translate(-637.64 -243.26)" fill="#004650"></path> <path d="M897.76,473.46h1.94l11,26.9h-2.22L905,491.69H892.32l-3.47,8.67h-2.1Zm6.49,16.41-5.61-14-5.61,14h11.21Z" transform="translate(-637.64 -243.26)" fill="#004650"></path> <path d="M921.88,473.46h2l17.26,24v-24h1.9v26.9h-2l-17.26-23.67v23.67h-1.9v-26.9Z" transform="translate(-637.64 -243.26)" fill="#004650"></path> <path d="M964.87,475.19H954.43v-1.73h22.83v1.73H966.81v25.17h-1.94V475.19Z" transform="translate(-637.64 -243.26)" fill="#004650"></path> <path d="M992.34,473.46h1.94l11,26.9h-2.22l-3.51-8.67H986.9l-3.47,8.67h-2.1Zm6.49,16.41-5.61-14-5.61,14h11.21Z" transform="translate(-637.64 -243.26)" fill="#004650"></path> </svg> 