<?xml version="1.0" encoding="UTF-8"?> <svg xmlns="http://www.w3.org/2000/svg" xmlns:xlink="http://www.w3.org/1999/xlink" id="Contentpage_projectlogo" x="0px" y="0px" viewBox="0 0 256.3 55.6" xml:space="preserve" class="img-responsive PJ-fill-black project-fancyname svg-img replaced-svg replaced-svg"> <g> <g> <path fill="currentColor" d="M0,0v55.6h55.6V0H0z M20.6,43.9h-5V29.7v-1.9v-0.3V13.4v-2.2c0,0,3.2,0,5.1,0L20.6,43.9z M40,23.1 c0,3.1-1.7,4.2-2.8,4.5c2.7,0.7,2.8,3.6,2.8,3.6s0,2.5,0,8c0,4.6-3.8,4.6-3.8,4.6H21.9V11.1c1.2,0,13.4,0,14,0 c4,0,4.1,3.8,4.1,3.8S40,17.5,40,23.1z"></path> </g> <g> <path fill="currentColor" d="M68.4,21.8c0-1.2-0.1-2.4-0.1-3.5c0.4,0,0.8,0.1,1.1,0.1c0.4,0,0.8,0,1.1,0c0.4,0,0.8,0,1.1-0.1 c0.4,0,0.8-0.1,1.1-0.1c0.6,0,1.2,0.1,1.7,0.2c0.5,0.1,1,0.3,1.4,0.6c0.4,0.3,0.7,0.7,1,1.2c0.2,0.5,0.4,1.2,0.4,1.9 c0,1.4-0.3,2.4-1,3.2c-0.7,0.8-1.5,1.3-2.6,1.6v0.1c1.3,0.1,2.3,0.5,3,1.2c0.7,0.7,1.1,1.9,1.1,3.5c0,1-0.2,1.9-0.5,2.6 c-0.3,0.7-0.8,1.3-1.3,1.7c-0.5,0.4-1.1,0.7-1.8,0.9c-0.6,0.2-1.3,0.3-1.9,0.3c-0.3,0-0.7,0-1,0c-0.4,0-0.7,0-1,0 c-0.3,0-0.7,0-1,0c-0.4,0-0.7,0-1,0.1c0-1.2,0.1-2.4,0.1-3.5c0-1.2,0.1-2.4,0.1-3.6v-4.8C68.5,24.2,68.5,23,68.4,21.8z M72.9,26.6 c0.5-0.1,0.9-0.3,1.3-0.7c0.4-0.3,0.7-0.7,0.9-1.2c0.2-0.5,0.4-1.1,0.4-1.9c0-0.8-0.1-1.4-0.3-1.8c-0.2-0.4-0.5-0.8-0.8-1 c-0.3-0.2-0.7-0.4-1.1-0.5c-0.4-0.1-0.8-0.1-1.3-0.1c-0.4,0-0.7,0-0.9,0c-0.3,0-0.5,0.1-0.7,0.1c0,0.9-0.1,1.8-0.1,2.6 c0,0.9,0,1.7,0,2.6v2.1h1.2C71.9,26.8,72.4,26.7,72.9,26.6z M70.3,33.4c0,0.9,0.1,1.9,0.1,2.8c0.3,0,0.6,0.1,1,0.1 c0.4,0,0.8,0,1.1,0c0.5,0,0.9-0.1,1.3-0.3c0.4-0.2,0.8-0.5,1.1-0.9c0.3-0.4,0.6-0.9,0.8-1.5c0.2-0.6,0.3-1.2,0.3-2 c0-0.8-0.1-1.4-0.3-1.9c-0.2-0.5-0.5-0.9-1-1.2c-0.4-0.3-0.9-0.5-1.5-0.6c-0.6-0.1-1.2-0.2-2-0.2h-1v2.8 C70.2,31.6,70.3,32.5,70.3,33.4z"></path> <path fill="currentColor" d="M81.6,21.8c0-1.2-0.1-2.4-0.1-3.5c0.6,0,1.3,0.1,1.9,0.1c0.6,0,1.3,0,1.9,0c0.6,0,1.3,0,1.9,0 c0.6,0,1.3-0.1,1.9-0.1c0,0.3-0.1,0.6-0.1,0.8c0,0.3,0,0.6,0.1,0.8c-0.5,0-0.9-0.1-1.3-0.1c-0.4,0-0.8-0.1-1.2-0.1 c-0.4,0-0.9-0.1-1.4-0.1c-0.5,0-1.1,0-1.8,0c0,0.6,0,1.1-0.1,1.7c0,0.5,0,1.1,0,1.8c0,0.7,0,1.4,0,2.1c0,0.7,0,1.2,0,1.5 c0.6,0,1.2,0,1.7,0c0.5,0,1,0,1.4-0.1c0.4,0,0.8-0.1,1.2-0.1c0.4,0,0.7-0.1,1-0.1c0,0.3-0.1,0.6-0.1,0.9c0,0.3,0,0.6,0.1,0.8 c-0.4-0.1-0.8-0.1-1.3-0.1c-0.5,0-1-0.1-1.5-0.1c-0.5,0-1,0-1.4,0c-0.4,0-0.8,0-1,0c0,0.2,0,0.3,0,0.5c0,0.2,0,0.4,0,0.7v1.1v1.7 c0,1,0,1.9,0,2.6c0,0.7,0,1.2,0,1.5c0.5,0,1,0,1.5,0c0.5,0,1.1,0,1.6,0c0.5,0,1-0.1,1.5-0.1c0.5,0,0.9-0.1,1.2-0.2 c0,0.1,0,0.3-0.1,0.4c0,0.2,0,0.3,0,0.4c0,0.3,0,0.5,0.1,0.7c-0.6,0-1.3-0.1-1.9-0.1c-0.6,0-1.3,0-2,0c-0.7,0-1.3,0-2,0 c-0.7,0-1.3,0-2,0.1c0-1.2,0.1-2.4,0.1-3.5c0-1.2,0.1-2.4,0.1-3.6v-4.8C81.7,24.2,81.6,23,81.6,21.8z"></path> <path fill="currentColor" d="M92.4,21.9c0-1.2-0.1-2.4-0.1-3.6c0.2,0,0.4,0.1,0.5,0.1c0.2,0,0.3,0,0.5,0c0.2,0,0.3,0,0.5,0 c0.2,0,0.4-0.1,0.5-0.1c0,1.2-0.1,2.4-0.1,3.6c0,1.2-0.1,2.4-0.1,3.6c0,2.3,0,4.3,0,6c0,1.7,0,3.2,0,4.6c1,0,2,0,2.9,0 c0.9,0,1.9-0.1,3-0.3c-0.1,0.3-0.1,0.6-0.1,0.8c0,0.2,0,0.5,0.1,0.7c-0.7,0-1.3-0.1-2-0.1c-0.7,0-1.3,0-2,0c-0.7,0-1.4,0-2,0 c-0.6,0-1.3,0-2,0.1c0-1.1,0.1-2.3,0.1-3.5c0-1.2,0.1-2.4,0.1-3.6v-4.8C92.4,24.2,92.4,23,92.4,21.9z"></path> <path fill="currentColor" d="M103.2,21.9c0-1.2-0.1-2.4-0.1-3.6c0.2,0,0.4,0.1,0.5,0.1c0.2,0,0.3,0,0.5,0c0.2,0,0.3,0,0.5,0 c0.2,0,0.4-0.1,0.5-0.1c0,1.2-0.1,2.4-0.1,3.6c0,1.2-0.1,2.4-0.1,3.6c0,2.3,0,4.3,0,6c0,1.7,0,3.2,0,4.6c1,0,2,0,2.9,0 c0.9,0,1.9-0.1,3-0.3c-0.1,0.3-0.1,0.6-0.1,0.8c0,0.2,0,0.5,0.1,0.7c-0.7,0-1.3-0.1-2-0.1c-0.7,0-1.3,0-2,0c-0.7,0-1.4,0-2,0 c-0.6,0-1.3,0-2,0.1c0-1.1,0.1-2.3,0.1-3.5c0-1.2,0.1-2.4,0.1-3.6v-4.8C103.2,24.2,103.2,23,103.2,21.9z"></path> <path fill="currentColor" d="M114,21.8c0-1.2-0.1-2.4-0.1-3.5c0.6,0,1.3,0.1,1.9,0.1c0.6,0,1.3,0,1.9,0c0.6,0,1.3,0,1.9,0 c0.6,0,1.3-0.1,1.9-0.1c0,0.3-0.1,0.6-0.1,0.8c0,0.3,0,0.6,0.1,0.8c-0.5,0-0.9-0.1-1.3-0.1c-0.4,0-0.8-0.1-1.2-0.1 c-0.4,0-0.9-0.1-1.4-0.1c-0.5,0-1.1,0-1.8,0c0,0.6,0,1.1-0.1,1.7c0,0.5,0,1.1,0,1.8c0,0.7,0,1.4,0,2.1c0,0.7,0,1.2,0,1.5 c0.6,0,1.2,0,1.7,0c0.5,0,1,0,1.4-0.1c0.4,0,0.8-0.1,1.2-0.1c0.4,0,0.7-0.1,1-0.1c0,0.3-0.1,0.6-0.1,0.9c0,0.3,0,0.6,0.1,0.8 c-0.4-0.1-0.8-0.1-1.3-0.1c-0.5,0-1-0.1-1.5-0.1c-0.5,0-1,0-1.4,0c-0.4,0-0.8,0-1,0c0,0.2,0,0.3,0,0.5c0,0.2,0,0.4,0,0.7v1.1v1.7 c0,1,0,1.9,0,2.6c0,0.7,0,1.2,0,1.5c0.5,0,1,0,1.5,0c0.5,0,1.1,0,1.6,0c0.5,0,1-0.1,1.5-0.1c0.5,0,0.9-0.1,1.2-0.2 c0,0.1,0,0.3-0.1,0.4c0,0.2,0,0.3,0,0.4c0,0.3,0,0.5,0.1,0.7c-0.6,0-1.3-0.1-1.9-0.1c-0.6,0-1.3,0-2,0c-0.7,0-1.3,0-2,0 c-0.6,0-1.3,0-2,0.1c0-1.2,0.1-2.4,0.1-3.5c0-1.2,0.1-2.4,0.1-3.6v-4.8C114,24.2,114,23,114,21.8z"></path> <path fill="currentColor" d="M127.9,33.4c-0.5-1.5-1-3.1-1.5-4.8c-0.5-1.7-1.1-3.4-1.7-5.2c-0.6-1.8-1.1-3.4-1.6-5 c0.2,0,0.4,0.1,0.6,0.1c0.2,0,0.4,0,0.5,0c0.2,0,0.4,0,0.5,0c0.2,0,0.4-0.1,0.6-0.1c0.3,1.2,0.7,2.5,1,3.8 c0.4,1.3,0.8,2.7,1.2,4.1c0.4,1.4,0.9,2.8,1.3,4.2c0.4,1.4,0.9,2.8,1.4,4.2c0.3-0.8,0.5-1.6,0.8-2.5c0.3-0.9,0.6-1.9,0.9-2.9 c0.3-1,0.6-2,0.9-3.1c0.3-1,0.6-2,0.9-3c0.3-1,0.5-1.9,0.8-2.7c0.2-0.8,0.4-1.5,0.6-2.2c0.3,0.1,0.6,0.1,0.8,0.1 c0.2,0,0.5,0,0.8-0.1c-1.1,3.2-2.2,6.4-3.2,9.5c-1,3.1-2,6.3-3,9.5c-0.2,0-0.5-0.1-0.7-0.1c-0.3,0-0.5,0-0.7,0.1 C128.7,36.2,128.3,34.9,127.9,33.4z"></path> <path fill="currentColor" d="M150.4,21.2c0-1.4,0-2.4-0.1-2.9c0.2,0,0.3,0.1,0.5,0.1c0.1,0,0.3,0,0.4,0c0.2,0,0.4,0,0.6-0.1 c0,0.6-0.1,1.4-0.1,2.3c0,0.9-0.1,1.8-0.1,2.9c0,1-0.1,2.1-0.1,3.2c0,1.1,0,2.1-0.1,3.1c0,1.2-0.2,2.3-0.4,3.3 c-0.3,1-0.7,1.8-1.2,2.5c-0.5,0.7-1.2,1.2-1.9,1.5c-0.8,0.3-1.6,0.5-2.6,0.5c-2.2,0-3.7-0.6-4.7-1.9c-1-1.3-1.5-3.2-1.5-5.9 c0-0.9,0-1.6,0.1-2.3c0-0.7,0.1-1.4,0.1-2.1c0-1.6,0-2.9,0-4.1c0-1.2-0.1-2.2-0.1-3c0.2,0,0.4,0.1,0.6,0.1c0.2,0,0.4,0,0.6,0 c0.2,0,0.3,0,0.5,0c0.2,0,0.3-0.1,0.5-0.1c0,0.4-0.1,0.9-0.1,1.6c0,0.7-0.1,1.4-0.1,2.2c0,0.8-0.1,1.7-0.1,2.7c0,1,0,2,0,3 c0,0.6,0,1.3,0,1.9c0,0.7,0.1,1.3,0.2,2c0.1,0.6,0.2,1.2,0.4,1.8c0.2,0.6,0.5,1.1,0.8,1.5c0.4,0.4,0.8,0.8,1.4,1 c0.5,0.2,1.2,0.4,2,0.4c0.8,0,1.5-0.1,2-0.4c0.5-0.3,1-0.7,1.3-1.2c0.3-0.5,0.6-1,0.8-1.7c0.2-0.6,0.3-1.3,0.4-2 c0.1-0.7,0.1-1.4,0.1-2c0-0.7,0-1.3,0-1.9C150.4,24.7,150.4,22.6,150.4,21.2z"></path> <path fill="currentColor" d="M155.9,21.8c0-1.2-0.1-2.4-0.1-3.5c0.6,0,1.3,0.1,1.9,0.1c0.6,0,1.3,0,1.9,0c0.7,0,1.3,0,1.9,0 c0.6,0,1.3-0.1,1.9-0.1c0,0.3-0.1,0.6-0.1,0.8c0,0.3,0,0.6,0.1,0.8c-0.5,0-0.9-0.1-1.3-0.1c-0.4,0-0.8-0.1-1.2-0.1 c-0.4,0-0.9-0.1-1.4-0.1c-0.5,0-1.1,0-1.8,0c0,0.6,0,1.1-0.1,1.7c0,0.5,0,1.1,0,1.8c0,0.7,0,1.4,0,2.1c0,0.7,0,1.2,0,1.5 c0.6,0,1.2,0,1.7,0c0.5,0,1,0,1.4-0.1c0.4,0,0.8-0.1,1.2-0.1c0.4,0,0.7-0.1,1-0.1c0,0.3-0.1,0.6-0.1,0.9c0,0.3,0,0.6,0.1,0.8 c-0.4-0.1-0.8-0.1-1.3-0.1c-0.5,0-1-0.1-1.5-0.1c-0.5,0-1,0-1.4,0c-0.4,0-0.8,0-1,0c0,0.2,0,0.3,0,0.5c0,0.2,0,0.4,0,0.7v1.1v1.7 c0,1,0,1.9,0,2.6c0,0.7,0,1.2,0,1.5c0.5,0,1,0,1.5,0c0.5,0,1.1,0,1.6,0c0.5,0,1-0.1,1.5-0.1c0.5,0,0.9-0.1,1.2-0.2 c0,0.1,0,0.3-0.1,0.4c0,0.2,0,0.3,0,0.4c0,0.3,0,0.5,0.1,0.7c-0.6,0-1.3-0.1-1.9-0.1c-0.6,0-1.3,0-2,0c-0.7,0-1.3,0-2,0 c-0.6,0-1.3,0-2,0.1c0-1.2,0.1-2.4,0.1-3.5c0-1.2,0.1-2.4,0.1-3.6v-4.8C156,24.2,155.9,23,155.9,21.8z"></path> <path fill="currentColor" d="M177.2,19.7c-0.4,0-0.8,0-1.2,0c-0.4,0-0.8,0-1.2,0.1c-0.4,0-0.8,0.1-1.2,0.1c-0.4,0-0.7,0.1-1,0.1 c0.1-0.3,0.1-0.6,0.1-0.9c0-0.2,0-0.5-0.1-0.9c0.9,0,1.9,0.1,2.8,0.1c0.9,0,1.8,0,2.8,0c1,0,1.9,0,2.8,0c0.9,0,1.8-0.1,2.8-0.1 c-0.1,0.4-0.1,0.7-0.1,0.9c0,0.2,0,0.5,0.1,0.9c-0.3-0.1-0.6-0.1-1-0.1c-0.4,0-0.8-0.1-1.2-0.1c-0.4,0-0.8,0-1.2-0.1 c-0.4,0-0.8,0-1.2,0c0,1.9-0.1,3.8-0.1,5.7v4.8c0,1.2,0,2.4,0.1,3.6c0,1.2,0.1,2.3,0.1,3.5c-0.3,0-0.7-0.1-1.1-0.1 c-0.4,0-0.7,0-1.1,0.1c0-1.1,0.1-2.3,0.1-3.5c0-1.2,0.1-2.4,0.1-3.6v-4.8C177.3,23.5,177.3,21.6,177.2,19.7z"></path> <path fill="currentColor" d="M184.9,23.6c0.4-1.2,1-2.3,1.7-3.1c0.7-0.8,1.6-1.5,2.6-1.9c1-0.4,2.1-0.7,3.3-0.7c1.2,0,2.3,0.2,3.3,0.7 c1,0.4,1.8,1.1,2.6,1.9c0.7,0.8,1.3,1.9,1.7,3.1c0.4,1.2,0.6,2.6,0.6,4.2c0,1.6-0.2,3-0.6,4.2c-0.4,1.2-0.9,2.3-1.7,3.1 c-0.7,0.8-1.6,1.5-2.6,1.9c-1,0.4-2.1,0.6-3.3,0.6c-1.2,0-2.3-0.2-3.3-0.6c-1-0.4-1.8-1-2.6-1.9c-0.7-0.8-1.3-1.9-1.7-3.1 c-0.4-1.2-0.6-2.6-0.6-4.2C184.3,26.3,184.5,24.9,184.9,23.6z M197.9,23.9c-0.3-1.1-0.7-2-1.3-2.8c-0.5-0.7-1.2-1.3-1.9-1.6 c-0.7-0.4-1.5-0.5-2.4-0.5c-0.8,0-1.6,0.2-2.3,0.5c-0.7,0.3-1.4,0.9-1.9,1.6c-0.5,0.7-1,1.6-1.3,2.8c-0.3,1.1-0.5,2.4-0.5,4 c0,1.5,0.2,2.9,0.5,4c0.3,1.1,0.7,2,1.3,2.8c0.5,0.7,1.2,1.3,1.9,1.6c0.7,0.4,1.5,0.5,2.3,0.5c0.8,0,1.6-0.2,2.4-0.5 c0.7-0.3,1.4-0.9,1.9-1.6c0.5-0.7,1-1.6,1.3-2.8c0.3-1.1,0.5-2.4,0.5-4C198.3,26.3,198.2,25,197.9,23.9z"></path> <path fill="currentColor" d="M205.4,35.1c-0.2-1-0.5-2.1-0.8-3.4c-0.3-1.3-0.6-2.6-1-3.9c-0.3-1.4-0.6-2.7-0.9-3.9 c-0.3-1.2-0.6-2.4-0.8-3.4c-0.3-1-0.5-1.7-0.6-2.2c0.2,0,0.4,0.1,0.5,0.1c0.2,0,0.4,0,0.5,0c0.2,0,0.4,0,0.5,0 c0.2,0,0.4-0.1,0.5-0.1c0.3,1.4,0.5,2.7,0.8,3.9c0.3,1.2,0.5,2.5,0.8,3.7c0.3,1.3,0.6,2.6,0.9,4c0.3,1.4,0.7,3,1.2,4.7h0 c0.1-0.5,0.3-1.2,0.5-2.1c0.2-0.9,0.5-1.8,0.8-2.9c0.3-1.1,0.6-2.2,0.9-3.3c0.3-1.1,0.6-2.2,0.8-3.3c0.3-1,0.5-2,0.7-2.8 c0.2-0.9,0.3-1.5,0.4-2c0.3,0.1,0.5,0.1,0.7,0.1c0.2,0,0.4,0,0.7-0.1c0.1,0.5,0.3,1.2,0.5,2c0.2,0.9,0.4,1.8,0.7,2.9 c0.3,1.1,0.5,2.2,0.8,3.3c0.3,1.1,0.6,2.2,0.9,3.3c0.3,1,0.5,2,0.7,2.8c0.2,0.8,0.4,1.5,0.5,2h0c0.1-0.4,0.3-1,0.5-1.9 c0.2-0.9,0.4-1.8,0.7-2.9c0.3-1.1,0.5-2.2,0.8-3.4c0.3-1.2,0.6-2.3,0.8-3.4c0.3-1.1,0.5-2,0.7-2.9c0.2-0.8,0.3-1.5,0.4-1.9 c0.1,0,0.3,0.1,0.4,0.1c0.1,0,0.3,0,0.4,0c0.1,0,0.3,0,0.4,0c0.1,0,0.3-0.1,0.4-0.1c-0.1,0.4-0.4,1.1-0.6,2.1 c-0.3,1-0.6,2.1-0.9,3.3c-0.3,1.3-0.7,2.6-1.1,4c-0.4,1.4-0.7,2.7-1.1,4c-0.3,1.3-0.6,2.4-0.9,3.4c-0.3,1-0.5,1.7-0.6,2.2 c-0.2,0-0.5-0.1-0.7-0.1c-0.3,0-0.5,0-0.7,0.1c-0.6-2.6-1.3-5.1-1.9-7.7c-0.6-2.6-1.3-5.3-2-8h0c-0.1,0.4-0.3,1-0.5,1.7 c-0.2,0.7-0.4,1.5-0.6,2.4c-0.2,0.9-0.5,1.8-0.8,2.8c-0.3,1-0.5,2-0.8,3.1c-0.3,1-0.5,2-0.8,3c-0.3,1-0.5,1.9-0.7,2.7 c-0.2,0-0.5-0.1-0.8-0.1c-0.3,0-0.5,0-0.8,0.1C205.8,36.8,205.6,36.1,205.4,35.1z"></path> <path fill="currentColor" d="M224.6,21.8c0-1.2-0.1-2.4-0.1-3.5c0.6,0,1.3,0.1,1.9,0.1c0.6,0,1.3,0,1.9,0c0.6,0,1.3,0,1.9,0 c0.6,0,1.3-0.1,1.9-0.1c0,0.3-0.1,0.6-0.1,0.8c0,0.3,0,0.6,0.1,0.8c-0.5,0-0.9-0.1-1.3-0.1c-0.4,0-0.8-0.1-1.2-0.1 c-0.4,0-0.9-0.1-1.4-0.1c-0.5,0-1.1,0-1.8,0c0,0.6,0,1.1-0.1,1.7c0,0.5,0,1.1,0,1.8c0,0.7,0,1.4,0,2.1c0,0.7,0,1.2,0,1.5 c0.6,0,1.2,0,1.7,0c0.5,0,1,0,1.4-0.1c0.4,0,0.8-0.1,1.2-0.1c0.4,0,0.7-0.1,1-0.1c0,0.3-0.1,0.6-0.1,0.9c0,0.3,0,0.6,0.1,0.8 c-0.4-0.1-0.8-0.1-1.3-0.1c-0.5,0-1-0.1-1.5-0.1c-0.5,0-1,0-1.4,0c-0.4,0-0.8,0-1,0c0,0.2,0,0.3,0,0.5c0,0.2,0,0.4,0,0.7v1.1v1.7 c0,1,0,1.9,0,2.6c0,0.7,0,1.2,0,1.5c0.5,0,1,0,1.5,0c0.5,0,1.1,0,1.6,0c0.5,0,1-0.1,1.5-0.1c0.5,0,0.9-0.1,1.2-0.2 c0,0.1,0,0.3-0.1,0.4c0,0.2,0,0.3,0,0.4c0,0.3,0,0.5,0.1,0.7c-0.6,0-1.3-0.1-1.9-0.1c-0.6,0-1.3,0-2,0c-0.7,0-1.3,0-2,0 c-0.6,0-1.3,0-2,0.1c0-1.2,0.1-2.4,0.1-3.5c0-1.2,0.1-2.4,0.1-3.6v-4.8C224.7,24.2,224.6,23,224.6,21.8z"></path> <path fill="currentColor" d="M235.4,21.9c0-1.2-0.1-2.4-0.1-3.6c0.4,0,0.8,0.1,1.2,0.1c0.4,0,0.8,0,1.2,0c0.4,0,0.8,0,1.2-0.1 c0.4,0,0.8-0.1,1.2-0.1c0.6,0,1.2,0.1,1.7,0.2c0.5,0.1,1,0.4,1.4,0.7c0.4,0.3,0.7,0.8,1,1.3c0.2,0.6,0.4,1.2,0.4,2.1 c0,0.9-0.2,1.6-0.5,2.3c-0.3,0.6-0.7,1.2-1.1,1.6c-0.4,0.4-0.9,0.7-1.4,1c-0.5,0.2-1,0.4-1.4,0.5c0.2,0.3,0.4,0.7,0.7,1.2 c0.3,0.5,0.6,1,1,1.6c0.4,0.6,0.8,1.2,1.2,1.9c0.4,0.7,0.8,1.3,1.2,1.9c0.4,0.6,0.7,1.1,1.1,1.6c0.3,0.5,0.6,0.9,0.8,1.1 c-0.2,0-0.4-0.1-0.6-0.1c-0.2,0-0.4,0-0.6,0c-0.2,0-0.4,0-0.6,0c-0.2,0-0.4,0-0.6,0.1c-0.2-0.4-0.5-1-1-1.7 c-0.4-0.8-0.9-1.6-1.5-2.5c-0.5-0.9-1.1-1.8-1.6-2.6c-0.6-0.9-1.1-1.6-1.5-2.2h-0.8v2c0,1.2,0,2.4,0.1,3.6c0,1.2,0.1,2.3,0.1,3.5 c-0.3,0-0.7-0.1-1.1-0.1c-0.4,0-0.7,0-1.1,0.1c0-1.1,0.1-2.3,0.1-3.5c0-1.2,0.1-2.4,0.1-3.6v-4.8C235.4,24.2,235.4,23,235.4,21.9z M237.9,27.1c0.2,0,0.5,0,0.8,0c0.4,0,0.9-0.1,1.4-0.2c0.5-0.1,0.9-0.4,1.3-0.7c0.4-0.3,0.7-0.8,1-1.3c0.3-0.5,0.4-1.2,0.4-2.1 c0-0.7-0.1-1.3-0.3-1.8c-0.2-0.5-0.5-0.8-0.8-1.1c-0.3-0.3-0.7-0.5-1.1-0.6c-0.4-0.1-0.8-0.2-1.1-0.2c-0.5,0-0.9,0-1.3,0 c-0.3,0-0.6,0.1-0.8,0.1c0,1-0.1,2-0.1,3c0,1,0,2,0,3V27C237.4,27.1,237.6,27.1,237.9,27.1z"></path> <path fill="currentColor" d="M248.6,34.7c0.2,0.3,0.4,0.6,0.7,0.9c0.3,0.3,0.6,0.5,1,0.7c0.4,0.2,0.8,0.3,1.3,0.3 c0.5,0,0.9-0.1,1.3-0.3c0.4-0.2,0.7-0.5,1-0.9c0.3-0.4,0.5-0.8,0.6-1.3c0.1-0.5,0.2-1,0.2-1.6c0-0.8-0.2-1.5-0.5-2 c-0.3-0.5-0.8-0.9-1.3-1.2c-0.5-0.3-1-0.6-1.6-0.9c-0.6-0.3-1.1-0.6-1.6-1c-0.5-0.4-0.9-0.9-1.3-1.6c-0.3-0.6-0.5-1.5-0.5-2.6 c0-0.8,0.1-1.5,0.3-2.1c0.2-0.6,0.5-1.2,0.9-1.6c0.4-0.5,0.9-0.8,1.5-1.1c0.6-0.3,1.2-0.4,1.9-0.4c0.7,0,1.3,0.1,1.8,0.3 c0.5,0.2,1,0.5,1.4,1c-0.1,0.3-0.2,0.6-0.3,1c-0.1,0.3-0.2,0.8-0.3,1.3h-0.3c-0.1-0.3-0.2-0.5-0.3-0.8c-0.1-0.3-0.3-0.6-0.5-0.8 c-0.2-0.3-0.5-0.5-0.7-0.6c-0.3-0.2-0.6-0.3-1-0.3c-0.4,0-0.8,0.1-1.1,0.2c-0.3,0.2-0.6,0.4-0.9,0.7c-0.3,0.3-0.4,0.7-0.6,1.1 c-0.1,0.4-0.2,0.9-0.2,1.4c0,0.9,0.2,1.5,0.5,2c0.3,0.5,0.8,0.9,1.3,1.3c0.5,0.3,1,0.6,1.6,0.9c0.6,0.3,1.1,0.6,1.6,1 c0.5,0.4,0.9,0.9,1.3,1.5c0.3,0.6,0.5,1.4,0.5,2.4c0,0.8-0.1,1.6-0.4,2.4c-0.2,0.8-0.6,1.4-1,2c-0.5,0.6-1,1-1.7,1.3 c-0.7,0.3-1.4,0.5-2.2,0.5c-0.9,0-1.6-0.1-2.2-0.5c-0.6-0.3-1-0.6-1.4-1c0.1-0.4,0.2-0.8,0.3-1.1c0-0.3,0.1-0.8,0.1-1.3h0.3 C248.3,34,248.4,34.3,248.6,34.7z"></path> </g> </g> </svg> 