<?xml version="1.0" encoding="UTF-8"?> <svg xmlns="http://www.w3.org/2000/svg" viewBox="0 0 182.457 60"> <path d="M9.849,0h40.3V5.57H9.849ZM5.57,50.151V9.848H0v40.3Zm48.86-40.3v40.3H60V9.848ZM50.152,54.43H9.849V60h40.3ZM15.418,50.152H9.849a40.3,40.3,0,0,1,40.3-40.3v5.57A34.733,34.733,0,0,0,15.418,50.152ZM33.933,33.933a22.786,22.786,0,0,0-6.718,16.218h5.57a17.394,17.394,0,0,1,11.8-16.458V50.151h5.57V27.215A22.786,22.786,0,0,0,33.933,33.933ZM71.463,9.848h8.178q6.913,0,6.914,4.773a4.314,4.314,0,0,1-.593,2.322,4.229,4.229,0,0,1-1.832,1.548,5.089,5.089,0,0,1,2.244,1.741,4.529,4.529,0,0,1,.722,2.593,4.727,4.727,0,0,1-1.883,4.05,8.952,8.952,0,0,1-5.392,1.393H71.464V9.848Zm7.894,7.069a3.313,3.313,0,0,0,1.844-.4,1.44,1.44,0,0,0,.58-1.277,1.413,1.413,0,0,0-.606-1.29,4.006,4.006,0,0,0-2.051-.387H76.133v3.354Zm.026,7.636a4.128,4.128,0,0,0,2.27-.477,1.783,1.783,0,0,0,.7-1.587,1.673,1.673,0,0,0-.684-1.509,4,4,0,0,0-2.154-.451h-3.38v4.024Zm10.133-14.7h4.953V24.063h8.642v4.205h-13.6V9.848Zm23.527,18.884q-8.2,0-8.2-8.2V9.848h4.953V20.761a4.291,4.291,0,0,0,.761,2.838,3.971,3.971,0,0,0,4.979,0,4.294,4.294,0,0,0,.761-2.838V9.848h4.953v10.68Q121.247,28.732,113.043,28.732Zm11.3-18.884h13.9v4.076h-9.081v2.941h8.565v4.076h-8.565v3.251h9.416v4.076h-14.24ZM84.62,38.285,81.7,50.151H76.649l-5.185-18.42h5.263l2.657,12.305,2.993-12.176h4.592l2.941,12.125,2.657-12.254h5.108l-5.082,18.42H87.535Zm24.327,8.359H101.93L100.8,50.152H95.816l6.811-18.42h5.8l6.785,18.42h-5.134Zm-5.7-4h4.386l-2.193-6.707Zm15.736-6.707h-5.753V31.732h16.459v4.205h-5.753V50.151h-4.953V35.937Zm13-4.205h13.9v4.076h-9.081v2.941h8.565v4.076h-8.565v3.251h9.416v4.076h-14.24Zm24.9,12.073h-3.276v6.346h-4.721V31.732H156.7a9.04,9.04,0,0,1,5.65,1.5,5.265,5.265,0,0,1,1.909,4.411,5.455,5.455,0,0,1-2.864,5.185l3.973,7.327h-5.237Zm-.361-3.844a3.8,3.8,0,0,0,2.27-.529,1.985,1.985,0,0,0,.7-1.69,1.925,1.925,0,0,0-.722-1.664,4.048,4.048,0,0,0-2.348-.529H153.6v4.412h2.915Zm21.422-2.425a4.881,4.881,0,0,0-1.677-1.741,4.268,4.268,0,0,0-2.245-.606,4.544,4.544,0,0,0-2.128.4,1.27,1.27,0,0,0-.735,1.174,1.216,1.216,0,0,0,.529,1.032,4.215,4.215,0,0,0,1.715.593l2.657.49a9.991,9.991,0,0,1,4.863,2,4.764,4.764,0,0,1,1.535,3.728,5.2,5.2,0,0,1-2.1,4.463,10.089,10.089,0,0,1-6.049,1.548,11.421,11.421,0,0,1-4.889-1.006,8.928,8.928,0,0,1-3.5-2.838l3.2-3.07a7.978,7.978,0,0,0,2.541,2.18,6.416,6.416,0,0,0,3.057.761,3.834,3.834,0,0,0,2.051-.464,1.471,1.471,0,0,0,.735-1.316,1.255,1.255,0,0,0-.645-1.122,6.889,6.889,0,0,0-2.245-.684l-2.038-.361A9.7,9.7,0,0,1,167.8,40.71a4.722,4.722,0,0,1-1.548-3.689,4.966,4.966,0,0,1,2.038-4.257,9.684,9.684,0,0,1,5.8-1.5q5.856,0,7.817,4.282Z"></path> </svg> 