<?xml version="1.0" encoding="UTF-8"?> <svg xmlns="http://www.w3.org/2000/svg" viewBox="0 0 785.07 141.36" id="Contentpage_projectlogo" class="img-responsive PJ-fill-black project-fancyname svg-img replaced-svg replaced-svg"> <path d="M212.97 141.36l12.42-31.06-31.75-87.9c-6.9-18.67 5-22 8.7-22.4H147.5c4.2 1.13 14.86 4.2 23.94 29.82l40.77 111.54zm113.45-118.9C332.17 10.27 340.67 2.7 350.8 0h-41c10 1.14 19.72 8 16.6 22.46M82.48 141.36c25.57 0 78.26-20.43 78.26-70.68S108.05.04 82.48.04c5.8.93 47 6.64 47 70.68s-41.18 69.74-47 70.68M0 141.4h45.6V.04H0c5.15 1 19.6 4.4 19.6 28v85.25c0 23.63-14.4 27-19.55 28.06M248.6 29.82l40.77 111.54h.77l12.42-31.06-31.75-87.9c-6.9-18.67 5-22 8.7-22.4H224.6c4.22 1.13 14.87 4.2 23.94 29.82" fill="#50788c"></path> <g fill="#5a5c5c"> <path d="M442.6 30.23v10.24a5.52 5.52 0 0 0 2.44 4.82 10.22 10.22 0 0 0 3.28 1.35 18.71 18.71 0 0 0 4.4.48 16.06 16.06 0 0 0 5.67-.9 6 6 0 0 0 2.13-1.36 6.75 6.75 0 0 0 1.8-5.06v-8.3c0-3.46 2.1-5.06 4.36-5.06v-.55H456.6v.55c2.14 0 5.22.62 5.22 5.55v7.44a7 7 0 0 1-1.77 5.09 6.61 6.61 0 0 1-2.6 1.5 11.19 11.19 0 0 1-3.52.54 9 9 0 0 1-3.73-.7 5.37 5.37 0 0 1-2.39-2 5.59 5.59 0 0 1-.84-3.1V30.23q0-3.78 3.78-3.78h1.66v-.55h-14.48v.55h.85q3.78 0 3.78 3.78m-36.5 16.3V26.87h3.75c4.76 0 9.3 1.18 9.3 9.84s-4.53 9.83-9.3 9.83zm18.18-9.82c0-5-4.47-10.4-13.3-10.4h-13.8v.54h.76c2.36 0 3.78 1.15 3.78 3.8v12.1c0 2.64-1.42 3.8-3.78 3.8h-.76v.58h13.8c9.78 0 13.3-5.36 13.3-10.4m101.73-5.96l4.18 9.27h-8.26zm-2.32 15.76a3 3 0 0 1-2.68-4.39l.67-1.55h8.8l1.6 3.62c.15.4 1.06 2.32-2 2.32h-1.58v.58h12.07v-.58H540a3.73 3.73 0 0 1-3.5-2.44l-8.36-18.2h-.56l-6.6 15c-1.55 3.66-3.66 5.67-5.76 5.67v.58h8.47zm-36.43.06V36.54h3.05a17.51 17.51 0 0 1 4.1.37 4.73 4.73 0 0 1 3.65 4.62 4.6 4.6 0 0 1-1.59 3.75 6.87 6.87 0 0 1-4.53 1.31zm0-19.74h5.23c3.62 0 4.84 1.8 4.84 4.27 0 3.22-1.86 4.83-5.56 4.83h-4.5zm14.75 17.77a3.91 3.91 0 0 0 1.13-2.8c0-1.95-1.26-3.47-3.77-4.58a18.83 18.83 0 0 0-3.53-1v-.06l2.6-.82a9.74 9.74 0 0 0 1.73-.89 3.78 3.78 0 0 0 2-3.14 3.83 3.83 0 0 0-.64-2.1 5.33 5.33 0 0 0-1.8-1.65 8.36 8.36 0 0 0-2.59-.94 16.84 16.84 0 0 0-3.43-.34H478.3v.54h.76c2.37 0 3.78 1.15 3.78 3.8v12.1c0 2.64-1.4 3.8-3.78 3.8h-.76v.58h15.44c5.27 0 7.48-1.7 8.24-2.5m192.74-13.85l4.2 9.27h-8.27zm-2.32 15.76c-3.46 0-3.15-3.4-2.68-4.4l.67-1.55h8.8l.34.76.2.4.13.3.94 2.16c.14.4 1 2.32-2 2.32h-1.62v.58h12.07v-.58h-.55a3.79 3.79 0 0 1-3.5-2.44l-8.36-18.2h-.55l-6.6 15c-1 2.25-2.93 5.67-5.76 5.67v.58h8.47zm-44.52-16.42v12.63c0 2.66-1.47 3.8-3.78 3.8h-.67v.58h13.07v-.58h-.46c-2.67 0-3.78-1.62-3.78-3.8v-5.9h11.2v5.9c0 2.63-1.43 3.8-3.78 3.8h-.43v.58h13v-.58h-.65a3.47 3.47 0 0 1-3.78-3.79v-12.1c0-2.63 1.45-3.8 3.78-3.8h.6v-.54h-13v.54h.43c2.7 0 3.78 1.5 3.78 3.8v5.58h-11.15v-5.58c0-2.6 1.35-3.8 3.78-3.8h.46v-.54h-13.1v.54h.7c2.27 0 3.78 1.3 3.78 3.25m82.8-3.24h6c3.77 0 6 1.27 6 4.42 0 3.47-1.77 4.24-2.67 4.58a9.64 9.64 0 0 1-3.45.52h-5.92zm-4.4 3.25v12.63c0 2.66-1.46 3.8-3.78 3.8h-.66v.58h13.22v-.58h-.6a3.44 3.44 0 0 1-3.78-3.79v-5.8h4.68l7.23 10.18h7.8v-.58h-.58a5.09 5.09 0 0 1-2.77-.64 8.89 8.89 0 0 1-1.24-1.3l-1.6-2.2-.54-.82-.73-1.07-.5-.75a17.85 17.85 0 0 1-6.35-2.76v-.06l3.6-.1a21.25 21.25 0 0 0 3.11-.52c1-.26 4.9-1.2 4.9-5 0-2.64-3.15-4.17-4.42-4.5a22.15 22.15 0 0 0-5.18-.47h-16.3v.54h.7c2.27 0 3.78 1.3 3.78 3.25m40.33-.04v12.63c0 2.66-1.47 3.8-3.78 3.8h-.67v.58h13.93v-.58h-1.28a3.47 3.47 0 0 1-3.77-3.79v-6.3h1c4.57 0 5 4.6 5.15 5.63h.55V30.16h-.52c-.34 2-1.3 5.73-4.9 5.73H771v-9h4.92c7.77 0 8.5 7.67 8.64 8.45h.5v-9h-22.9v.54h.72c2.26 0 3.78 1.3 3.78 3.25"></path> <path d="M631.7 26.4v-.54h-8.35v.54c4.73 0 3.45 3.3 3.23 3.9l-4.4 11.2-4.48-12.22c-.14-.35-1-2.88 2.62-2.88h.55v-.54h-11.3v.54a4 4 0 0 1 3.5 2.31 15.62 15.62 0 0 1 .92 2.24l-4.25 10.55-4.38-12.16c-.18-.53-1.3-2.94 2.3-2.94v-.54h-10.8v.54h.52c2.58 0 3.64 2.75 4.17 4.25l6 16.46h.58l6.2-15.5 5.7 15.5h.58l6.54-16.6c.58-1.46 2-4.1 4.6-4.1m-65.33 20.13h-.58c-1.27 0-3.77-.26-3.77-3.78v-12.1c0-1.3.28-3.78 3.77-3.78h.58v-.55h-13.1v.55h.58c1.2 0 3.78.42 3.78 3.32v12.56c0 3.34-2.32 3.78-3.78 3.78h-.58v.58h13.1zM397.14 92.27l1.55-1.6a3.31 3.31 0 0 0 2.69 1.59c1.26 0 2.13-.85 2.13-2.64v-8.76h2.42v8.83a4.83 4.83 0 0 1-1.26 3.56 4.48 4.48 0 0 1-3.25 1.19 5.05 5.05 0 0 1-4.28-2.16zm23.36-11.5h2.18l5.9 13.47h-2.5l-1.36-3.2h-6.33l-1.37 3.23h-2.44zm3.37 8.16l-2.28-5.35-2.3 5.35zm14.07-8.07h5c4.2 0 7.12 2.9 7.12 6.66s-2.9 6.7-7.12 6.7h-5zM440.3 83v9.1h2.63a4.36 4.36 0 0 0 4.65-4.51 4.39 4.39 0 0 0-4.65-4.55zm19.67-2.15h5c4.2 0 7.1 2.9 7.1 6.66s-2.9 6.7-7.1 6.7h-5zm2.35 2.14v9.1h2.64a4.36 4.36 0 0 0 4.65-4.51 4.39 4.39 0 0 0-4.65-4.55zm23.48-2.23h2.18l5.9 13.47h-2.48l-1.36-3.2h-6.33l-1.37 3.23h-2.4zm3.37 8.16l-2.3-5.35-2.3 5.35zm14.07-8.07h10v2.2h-7.65v3.65h6.74v2.15h-6.74v5.44h-2.36zm31.4 0h2.54l3.2 9.92 3.28-10h2l3.3 10 3.2-9.92h2.45l-4.65 13.48h-2l-3.35-9.62-3.3 9.62h-2zm32.46-.1h2.18l5.88 13.47h-2.48l-1.36-3.2H565l-1.4 3.2h-2.4zm3.36 8.16l-2.3-5.35-2.3 5.35zm15.66-5.88h-4.25v-2.18h10.86v2.18h-4.24v11.2h-2.37zm16.18-2.2h9.92v2.1h-7.57v3.47h6.7v2.1h-6.7v3.6h7.67v2.1h-10zm19.88 0h6a5.42 5.42 0 0 1 3.87 1.34 4.08 4.08 0 0 1 1.1 2.89 4 4 0 0 1-3.17 4.05l3.6 5.06h-2.8l-3.3-4.66h-2.94v4.66h-2.35zm5.8 6.64c1.68 0 2.75-.88 2.75-2.24 0-1.43-1-2.22-2.77-2.22h-3.42v4.5zm15.1-6.64h10v2.2h-7.6v3.65h6.75v2.15h-6.75v5.44h-2.35zm19.62 0h6a5.4 5.4 0 0 1 3.86 1.34 4 4 0 0 1 1.03 2.85 4 4 0 0 1-3.17 4.05l3.6 5.06h-2.8l-3.3-4.66H665v4.66h-2.35zm5.8 6.64c1.68 0 2.75-.88 2.75-2.24 0-1.43-1-2.22-2.77-2.22h-3.42v4.5zm14.5.1a7 7 0 1 1 14 0 7 7 0 1 1-14 0zm11.53 0a4.58 4.58 0 0 0-4.55-4.76 4.52 4.52 0 0 0-4.51 4.73 4.57 4.57 0 0 0 4.55 4.74 4.5 4.5 0 0 0 4.51-4.71zm12.4-6.73h2.18l7.17 9.26v-9.26h2.32v13.38h-2l-7.38-9.52v9.52h-2.32zm25.48 2.2h-4.24v-2.18H739v2.18h-4.25v11.2h-2.37z"></path> </g> </svg> 