<?xml version="1.0" encoding="UTF-8"?> <svg xmlns="http://www.w3.org/2000/svg" xmlns:xlink="http://www.w3.org/1999/xlink" viewBox="0 0 701.41 215.71" id="Contentpage_projectlogo" class="img-responsive PJ-fill-black project-fancyname svg-img replaced-svg replaced-svg"> <path d="M212.84 87.12q3.44 6.55 7.2 13.44l1.4-2.66 2.15-4 2.62-4.87 2.83-5.3 2.86-5.28q1.43-2.6 2.64-4.84h.64q.54 4.7 1 9.07.46 4.38.95 8.6.5 4.23 1 8.36.5 4.13 1.08 8.2a6.54 6.54 0 0 0-1.15-.1h-2.32a6.54 6.54 0 0 0-1.15.1q-.54-6.5-1.07-12.6-.53-6.1-1.32-12.47h-.1q-3.37 6.17-6.62 12.25-3.25 6.08-6.2 12.73h-.44q-2.92-6.17-6.13-12.34-3.2-6.17-6.43-12.64h-.1q-.34 3-.76 6.58l-.75 7-.6 6.5-.24 5a13.17 13.17 0 0 0-1.72-.1 12.91 12.91 0 0 0-1.71.1q.65-4 1.32-8.36.67-4.36 1.32-8.85l1.18-8.77.93-8.24h.83q3.36 6.97 6.82 13.5zm66.2 20.73a8.47 8.47 0 0 0-1.29-.1h-2.6a8.59 8.59 0 0 0-1.3.1l-.93-2.72-1.3-3.32-1.45-3.52-1.36-3.4-3.18-.07h-6.23l-3 .07-2.84 7.26-1.9 5.7a16.43 16.43 0 0 0-3.62 0q4-8.55 7.72-17 3.72-8.45 7.58-17.2h.93l2.54 6.13q1.36 3.3 2.8 6.68l2.83 6.7 2.67 6.2 2.24 5.1 1.68 3.4zm-21.65-15.2h8l2.74-.07-5.37-12.37zm47.45 1.88q-6.36-6.82-12.7-13.57l-.1 3.67-.05 6.26v5.7l.08 3.38.1 3.18.1 2.56.1 1.5a14.86 14.86 0 0 0-1.71-.1 16.88 16.88 0 0 0-1.81.1 18.23 18.23 0 0 0 .22-1.81l.22-3.15.22-4 .2-4.3.12-4.2.05-3.67q0-4.68 0-8.06 0-3.38-.12-5h.78l6.38 6.92q3.4 3.7 6.75 7.28Q307 90.8 310 94q3 3.2 5.26 5.45V92.8l-.07-10-.32-9.17a7.11 7.11 0 0 0 1.66.24 6.9 6.9 0 0 0 1.56-.24l-.22 3.23-.24 4.6-.22 4.8-.1 3.77v6.4l.05 3.64v7.8h-.6q-5.57-6.52-11.93-13.33zm53.73 13.32a8.59 8.59 0 0 0-1.3-.1h-2.6a8.47 8.47 0 0 0-1.29.1l-.93-2.72-1.3-3.32-1.44-3.52-1.37-3.4-3.17-.07h-6.23l-3 .07-2.84 7.26-1.9 5.7a16.34 16.34 0 0 0-3.61 0q4-8.55 7.72-17 3.72-8.45 7.58-17.2h.93l2.54 6.13 2.78 6.68 2.84 6.7 2.66 6.2 2.25 5.1 1.68 3.4zm-21.66-15.2h8.02l2.74-.07-5.43-12.37zm34.04 8.85l8.48-12.08 3.76-5.47 3-4.4 1.9-2.86c-.6 0-1.17-.06-1.76-.07h-5.57l-4.33.17-4.15.25-3.35.27a6 6 0 0 0 .24-1.52 5.84 5.84 0 0 0-.24-1.51c1.6.13 4.12.2 7.57.22h12.8l2.64-.07 2.6-.17v.88a38.93 38.93 0 0 0-2.73 3.37l-3.9 5.33-4.42 6.3-4.36 6.36-3.64 5.45-2.32 3.6q1.17.1 2.13.12h1.93l4.32-.08 4.92-.22 4.62-.3 3.44-.3-.17.83a4.11 4.11 0 0 0-.07.78 4.91 4.91 0 0 0 .24 1.42l-3.25-.08h-21.55l-2.84.08v-.6q1.86-2.7 4.04-5.72zm33.82-20.98l-.27-6.25 4.38.17 4.37.07 4.36-.07 4.35-.17a7.16 7.16 0 0 0-.15 1.46 7.33 7.33 0 0 0 .15 1.47l-5.6-.4-3.15-.17-4.1-.08-.12 3-.08 3.23v6.45l3.86-.05 3.13-.12 2.62-.14 2.27-.18a7.61 7.61 0 0 0-.14 1.52 7.32 7.32 0 0 0 .14 1.47l-3-.25-3.37-.12-3.18-.05h-2.37V103l.07 2.74h3.42l3.65-.08 3.37-.2a20.37 20.37 0 0 0 2.76-.37 3 3 0 0 0-.12.76v.76a4.46 4.46 0 0 0 .15 1.27l-4.37-.1h-8.88l-4.45.1.27-6.23.13-6.34v-8.4l-.1-6.4zm28.26.08q-.12-3.1-.27-6.33l1.22.17a9.9 9.9 0 0 0 2.35 0l1.22-.17q-.15 3.22-.27 6.33-.12 3.1-.12 6.33l.05 10.68.1 8.1q3.46 0 6.64-.08a62.39 62.39 0 0 0 6.85-.56 5.48 5.48 0 0 0-.25 1.47 4.36 4.36 0 0 0 .25 1.32l-4.5-.1h-9l-4.52.1.27-6.16.12-6.36v-8.4q-.02-3.22-.14-6.33zm69.28 27.25a8.59 8.59 0 0 0-1.3-.1h-2.6a8.37 8.37 0 0 0-1.29.1l-.93-2.72-1.3-3.32-1.44-3.52-1.37-3.4-3.18-.07h-6.22l-3 .07q-1.56 3.82-2.83 7.26l-1.9 5.7a14.41 14.41 0 0 0-1.81-.1 14.63 14.63 0 0 0-1.81.1q4-8.55 7.73-17 3.73-8.45 7.57-17.2h.93l5.33 12.8 2.84 6.7 2.66 6.2 2.25 5.1 1.67 3.4zm-21.66-15.2h8.02l2.74-.07-5.43-12.37zm31.78-12.05q-.13-3.1-.27-6.33l1.22.17a9.18 9.18 0 0 0 1.17.07 9.45 9.45 0 0 0 1.18-.07l1.22-.17q-.15 3.22-.27 6.33-.12 3.1-.12 6.33l.05 10.68.1 8.1 6.65-.08a62 62 0 0 0 6.84-.56 5.83 5.83 0 0 0-.24 1.47 4.63 4.63 0 0 0 .24 1.32l-4.5-.1h-9l-4.52.1.27-6.16.12-6.36v-8.4q-.02-3.22-.14-6.33zm41.72 27.25l.27-6.16.12-6.36v-8.4q0-3.23-.12-6.33-.12-3.1-.27-6.33l1.22.17a9.9 9.9 0 0 0 2.35 0l1.22-.17q-.15 3.22-.27 6.33-.12 3.1-.12 6.33v2.68c0 .27.1.4.3.4s.36-.15.7-.44l3.6-3.33 3.8-3.86 3.76-4.08 3.57-4 1 .17a6.37 6.37 0 0 0 1 .07 9.18 9.18 0 0 0 1.17-.07l1.17-.17q-1.7 1.45-3.86 3.47l-4.33 4.1-4.15 4.13-3.3 3.55q4 4.44 8 9.06 4 4.62 8.2 9.27a10.37 10.37 0 0 0-1.47-.1h-2.8a8.73 8.73 0 0 0-1.34.1l-3.9-4.6-4.15-5-3.7-4.4-2.42-2.7c-.26-.26-.46-.4-.6-.4s-.24.1-.24.3v4.25q0 3.22.12 6.36l.27 6.16c-.75-.07-1.55-.1-2.4-.1l-2.37.1zM613.5 80.6q-.12-3.1-.27-6.33l1.23.17a9.81 9.81 0 0 0 2.34 0l1.22-.17q-.13 3.22-.26 6.33-.13 3.1-.13 6.33v8.4q0 3.22.13 6.36l.26 6.16c-.75-.07-1.54-.1-2.4-.1l-2.4.1.27-6.16.13-6.36v-4.4l-5.1-.07H598.3l-5.1.07v4.4q0 3.22.12 6.36l.27 6.16c-.75-.07-1.55-.1-2.4-.1l-2.4.1.27-6.16.12-6.36v-8.4q0-3.23-.12-6.33-.12-3.1-.27-6.33l1.22.17a9.34 9.34 0 0 0 1.18.07 9.18 9.18 0 0 0 1.17-.07l1.22-.17q-.14 3.22-.27 6.33-.13 3.1-.12 6.33v1.7l5.1.1 5.1.05 5.1-.05 5.1-.1v-1.7l-.13-6.33zm15.57 9.9a19.15 19.15 0 0 1 1.34-7.4 15.42 15.42 0 0 1 3.77-5.5 16.11 16.11 0 0 1 5.79-3.42 23.82 23.82 0 0 1 14.79.04 16.11 16.11 0 0 1 5.79 3.42 15.42 15.42 0 0 1 3.77 5.5 21.13 21.13 0 0 1 0 14.81 15.12 15.12 0 0 1-9.56 8.85 25.47 25.47 0 0 1-14.81 0 15.12 15.12 0 0 1-9.56-8.85 19.2 19.2 0 0 1-1.32-7.45zm31.82 0a21.27 21.27 0 0 0-1-7 13.21 13.21 0 0 0-2.86-4.89 11.32 11.32 0 0 0-4.3-2.86 15 15 0 0 0-5.35-.93 14.88 14.88 0 0 0-5.3.93 11.43 11.43 0 0 0-4.31 2.86 13.48 13.48 0 0 0-2.86 4.89 24.63 24.63 0 0 0 0 14 13.48 13.48 0 0 0 2.86 4.89 11.43 11.43 0 0 0 4.31 2.86 14.88 14.88 0 0 0 5.3.93 15 15 0 0 0 5.35-.93 11.32 11.32 0 0 0 4.3-2.86 13.21 13.21 0 0 0 2.86-4.89 21.29 21.29 0 0 0 1-7zm16.2-3.57q0-3.23-.12-6.33-.12-3.1-.27-6.33l2.8.17 2.8.07 2.78-.12c.9-.12 1.84-.12 2.8-.12a19 19 0 0 1 3.91.39 9.54 9.54 0 0 1 3.25 1.29 6.59 6.59 0 0 1 2.2 2.37 8.47 8.47 0 0 1-.24 7.7 10 10 0 0 1-2.57 2.79 13 13 0 0 1-3.25 1.71 16.27 16.27 0 0 1-3.15.81l1.6 2.05 4.94 6.22q1.37 1.74 2.64 3.33l2.4 2.9 1.8 2a10.37 10.37 0 0 0-1.47-.1h-2.88a9.4 9.4 0 0 0-1.42.1l-2.22-3.08-3.3-4.4-3.7-4.67-3.45-3.93h-1.86v3.56q0 3.22.13 6.36l.26 6.16c-.75-.07-1.54-.1-2.4-.1l-2.4.1.27-6.16.12-6.36zm4 2.78a9.58 9.58 0 0 0 1.49.2l1.8.05a15.27 15.27 0 0 0 3.15-.35 9.07 9.07 0 0 0 3-1.19 7.13 7.13 0 0 0 2.27-2.3 6.77 6.77 0 0 0 .9-3.64 6.4 6.4 0 0 0-.7-3.16 5.75 5.75 0 0 0-1.84-2 7.15 7.15 0 0 0-2.44-1 13 13 0 0 0-2.59-.27l-2.84.08-1.9.17-.2 5.33-.1 5.28z" fill="#5a5c5c"></path> <path d="M28.97 128.34v36.74h89.4V85.6h20.6v-5.16h-20.6V59.57h20.6V54.4h-20.6V33.53h20.6v-5.16h-20.6v-21h12.2v-7.4H16.76v7.4h12.2v21H8.38v5.16h20.6V54.4H8.38v5.17h20.6v20.87H8.38v5.16h20.6zm37.37-47.9h-22.7V59.57h22.7zm0-26h-22.7v-20.9h22.7zm37.37 26H81V59.57h22.76zm0-26H81v-20.9h22.76zm0-26H81v-21h22.76zm-37.37-21v21h-22.7v-21zM0 178.64h147.34v7.4H0zm40.27 29.66h66.8v7.4h-66.8zm-24.65-14.84h116.1v7.4H15.62z" fill="#82a5af"></path> <g fill="#5a5c5c"> <path d="M200.44 159.06l1.78-1.84a3.78 3.78 0 0 0 3.09 1.81c1.44 0 2.43-1 2.43-3v-10h2.78v10.12a5.53 5.53 0 0 1-1.44 4.07 5.12 5.12 0 0 1-3.73 1.36 5.79 5.79 0 0 1-4.91-2.52zm26.78-13.2h2.54l6.75 15.44h-2.85l-1.55-3.7h-7.26l-1.57 3.7h-2.77zm3.86 9.35l-2.65-6.13-2.67 6.12z"></path> <use xlink:href="#B"></use> <use xlink:href="#B" x="25.26"></use> <path d="M302.06 145.87h2.5l6.75 15.44h-2.85l-1.55-3.7h-7.26l-1.57 3.7h-2.76zm3.86 9.35l-2.65-6.13-2.63 6.12zm16.13-9.24h11.42v2.45h-8.7v4.18h7.73v2.46h-7.73v6.24h-2.7zm36 0h2.9l3.66 11.37 3.77-11.42h2.28l3.77 11.42 3.66-11.37h2.82l-5.32 15.44h-2.35l-3.76-11-3.77 11h-2.33zm37.2-.1h2.5l6.74 15.44h-2.84l-1.56-3.7h-7.25l-1.58 3.7h-2.76zm3.85 9.35l-2.65-6.13-2.63 6.12zm17.93-6.75h-4.86v-2.5h12.44v2.5h-4.85v12.84h-2.72zm18.54-2.5h11.38v2.4h-8.68v4h7.7v2.4h-7.7v4.12h8.8v2.4h-11.5zm22.8 0h6.83a6.21 6.21 0 0 1 4.43 1.53 4.63 4.63 0 0 1 1.27 3.31 4.61 4.61 0 0 1-3.64 4.65l4.14 5.8h-3.2l-3.76-5.34h-3.38v5.34h-2.7zm6.64 7.6c1.92 0 3.15-1 3.15-2.56v-.05c0-1.64-1.18-2.54-3.18-2.54h-3.92v5.15zm17.3-7.6h11.44v2.45h-8.72v4.18h7.72v2.46h-7.73v6.24h-2.7zm22.48 0h6.83a6.21 6.21 0 0 1 4.43 1.53 4.63 4.63 0 0 1 1.27 3.31 4.61 4.61 0 0 1-3.64 4.65l4.14 5.8h-3.2l-3.76-5.34h-3.38v5.34h-2.7zm6.63 7.6c1.93 0 3.16-1 3.16-2.56v-.05c0-1.64-1.18-2.54-3.18-2.54h-3.92v5.15zm16.65.12v-.05a8 8 0 1 1 0 .05zm13.2 0v-.05a5.25 5.25 0 0 0-5.21-5.45 5.18 5.18 0 0 0-5.17 5.41 5.23 5.23 0 0 0 5.21 5.44 5.16 5.16 0 0 0 5.17-5.35zm14.22-7.72h2.5l8.22 10.6v-10.6h2.65v15.33h-2.26l-8.45-10.9v10.9h-2.65zm29.2 2.5h-4.87v-2.5h12.45v2.5h-4.87v12.84h-2.7z"></path> </g> <defs> <path id="B" d="M247.2 145.98h5.72c4.82 0 8.15 3.3 8.15 7.62s-3.33 7.67-8.15 7.67h-5.72zm2.7 2.45v10.43h3a5 5 0 0 0 5.32-5.17v-.05a5 5 0 0 0-5.32-5.21z"></path> </defs> </svg> 