<?xml version="1.0" encoding="UTF-8"?> <svg xmlns="http://www.w3.org/2000/svg" xmlns:xlink="http://www.w3.org/1999/xlink" id="Contentpage_projectlogo" x="0px" y="0px" viewBox="0 0 175.3 81.9" xml:space="preserve" class="img-responsive PJ-fill-black project-fancyname svg-img replaced-svg replaced-svg"> <g> <g> <polygon fill="#ED6F69" points="54.1,67.5 56.4,43.3 77.3,43.3 93.6,54.5 95.4,75.4 74.8,81.9 "></polygon> <polygon fill="#FAE89C" points="58.4,39.3 43.5,36.7 43.5,3.7 70.9,0 87.6,9.2 "></polygon> <polygon fill="#F1C367" points="38.1,39.3 0,57 0,62 38.1,75.6 50.7,66.3 53,42 "></polygon> </g> <g> <path fill="#ED6F69" d="M113,34.4l-6.1-15.2H105V36h1.4V21.6l5.9,14.4h1.4c0.7-1.8,1.4-3.4,2-4.8s1.1-2.6,1.5-3.6 c0.4-1,0.8-1.9,1.1-2.6c0.3-0.7,0.5-1.3,0.7-1.7c0.4-1.1,0.7-1.7,0.8-1.8V36h1.4V19.1h-1.8L113,34.4z"></path> <path fill="#ED6F69" d="M132.9,34v2h1.4V23.8h-1.4V31c0,0.8-0.1,1.4-0.4,1.8c-0.2,0.4-0.6,0.9-1,1.3c-0.4,0.4-0.9,0.7-1.4,0.9 c-0.5,0.2-1,0.3-1.5,0.3c-1,0-1.7-0.3-2.1-0.8c-0.4-0.6-0.6-1.5-0.6-2.8v-7.7h-1.4V32c0,1.5,0.3,2.6,0.9,3.3 c0.6,0.8,1.6,1.1,3,1.1C130.1,36.4,131.6,35.6,132.9,34z"></path> <path fill="#ED6F69" d="M140,35.9c0.7,0.3,1.4,0.5,2.3,0.5c1,0,1.8-0.2,2.5-0.6c0.7-0.4,1.3-0.9,1.8-1.6V36h1.4V19.1h-1.4v6.4 c-0.6-0.8-1.2-1.3-1.9-1.6c-0.7-0.3-1.4-0.4-2-0.4c-1.7,0-3,0.6-4,1.7c-1,1.2-1.5,2.8-1.5,4.9c0,0.8,0.1,1.6,0.3,2.4 c0.2,0.8,0.5,1.4,0.9,2C138.9,35.1,139.4,35.6,140,35.9z M138.9,27.5c0.2-0.7,0.5-1.2,0.8-1.7c0.4-0.4,0.8-0.7,1.3-0.9 c0.5-0.2,1-0.3,1.6-0.3c0.5,0,0.9,0.1,1.3,0.2c0.4,0.1,0.7,0.3,1.1,0.6c0.3,0.2,0.5,0.4,0.7,0.7c0.2,0.2,0.4,0.5,0.5,0.8 c0.1,0.3,0.2,0.7,0.3,1.1c0.1,0.4,0.1,0.9,0.1,1.4v1.1c0,0.9-0.2,1.7-0.5,2.4c-0.3,0.6-0.7,1.2-1.3,1.6c-0.4,0.3-0.8,0.5-1.2,0.6 c-0.4,0.1-0.8,0.2-1.3,0.2c-0.5,0-0.9-0.1-1.4-0.2c-0.5-0.2-0.9-0.5-1.2-0.9c-0.4-0.4-0.7-0.9-0.9-1.6c-0.2-0.7-0.3-1.5-0.3-2.5 C138.6,29,138.7,28.2,138.9,27.5z"></path> <path fill="#ED6F69" d="M152.4,34.7c0.5,0.6,1.1,1,1.8,1.3c0.7,0.3,1.5,0.5,2.4,0.5s1.7-0.2,2.4-0.5c0.7-0.3,1.3-0.8,1.8-1.3 c0.5-0.6,0.9-1.3,1.1-2.1c0.3-0.8,0.4-1.7,0.4-2.7c0-1-0.1-1.8-0.4-2.6c-0.3-0.8-0.6-1.5-1.1-2c-0.5-0.6-1.1-1-1.8-1.3 c-0.7-0.3-1.5-0.5-2.4-0.5c-0.9,0-1.7,0.2-2.4,0.5c-0.7,0.3-1.3,0.7-1.8,1.3c-0.5,0.6-0.9,1.3-1.2,2.1c-0.3,0.8-0.4,1.7-0.4,2.7 c0,1,0.1,1.9,0.4,2.7C151.6,33.4,152,34.1,152.4,34.7z M152.6,27.9c0.2-0.6,0.4-1.2,0.7-1.7c0.3-0.5,0.8-0.8,1.3-1.1 c0.5-0.3,1.2-0.4,2-0.4c0.8,0,1.4,0.1,2,0.4c0.5,0.3,1,0.7,1.3,1.1c0.3,0.5,0.6,1,0.8,1.7c0.2,0.6,0.2,1.3,0.2,2 c0,0.8-0.1,1.5-0.2,2.1c-0.2,0.6-0.4,1.2-0.8,1.7c-0.3,0.5-0.8,0.8-1.3,1.1c-0.5,0.3-1.2,0.4-2,0.4c-0.8,0-1.4-0.1-2-0.4 c-0.5-0.3-1-0.7-1.3-1.1c-0.3-0.5-0.6-1-0.7-1.7c-0.2-0.6-0.2-1.3-0.2-2.1C152.4,29.2,152.5,28.5,152.6,27.9z"></path> <path fill="#ED6F69" d="M171.3,23.5c-0.9,0-1.7,0.2-2.4,0.6c-0.8,0.4-1.5,1-2.1,1.8v-2h-1.4V36h1.4v-7.2c0-0.8,0.1-1.4,0.4-1.8 c0.2-0.4,0.6-0.9,1.1-1.3c0.4-0.4,0.9-0.7,1.4-0.9c0.5-0.2,1-0.3,1.5-0.3c1,0,1.7,0.3,2.2,0.8c0.5,0.6,0.7,1.5,0.7,2.8V36h1.4 v-8.1c0-1.4-0.3-2.5-1-3.3C173.7,23.8,172.7,23.5,171.3,23.5z"></path> <polygon fill="#ED6F69" points="112.4,56.3 106.7,41 105,41 111.6,58 113.2,58 119.7,41 118.2,41 "></polygon> <rect x="121.6" y="45.8" fill="#ED6F69" width="1.4" height="12.2"></rect> <rect x="121.5" y="41" fill="#ED6F69" width="1.6" height="2.1"></rect> <path fill="#ED6F69" d="M135.5,47.1c-0.4-0.5-1-0.9-1.6-1.3c-0.7-0.3-1.5-0.5-2.4-0.5c-0.8,0-1.5,0.1-2.2,0.4 c-0.7,0.3-1.3,0.7-1.8,1.3c-0.5,0.6-0.9,1.3-1.2,2.1c-0.3,0.8-0.4,1.8-0.4,2.8c0,2,0.5,3.5,1.5,4.7c1,1.1,2.3,1.7,4.1,1.7 c1.5,0,2.7-0.3,3.5-1c0.8-0.7,1.3-1.5,1.5-2.6h-1.3c-0.1,0.4-0.2,0.7-0.4,1c-0.2,0.3-0.4,0.5-0.7,0.8c-0.3,0.2-0.6,0.4-1.1,0.5 c-0.4,0.1-0.9,0.2-1.6,0.2c-0.7,0-1.3-0.1-1.8-0.4c-0.5-0.3-1-0.6-1.3-1.1c-0.3-0.5-0.6-1-0.8-1.6s-0.3-1.3-0.3-2h9.4v-0.9 c0-0.8-0.1-1.6-0.3-2.3C136.2,48.2,135.9,47.6,135.5,47.1z M127.4,51c0.1-1.5,0.6-2.7,1.3-3.4c0.7-0.7,1.7-1.1,2.8-1.1 c0.7,0,1.3,0.1,1.8,0.3c0.5,0.2,0.9,0.5,1.2,0.9c0.3,0.4,0.5,0.9,0.7,1.4c0.1,0.6,0.2,1.2,0.2,1.8H127.4z"></path> <polygon fill="#ED6F69" points="150,56.4 147,45.8 145.4,45.8 142.3,56.4 139.4,45.8 137.9,45.8 141.4,58 143,58 146.1,47.3 149.2,58 150.7,58 154.3,45.8 152.9,45.8 "></polygon> <path fill="#ED6F69" d="M164.6,52.4c-0.6-0.5-1.6-0.9-2.9-1.1l-1.9-0.3c-0.6-0.1-1-0.2-1.3-0.3c-0.3-0.1-0.6-0.3-0.8-0.5 c-0.2-0.2-0.3-0.4-0.4-0.6c-0.1-0.2-0.1-0.5-0.1-0.8s0.1-0.6,0.2-0.8c0.1-0.3,0.3-0.5,0.6-0.7c0.3-0.2,0.6-0.4,1-0.5 c0.4-0.1,1-0.2,1.6-0.2c0.6,0,1,0,1.4,0.1c0.4,0.1,0.7,0.2,0.9,0.4c0.3,0.2,0.5,0.4,0.6,0.7c0.2,0.3,0.3,0.6,0.4,1l1.3-0.3 c-0.1-0.4-0.3-0.8-0.5-1.2c-0.2-0.4-0.5-0.7-0.8-1c-0.4-0.3-0.8-0.5-1.4-0.7c-0.6-0.2-1.3-0.2-2.1-0.2c-0.6,0-1.3,0.1-1.8,0.2 c-0.6,0.2-1,0.4-1.5,0.7c-0.4,0.3-0.7,0.7-1,1.1c-0.2,0.4-0.4,0.9-0.4,1.5c0,0.6,0.1,1,0.3,1.4c0.2,0.4,0.5,0.7,0.8,1 c0.4,0.3,0.8,0.5,1.3,0.6c0.5,0.2,1.1,0.3,1.7,0.4l1.5,0.2c0.5,0.1,1,0.2,1.3,0.4c0.3,0.1,0.6,0.3,0.8,0.5 c0.2,0.2,0.3,0.4,0.4,0.7c0.1,0.2,0.1,0.5,0.1,0.8c0,0.7-0.2,1.2-0.7,1.7c-0.5,0.4-1.3,0.7-2.5,0.7c-1.2,0-2.1-0.2-2.7-0.6 c-0.6-0.4-1-1.1-1.2-2h-1.4c0.1,0.7,0.2,1.3,0.5,1.7c0.3,0.5,0.7,0.9,1.1,1.2c0.5,0.3,1,0.5,1.6,0.7c0.6,0.1,1.3,0.2,2,0.2 c0.8,0,1.4-0.1,2-0.3c0.6-0.2,1.1-0.4,1.5-0.7c0.4-0.3,0.7-0.7,0.9-1.1c0.2-0.4,0.3-0.9,0.3-1.4C165.5,53.8,165.2,52.9,164.6,52.4 z"></path> </g> </g> </svg> 