<?xml version="1.0" encoding="UTF-8"?> <!-- Generator: Adobe Illustrator 24.3.0, SVG Export Plug-In . SVG Version: 6.00 Build 0) --> <svg xmlns="http://www.w3.org/2000/svg" xmlns:xlink="http://www.w3.org/1999/xlink" id="Слой_1" x="0px" y="0px" viewBox="0 0 512 512" style="enable-background:new 0 0 512 512;" xml:space="preserve"> <style type="text/css"> .st0{fill:#32819C;} </style> <g> <path class="st0" d="M322.3,401.6c-7.4,0-13.9-5.5-14.9-13.1c-1-8.2,4.8-15.7,13-16.8c47.4-6,89.8-18.9,119.5-36.2 c27.1-15.8,42.1-34.4,42.1-52.3c0-19.8-17.5-35.9-32.2-46c-6.8-4.7-8.6-14-3.9-20.9c4.7-6.8,14-8.6,20.9-3.9 c29.5,20.3,45.2,44.8,45.2,70.8c0,29.5-19.7,56.5-57,78.2c-33.6,19.5-78.8,33.4-130.8,40C323.6,401.6,322.9,401.6,322.3,401.6z"></path> <path class="st0" d="M252.3,380.2l-40-40c-5.9-5.9-15.4-5.9-21.2,0c-5.9,5.9-5.9,15.4,0,21.2l11.7,11.7 c-44.8-4.6-85.5-15.1-117-30.2c-35.4-17-55.8-38.8-55.8-59.6c0-17.7,14.6-36,41-51.7c7.1-4.2,9.5-13.4,5.3-20.6 c-4.2-7.1-13.4-9.5-20.6-5.3C9.7,233.1,0,263,0,283.3c0,33.3,25.8,64,72.8,86.6c36.4,17.5,83.5,29.2,134.9,33.8l-16.5,16.5 c-5.9,5.9-5.9,15.4,0,21.2c2.9,2.9,6.8,4.4,10.6,4.4c3.8,0,7.7-1.5,10.6-4.4l40-40C258.2,395.5,258.2,386,252.3,380.2z"></path> <path class="st0" d="M157.1,253.2v-3.6c0-12.7-7.8-15.2-18.2-15.2c-6.5,0-8.6-5.7-8.6-11.4c0-5.7,2.1-11.4,8.6-11.4 c7.2,0,14.8-0.9,14.8-16.3c0-11-6.3-13.7-14.1-13.7c-9.3,0-14.1,2.3-14.1,9.7c0,6.5-2.9,10.8-13.9,10.8c-13.7,0-15.4-2.9-15.4-12 c0-14.8,10.6-34,43.3-34c24.1,0,42.4,8.7,42.4,34.4c0,13.9-5.1,26.8-14.6,31.2c11.2,4.2,19.4,12.5,19.4,27.9v3.6 c0,31.2-21.5,42.9-48.1,42.9c-32.7,0-45.2-19.9-45.2-35.9c0-8.6,3.6-10.8,14.1-10.8c12.2,0,15.2,2.7,15.2,9.9c0,8.9,8.4,11,16.9,11 C152.5,270.3,157.1,265.6,157.1,253.2z"></path> <path class="st0" d="M302.1,249.6v1.7c0,32.7-20.3,44.8-46.6,44.8s-46.7-12.2-46.7-44.8V201c0-32.7,21.1-44.8,48.5-44.8 c32.1,0,44.8,19.9,44.8,35.7c0,9.1-4.4,12-13.9,12c-8.2,0-15.4-2.1-15.4-10.8c0-7.2-7.6-11-16.5-11c-11.2,0-17.9,5.9-17.9,19v17.1 c6.1-6.6,14.6-8.4,23.8-8.4C283.8,209.7,302.1,219.2,302.1,249.6z M238.4,253.4c0,13.1,6.5,18.8,17.1,18.8s16.9-5.7,16.9-18.8v-1.7 c0-13.9-6.3-19.2-17.1-19.2c-10.3,0-16.9,4.9-16.9,17.5V253.4z"></path> <path class="st0" d="M325.1,251.3V201c0-32.7,20.3-44.8,46.6-44.8c26.2,0,46.7,12.2,46.7,44.8v50.4c0,32.7-20.5,44.8-46.7,44.8 C345.4,296.2,325.1,284,325.1,251.3z M388.7,201c0-13.1-6.5-19-17.1-19s-16.9,5.9-16.9,19v50.4c0,13.1,6.3,19,16.9,19 s17.1-5.9,17.1-19V201z"></path> <path class="st0" d="M454.4,156c-24.8,0-45-20.2-45-45s20.2-45,45-45c24.8,0,45,20.2,45,45S479.2,156,454.4,156z M454.4,96 c-8.3,0-15,6.7-15,15c0,8.3,6.7,15,15,15c8.3,0,15-6.7,15-15C469.4,102.7,462.6,96,454.4,96z"></path> </g> </svg> 