<?xml version="1.0" encoding="UTF-8"?> <!-- Generator: Adobe Illustrator 25.0.0, SVG Export Plug-In . SVG Version: 6.00 Build 0) --> <svg xmlns="http://www.w3.org/2000/svg" xmlns:xlink="http://www.w3.org/1999/xlink" id="Слой_1" x="0px" y="0px" viewBox="0 0 600 208" style="enable-background:new 0 0 600 208;" xml:space="preserve"> <style type="text/css"> .st0{fill:#FFFFFF;} .st1{fill:#0D1214;} .st2{fill:#000911;} </style> <rect class="st0" width="600" height="208"></rect> <g id="Слой_2_2_"> <g id="Layer_1"> <path class="st1" d="M274.7,109.3h50.7V58.6h-50.7V109.3z"></path> <polygon class="st0" points="308,94.4 300,77 292,94.4 289.6,94.4 300,71.7 310.4,94.4 "></polygon> <polygon class="st1" points="84.3,157.9 79.7,168.3 77.3,168.3 91.5,136.7 92.2,138 105.8,168.3 103.4,168.3 98.8,157.9 97.9,156 91.5,141.8 85.2,156 "></polygon> <path class="st1" d="M124.1,138.3c12.6,0,16.1,8.4,16.1,15c0,7-4,15-15.7,15h-10.7v-30H124.1z M116,166.3h8.3 c7.1,0,13.4-4.6,13.4-13.1c0-7.7-5.5-13.1-13.5-13.1H116V166.3z"></path> <path class="st1" d="M159.8,138.3c12.6,0,16.1,8.4,16.1,15c0,7-4,15-15.7,15h-10.7v-30H159.8z M151.8,166.3h8.3 c7.1,0,13.4-4.6,13.4-13.1c0-7.7-5.5-13.1-13.5-13.1h-8.2L151.8,166.3z"></path> <path class="st1" d="M193,138.3c7.2,0,9.8,3.7,9.8,7.7c0,3.5-1.9,5.9-5.6,7.3c1.4,0.8,2.6,2.5,3.9,4.6l6.7,10.4h-2.7l-5.1-8.2 c-3.6-5.7-4.7-6.2-8.2-6.2h-4v14.4h-2.3v-30L193,138.3z M187.7,152h4.9c5.2,0,7.7-2.3,7.7-5.9c0-3.4-2.4-5.9-7.8-5.9h-4.8V152z"></path> <polygon class="st1" points="231,140.2 217.2,140.2 217.2,152 230.7,152 230.7,153.9 217.2,153.9 217.2,166.3 231.4,166.3 231.4,168.3 214.9,168.3 214.9,138.3 231,138.3 "></polygon> <path class="st1" d="M256.8,142.3c-3.2-1.8-4.8-2.3-6.9-2.3c-3.7,0-6.5,2.5-6.5,5.7c0,8,14.8,4.2,14.8,14.7c0,4.6-4,8.2-9,8.2 c-2.8-0.1-5.6-1-7.9-2.7v-2.7c3.4,2.4,5.4,3.2,7.8,3.2c3.7,0,6.5-2.6,6.5-6c0-8.5-14.8-4.8-14.8-14.7c0-4.4,4-8,8.9-8 c2.5,0,5,0.7,7.2,1.9V142.3z"></path> <path class="st1" d="M283,142.3c-3.2-1.8-4.8-2.3-6.9-2.3c-3.7,0-6.6,2.5-6.6,5.7c0,8,14.8,4.2,14.8,14.7c0,4.6-4,8.2-9,8.2 c-2.9-0.1-5.6-1-8-2.7v-2.7c3.4,2.4,5.4,3.2,7.8,3.2c3.7,0,6.5-2.6,6.5-6c0-8.5-14.8-4.8-14.8-14.7c0-4.4,4-8,8.9-8 c2.5,0,5,0.7,7.2,1.9L283,142.3z"></path> <path class="st1" d="M311.6,168.3v-30h11c3.9,0,6.9,0.6,8.9,1.9c2,1.2,3.1,3.4,3,5.8c0,1.2-0.3,2.5-1,3.5c-0.8,1.1-1.8,1.9-3,2.4 c1.8,0.5,3.5,1.5,4.7,2.9c1.1,1.4,1.6,3.1,1.5,4.9c0.2,2.5-0.9,4.9-3,6.4c-2,1.4-4.9,2.1-8.9,2.1L311.6,168.3z M323.1,150.1 c1.1,0.1,2.1-0.2,3-0.8c0.7-0.6,1.1-1.4,1-2.3c0.1-1-0.3-1.9-1-2.6c-0.9-0.6-1.9-0.9-3-0.9h-3.9v6.5H323.1z M319.2,162.8h4.4 c1.4,0.1,2.9-0.2,4.1-0.8c0.9-0.6,1.3-1.6,1.2-2.7c0.1-1.1-0.4-2.2-1.3-2.8c-1.3-0.7-2.7-1-4.1-0.9h-4.3V162.8z"></path> <path class="st1" d="M357.9,168.3v-30h20v5.5h-12.5v6.1h12v5.6h-12v7.2h12.9v5.6L357.9,168.3z"></path> <path class="st1" d="M395.8,168.3l13.1-30h8.6l11.7,30h-8l-2.1-5.8h-12.9l-2.4,5.8H395.8z M408.4,157.3h8.9l-4.2-11.4L408.4,157.3 z"></path> <path class="st1" d="M473.4,165.7c-3.5,2-7.4,3-11.5,3c-2.2,0-4.4-0.3-6.5-1.1c-1.9-0.7-3.7-1.7-5.2-3.1c-1.5-1.4-2.7-3.1-3.5-5.1 c-0.8-2-1.2-4.1-1.2-6.2c-0.2-4.2,1.5-8.4,4.6-11.2c3.1-2.9,7.2-4.3,12.3-4.3c1.8,0,3.6,0.2,5.3,0.6c1.8,0.4,3.5,1,5.1,1.9v7 c-1.6-1-3.2-1.8-5-2.4c-1.6-0.5-3.3-0.8-5-0.8c-2.6-0.1-5.2,0.7-7.1,2.5c-1.8,1.8-2.7,4.3-2.6,6.8c-0.1,2.5,0.8,4.9,2.5,6.7 c1.8,1.7,4.2,2.6,6.7,2.5c1.9,0,3.7-0.4,5.4-1c1.9-0.7,3.7-1.6,5.4-2.8L473.4,165.7z"></path> <path class="st1" d="M494.4,168.3v-30h7.5v12h13.3v-12h7.5v30h-7.5v-12.1h-13.3v12.1H494.4z"></path> <path class="st2" d="M197.9,187.1h6.4c1.2-0.1,2.5,0.4,3.4,1.2c0.8,0.7,1.3,1.8,1.3,2.9c0,1.6-1,3-2.5,3.5c1,0.6,1.7,1.6,2.1,2.7 c0.7,1.4,1.3,2.8,1.9,4.1h-3.9c-0.2-0.5-0.6-1.4-1.2-2.7c-0.3-0.9-0.9-1.8-1.5-2.6c-0.4-0.4-0.8-0.6-1.3-0.6h-1v5.9h-3.6 L197.9,187.1z M201.5,189.7v3.3h1.9c0.5,0,1-0.1,1.4-0.4c0.4-0.3,0.6-0.8,0.5-1.2c0-1.1-0.7-1.6-2-1.6L201.5,189.7z"></path> <polygon class="st2" points="230.5,198.9 230.5,201.5 219.9,201.5 219.9,187.1 230.3,187.1 230.3,189.7 223.4,189.7 223.4,192.8 230,192.8 230,195.4 223.4,195.4 223.4,198.9 "></polygon> <path class="st2" d="M250.6,188v2.8c-1.4-0.7-3-1.2-4.6-1.3c-0.5,0-1.1,0.1-1.5,0.3c-0.3,0.2-0.6,0.5-0.6,0.9 c0,0.3,0.2,0.6,0.4,0.8c0.6,0.4,1.3,0.8,2,1c0.9,0.3,1.7,0.7,2.6,1.1c0.6,0.3,1.2,0.8,1.6,1.4c0.5,0.7,0.7,1.5,0.7,2.3 c0,1.3-0.5,2.4-1.5,3.2c-1.2,0.8-2.6,1.3-4,1.2c-1.8,0-3.6-0.5-5.2-1.4v-3.1c0.8,0.6,1.7,1,2.6,1.4c0.8,0.3,1.6,0.5,2.4,0.4 c1.4,0,2.1-0.4,2.1-1.3c0-0.3-0.2-0.6-0.4-0.9c-0.6-0.4-1.3-0.8-2-1c-0.9-0.3-1.7-0.7-2.6-1.1c-0.6-0.3-1.2-0.8-1.6-1.4 c-0.5-0.7-0.7-1.5-0.7-2.4c0-1.2,0.5-2.3,1.5-3c1.2-0.8,2.6-1.2,4-1.1C247.4,187,249.1,187.3,250.6,188"></path> <rect x="261.3" y="187.1" class="st2" width="3.6" height="14.5"></rect> <path class="st2" d="M275.8,187.1h6.3c2.1-0.1,4.2,0.6,5.8,2c1.4,1.4,2.2,3.3,2.1,5.2c0.1,2-0.7,3.9-2.2,5.3 c-1.8,1.4-4,2.1-6.2,1.9h-5.9V187.1z M279.4,189.7v9.2h2.3c2.3,0.2,4.4-1.5,4.7-3.8c0-0.3,0-0.5,0-0.8c0.1-1.2-0.4-2.5-1.2-3.4 c-1-0.9-2.2-1.3-3.5-1.2L279.4,189.7z"></path> <polygon class="st2" points="311,198.9 311,201.5 300.4,201.5 300.4,187.1 310.9,187.1 310.9,189.7 304,189.7 304,192.8 310.5,192.8 310.5,195.4 304,195.4 304,198.9 "></polygon> <polygon class="st2" points="335.9,187.1 335.9,201.5 332.9,201.5 325,192.3 325,201.5 321.4,201.5 321.4,187.1 324.7,187.1 332.4,195.9 332.4,187.1 "></polygon> <path class="st2" d="M360.2,197.1v3.2c-1.7,0.9-3.7,1.4-5.7,1.4c-2.2,0.1-4.4-0.6-6.1-2.1c-2.9-2.7-3-7.2-0.4-10.1 c0.2-0.2,0.3-0.3,0.5-0.5c1.7-1.5,4-2.3,6.3-2.2c1.8-0.1,3.6,0.4,5.2,1.3v3.2c-1.5-0.9-3.2-1.4-5-1.5c-1.4-0.1-2.7,0.4-3.8,1.2 c-1,0.8-1.5,1.9-1.5,3.1c0,1.2,0.5,2.4,1.5,3.2c1,0.9,2.3,1.3,3.7,1.2c0.7,0,1.4-0.1,2.1-0.3C358.2,198.1,359.2,197.6,360.2,197.1 "></path> <polygon class="st2" points="381.3,198.9 381.3,201.5 370.7,201.5 370.7,187.1 381.2,187.1 381.2,189.7 374.3,189.7 374.3,192.8 380.9,192.8 380.9,195.4 374.3,195.4 374.3,198.9 "></polygon> <path class="st2" d="M401.4,188v2.8c-1.4-0.7-3-1.2-4.6-1.3c-0.5,0-1.1,0.1-1.5,0.3c-0.3,0.2-0.6,0.5-0.6,0.9 c0,0.3,0.2,0.6,0.4,0.8c0.6,0.4,1.3,0.8,2,1c0.9,0.3,1.7,0.7,2.6,1.1c0.7,0.3,1.2,0.8,1.7,1.4c0.5,0.7,0.7,1.5,0.7,2.3 c0,1.2-0.5,2.4-1.5,3.2c-1.2,0.8-2.6,1.3-4,1.2c-1.8,0-3.6-0.5-5.2-1.4v-3.1c0.8,0.6,1.7,1,2.5,1.4c0.8,0.3,1.6,0.5,2.4,0.4 c1.4,0,2.1-0.4,2.1-1.3c0-0.3-0.2-0.6-0.4-0.9c-0.6-0.4-1.3-0.8-2-1c-0.9-0.3-1.7-0.7-2.5-1.1c-0.6-0.3-1.2-0.8-1.6-1.4 c-0.5-0.7-0.7-1.5-0.7-2.4c0-1.2,0.5-2.3,1.5-3c1.2-0.8,2.6-1.2,4-1.1C398.3,187,399.9,187.3,401.4,188"></path> </g> </g> </svg> 