<?xml version="1.0" encoding="UTF-8"?> <!-- Generator: Adobe Illustrator 25.0.0, SVG Export Plug-In . SVG Version: 6.00 Build 0) --> <svg xmlns="http://www.w3.org/2000/svg" xmlns:xlink="http://www.w3.org/1999/xlink" id="Слой_1" x="0px" y="0px" viewBox="0 0 600 208" style="enable-background:new 0 0 600 208;" xml:space="preserve"> <style type="text/css"> .st0{fill:#FFFFFF;} .st1{fill:#746723;} .st2{fill:#414042;} </style> <rect class="st0" width="600" height="208"></rect> <g id="Layer_2"> <g id="Layer_1-2"> <path class="st1" d="M268.3,120.2c-1.2,4.9-1.6,7.7,0.4,7.7c0.6,0,1.1-0.3,1.4-0.7h0.1c-0.6,0.7-1.4,1.1-2.3,1 c-3.7,0-3.5-3.2-2.8-6c-1.7,4-4,6.1-6.2,6.1c-4.4,0-6.3-4.8-5-10.9c1.3-6,5.8-10.9,10.1-10.9c1.9-0.2,3.7,1,4.1,2.9l3.2-13.4 c0.3-1.3-0.4-1.7-1.9-1.5v-0.1l5.2-0.8L268.3,120.2z M265.8,119.1l1.1-4.7c0.5-2.4,1-3.7,0.6-5c-0.3-1.6-1.8-2.8-3.5-2.7 c-2.7,0-5.4,3.7-7.1,10.7c-1.8,7-0.6,10.5,2.1,10.5S264.2,125,265.8,119.1"></path> <path class="st1" d="M276.1,115.7h11.5c1.6-7.4-1.7-9-4.8-9c-4.3,0-9.1,4.8-10.2,10.8c-0.9,4.8,0.5,10.8,6.5,10.8h0.1 c3.5-0.1,6.5-2.8,6.8-6.3c0.1-1.5-1.1-2.7-2.5-2.8c-1.6-0.1-3,1.1-3,2.7c0,0.2,0,0.3,0,0.5c0.2-0.5,0.8-0.9,1.4-0.9 c1.1,0,2,0.9,2,2c0,0.1,0,0.2,0,0.2c0.1,2.3-1.7,4.2-4,4.3c-0.2,0-0.4,0-0.6,0c-3.6,0-5.4-3.3-3.6-10.6L276.1,115.7z M282.9,106.9 c2.6,0,3.4,3.3,2.2,8.2h-8.6C278.1,109.7,280.6,106.9,282.9,106.9"></path> <path class="st1" d="M280.4,147.6c5.3-5.3,8.5-14,10.3-21.4l1.5-6.2c2.5-10.2,10.7-20,20.6-20h0.2c4.7,0.1,8.7,2.9,8.7,6.6 c0,2.5-1.9,4.5-4.4,4.7c-1.2,0.1-2.3-0.8-2.4-2c0-0.1,0-0.2,0-0.3c0-0.4,0.1-0.9,0.3-1.3c0.1,0.7,0.7,1.2,1.4,1.2 c1.7,0,2.8-1.9,2.8-3.8c-0.1-3-3.2-4.9-6.4-4.9l0,0c-7.2,0-12.4,5.6-15.3,17.6l-1.7,7.4c-2.5,10.3-7,18.9-13.3,23.7 c12,8.2,25.8,22.3,38.2,22.3c6.2,0,13.4-3.7,13.4-10.2c0-2.5-1.4-4.5-3.6-4.5c-1.3,0-2.5,0.8-2.9,2c-0.1-0.4-0.1-0.7-0.1-1.1 c-0.1-2.3,1.6-4.2,3.9-4.4c0.1,0,0.2,0,0.3,0c3,0.1,5.3,2.5,5.2,5.5c0,0,0,0,0,0.1c0,8.3-12,14.4-19.9,14.4 c-16.5,0-25.6-15.2-35.3-23.5c-3.3,2.4-7.3,3.7-11.4,3.7c-5.1,0-9.8-2.4-10.1-4.7c-0.3-2.3,1.3-4.9,7.6-4.9 C272.3,143.9,276.7,145.2,280.4,147.6 M279.9,148.1c-3.3-2.4-7.2-3.8-11.3-3.9c-5.2-0.1-6.9,2.6-6.5,4.4s2.4,4.1,6.8,4.1 C273,152.6,277,151,279.9,148.1"></path> <path class="st1" d="M324.4,136.6c-1.5,7-2.6,11,0.3,11c0.8,0,1.5-0.4,1.9-1h0.2c-0.8,1-2.1,1.6-3.4,1.5c-4.9,0-4.9-3.7-4.1-7.4 c-2.4,4.9-5.4,7.4-8.4,7.4c-6.3,0-9-7-7.2-15.6s8.3-15.6,14.5-15.6c2.7-0.3,5.2,1.5,5.9,4.2l0.9-3.5h3.7l-2.8,11.2L324.4,136.6z M323.4,125.3c0.4-1.3,0.5-2.7,0.2-4.1c-0.5-2.3-2.6-4-5-3.8c-3.9,0-7.8,5.3-10.2,15.4c-2.5,10.1-0.9,15.1,3,15.1 c3.2,0,6.5-3.4,8.8-10l0.3-1.1l2-7.6L323.4,125.3z"></path> <rect x="213.3" y="120.1" class="st1" width="31.7" height="0.7"></rect> <rect x="336.9" y="120.1" class="st1" width="49.9" height="0.7"></rect> <path class="st2" d="M213.5,51.1h17.4c8.2,0,17.6,4.2,17.6,14.3s-8.8,15.2-17.5,15.2h-11.2v22.7c0,0.5,0.2,0.8,0.8,0.8h3.5 c0.1,0,0.3,0,0.3,0.2c0,0.1,0,0.3-0.2,0.3c0,0-0.1,0-0.1,0h-10.7c-0.4,0-0.5-0.5,0-0.5h3.4c0.5,0,0.8-0.2,0.8-0.8v-51 c0-0.4-0.2-0.8-0.8-0.8h-3.4C213.1,51.5,213.1,51.1,213.5,51.1 M220.6,51.5c-0.5,0-0.8,0.2-0.8,0.8v27.9H231 c8.4,0,15.2-4.2,15.2-14.7s-7.5-13.9-15.3-13.9H220.6z"></path> <path class="st2" d="M255.3,77.3c0-18.2,10.4-26.9,21.9-27.3h0.8c11.4,0.4,21.9,9,21.9,27.3c0,19.3-9.9,28.5-22.2,28.5h-0.1 C265.2,105.8,255.3,96.6,255.3,77.3 M297.4,77.3c0-18.9-8.6-26.5-19.4-26.8h-0.8c-10.9,0.2-19.5,7.8-19.5,26.8 c0,20.3,8.6,28,19.8,28.1h0.1C288.7,105.3,297.4,97.6,297.4,77.3"></path> <path class="st2" d="M306.1,104.1h3.4c0.5,0,0.8-0.2,0.8-0.8v-51c0-0.5-0.2-0.8-0.8-0.8h-3.4c-0.5,0-0.5-0.5,0-0.5h16.5 c7.4,0,16,3.5,16,12.2c0,8.2-7.3,12.5-15,12.9c4.7,1.5,8.5,5.9,12,12.6c3.9,7.7,7.5,15.9,9.3,15.9c0.4,0,0.8-0.1,1.1-0.4 c0.3-0.1,0.8,0.2,0.3,0.5c-0.4,0.3-0.9,0.4-1.4,0.4c-3.1,0-5.8-3-11.2-15c-4-8.8-7.6-13.3-12.2-13.9h-9.3v27.2 c0,0.5,0.2,0.8,0.8,0.8h3.6c0.1,0,0.2,0.2,0.2,0.3c0,0.1-0.1,0.1-0.2,0.2h-10.5C305.8,104.5,305.7,104.1,306.1,104.1 M312.4,51.5 v24.2h10.3c7.7,0,13.9-3.5,13.9-12.4s-6.8-11.8-13.9-11.8H312.4z"></path> <path class="st2" d="M360.8,104.1h3.4c0.5,0,0.8-0.2,0.8-0.8v-51c0-0.5-0.2-0.8-0.8-0.8H350c-2.1,0-3.7,1.7-3.7,3.7v4.8h-0.5v-9 h40.8v9h-0.5v-4.8c0-2.1-1.6-3.7-3.7-3.7c-0.1,0-0.2,0-0.4,0h-14.2c-0.5,0-0.8,0.2-0.8,0.8v50.9c0,0.5,0.2,0.8,0.8,0.8h3.5 c0.1,0,0.3,0,0.3,0.2c0,0.1,0,0.3-0.2,0.3c0,0-0.1,0-0.1,0h-10.5C360.4,104.5,360.4,104.1,360.8,104.1"></path> <path class="st2" d="M337.9,200.3h4.1c0.7,0,0.9-0.3,0.9-0.9v-61.6c0-0.7-0.3-0.9-0.9-0.9h-4.1c-0.6,0-0.6-0.6,0-0.6h20 c8.9,0,19.4,4.3,19.4,14.7c0,9.9-8.9,15.1-18.1,15.5c5.6,1.9,10.3,7.1,14.5,15.2c4.8,9.3,9.1,19.2,11.3,19.2 c0.5,0,0.9-0.2,1.3-0.5c0.4-0.2,0.9,0.2,0.4,0.6c-0.5,0.3-1.1,0.5-1.7,0.5c-3.7,0-7-3.7-13.5-18.1c-4.8-10.6-9.2-16.1-14.8-16.8 h-11.2v32.8c0,0.7,0.3,0.9,0.9,0.9h4.4c0.2,0,0.3,0.1,0.3,0.3c0,0.2-0.1,0.3-0.3,0.3h-12.8C337.5,200.9,337.4,200.3,337.9,200.3 M345.5,136.9V166h12.5c9.3,0,16.8-4.3,16.8-14.9s-8.2-14.1-16.8-14.1L345.5,136.9z"></path> <path class="st2" d="M279.5,200.3h-4.3c-0.7,0-0.9-0.3-0.9-0.9v-54.4c-0.8-0.3-1.7-0.5-2.5-0.7v55c0,0.7-0.3,0.9-0.9,0.9h-4.1 c-0.5,0-0.5,0.6,0,0.6h12.7c0.2,0,0.3-0.1,0.3-0.3C279.8,200.5,279.7,200.3,279.5,200.3"></path> <path class="st2" d="M265.1,152.4l-18.4,45.7l-24.9-61.8h-8.1c-0.5,0-0.5,0.6,0,0.6h5.2v62.5c0,0.7-0.3,0.9-0.9,0.9h-4.1 c-0.5,0-0.5,0.6,0,0.6h10.7c0.2,0,0.3-0.1,0.3-0.3c0-0.2-0.1-0.3-0.3-0.3h-4.2c-0.7,0-0.9-0.3-0.9-0.9v-62.5l26,64.4h0.6 l19.5-48.7L265.1,152.4"></path> <path class="st2" d="M329.8,191.1v3.6c0,2.8-2,5.2-4.8,5.6h-29c-0.5,0-0.7-0.2-0.7-0.7v-35.1c0-0.5,0.2-0.7,0.7-0.7h0.4l-0.6-0.5 c-0.2,0-0.4-0.2-0.4-0.4v-25.5c0-0.5,0.2-0.7,0.7-0.7h7.3c0-0.2,0-0.4,0-0.6h-15.5c-0.5,0-0.5,0.6,0,0.6h4.4 c0.5,0,0.7,0.2,0.7,0.7v62.1c0,0.5-0.2,0.7-0.7,0.7h-4.4c-0.5,0-0.5,0.6,0,0.6h42.5v-9.8H329.8z"></path> </g> </g> </svg> 