<?xml version="1.0" encoding="UTF-8"?> <svg xmlns="http://www.w3.org/2000/svg" id="Contentpage_projectlogo" data-name="Contentpage projectlogo" width="5.52cm" height="1.98cm" viewBox="0 0 156.6 56"> <defs> <style>.cls-1{fill:#d6b180;}</style> </defs> <title>1jbr</title> <path class="cls-1" d="M0,0V56H37.4L55.2,0ZM24.7,44.7H20.6V18.2H14.7V15.4h.2c4.1-.3,6-1.5,6.5-4.1v-.2h3.2V44.7ZM58.3,0,40.4,56H156.6V0ZM83.5,31.8c0,9-3.7,13.4-11.3,13.4-5.3,0-8.7-2.6-10.5-8.2l-.1-.2,3.9-1.3.1.2c1.5,4,3.4,5.6,6.8,5.6,5,0,7.1-2.8,7.1-9.7V11.1h4.1V31.8Zm18.9,12.9H90.5V11.1h12.1c5.8,0,9.1,3.1,9.1,8.5a6.72,6.72,0,0,1-4.2,6.7c2.8.9,5.7,3.1,5.7,8.3C113.2,41.2,109.5,44.7,102.4,44.7Zm39,0h-4.7l-7-14.1h-7.3V44.7h-4.1V11.1h13.1c6.5,0,10.4,3.6,10.4,9.6,0,4.9-2.7,8.4-7.5,9.5Zm-39-16.1H94.6V40.9h8c4.4,0,6.5-2,6.5-6S106.6,28.6,102.4,28.6ZM131.3,15h-8.9V26.8h8.4c4.7,0,6.9-1.9,6.9-5.9S135.5,15,131.3,15Zm-23.7,4.8c0-3.1-1.8-4.8-5.1-4.8H94.6v9.8h7.6C106.9,24.8,107.6,21.6,107.6,19.8Z" transform="translate(0 0)"></path> </svg> 