<?xml version="1.0" encoding="UTF-8"?> <!-- Generator: Adobe Illustrator 23.1.1, SVG Export Plug-In . SVG Version: 6.00 Build 0) --> <svg xmlns="http://www.w3.org/2000/svg" xmlns:xlink="http://www.w3.org/1999/xlink" id="Contentpage_projectlogo" x="0px" y="0px" viewBox="0 0 156.5 56.1" style="enable-background:new 0 0 156.5 56.1;" xml:space="preserve"> <style type="text/css"> .st0{fill:#FFFFFF;} </style> <title>1jbr</title> <path class="st0" d="M0,0.1v56h37.4l17.8-56H0z M24.7,44.7h-4.1V18.3h-5.9v-2.8h0.2c4.1-0.3,6-1.5,6.5-4.1v-0.2h3.2L24.7,44.7 L24.7,44.7z M58.3,0.1L40.4,56h116.1v-56H58.3z M83.4,31.9c0,9-3.7,13.4-11.3,13.4c-5.3,0-8.7-2.6-10.5-8.2l-0.1-0.2l3.9-1.3 l0.1,0.2c1.5,4,3.4,5.6,6.8,5.6c5,0,7.1-2.8,7.1-9.7V11.2h4.1L83.4,31.9L83.4,31.9z M102.3,44.7H90.4V11.2h12.1 c5.8,0,9.1,3.1,9.1,8.5c0.2,2.9-1.5,5.6-4.2,6.7c2.8,0.9,5.7,3.1,5.7,8.3C113.1,41.3,109.4,44.7,102.3,44.7z M141.3,44.7h-4.7 l-7-14.1h-7.3v14.1h-4.1V11.2h13.1c6.5,0,10.4,3.6,10.4,9.6c0,4.9-2.7,8.4-7.5,9.5L141.3,44.7z M102.3,28.7h-7.8V41h8 c4.4,0,6.5-2,6.5-6S106.5,28.7,102.3,28.7z M131.2,15.1h-8.9v11.8h8.4c4.7,0,6.9-1.9,6.9-5.9S135.4,15.1,131.2,15.1z M107.5,19.9 c0-3.1-1.8-4.8-5.1-4.8h-7.9v9.8h7.6C106.8,24.9,107.5,21.7,107.5,19.9z"></path> </svg> 