<?xml version="1.0" encoding="UTF-8"?> <!-- Generator: Adobe Illustrator 24.0.0, SVG Export Plug-In . SVG Version: 6.00 Build 0) --> <svg xmlns="http://www.w3.org/2000/svg" xmlns:xlink="http://www.w3.org/1999/xlink" id="Слой_1" x="0px" y="0px" viewBox="0 0 266 266" style="enable-background:new 0 0 266 266;" xml:space="preserve"> <style type="text/css"> .st0{fill:#D6B180;} </style> <path class="st0" d="M1,46c0.6,0,1-0.4,1-1s-0.4-1-1-1s-1,0.4-1,1S0.4,46,1,46z"></path> <path class="st0" d="M23,46c0.6,0,1-0.4,1-1s-0.4-1-1-1s-1,0.4-1,1S22.4,46,23,46z"></path> <path class="st0" d="M23,68c0.6,0,1-0.4,1-1s-0.4-1-1-1s-1,0.4-1,1S22.4,68,23,68z"></path> <path class="st0" d="M1,68c0.6,0,1-0.4,1-1s-0.4-1-1-1s-1,0.4-1,1S0.4,68,1,68z"></path> <path class="st0" d="M45,46c0.6,0,1-0.4,1-1s-0.4-1-1-1s-1,0.4-1,1S44.4,46,45,46z"></path> <path class="st0" d="M67,46c0.6,0,1-0.4,1-1s-0.4-1-1-1s-1,0.4-1,1S66.4,46,67,46z"></path> <path class="st0" d="M67,68c0.6,0,1-0.4,1-1s-0.4-1-1-1s-1,0.4-1,1S66.4,68,67,68z"></path> <path class="st0" d="M45,68c0.6,0,1-0.4,1-1s-0.4-1-1-1s-1,0.4-1,1S44.4,68,45,68z"></path> <path class="st0" d="M1,90c0.6,0,1-0.4,1-1s-0.4-1-1-1s-1,0.4-1,1S0.4,90,1,90z"></path> <path class="st0" d="M23,90c0.6,0,1-0.4,1-1s-0.4-1-1-1s-1,0.4-1,1S22.4,90,23,90z"></path> <path class="st0" d="M23,112c0.6,0,1-0.4,1-1s-0.4-1-1-1s-1,0.4-1,1S22.4,112,23,112z"></path> <path class="st0" d="M1,112c0.6,0,1-0.4,1-1s-0.4-1-1-1s-1,0.4-1,1S0.4,112,1,112z"></path> <path class="st0" d="M45,90c0.6,0,1-0.4,1-1s-0.4-1-1-1s-1,0.4-1,1S44.4,90,45,90z"></path> <path class="st0" d="M67,90c0.6,0,1-0.4,1-1s-0.4-1-1-1s-1,0.4-1,1S66.4,90,67,90z"></path> <path class="st0" d="M67,112c0.6,0,1-0.4,1-1s-0.4-1-1-1s-1,0.4-1,1S66.4,112,67,112z"></path> <path class="st0" d="M45,112c0.6,0,1-0.4,1-1s-0.4-1-1-1s-1,0.4-1,1S44.4,112,45,112z"></path> <path class="st0" d="M89,46c0.6,0,1-0.4,1-1s-0.4-1-1-1s-1,0.4-1,1S88.4,46,89,46z"></path> <path class="st0" d="M111,46c0.6,0,1-0.4,1-1s-0.4-1-1-1s-1,0.4-1,1S110.4,46,111,46z"></path> <path class="st0" d="M111,68c0.6,0,1-0.4,1-1s-0.4-1-1-1s-1,0.4-1,1S110.4,68,111,68z"></path> <path class="st0" d="M89,68c0.6,0,1-0.4,1-1s-0.4-1-1-1s-1,0.4-1,1S88.4,68,89,68z"></path> <path class="st0" d="M133,46c0.6,0,1-0.4,1-1s-0.4-1-1-1s-1,0.4-1,1S132.4,46,133,46z"></path> <path class="st0" d="M155,46c0.6,0,1-0.4,1-1s-0.4-1-1-1s-1,0.4-1,1S154.4,46,155,46z"></path> <path class="st0" d="M155,68c0.6,0,1-0.4,1-1s-0.4-1-1-1s-1,0.4-1,1S154.4,68,155,68z"></path> <path class="st0" d="M133,68c0.6,0,1-0.4,1-1s-0.4-1-1-1s-1,0.4-1,1S132.4,68,133,68z"></path> <path class="st0" d="M1,2c0.6,0,1-0.4,1-1S1.6,0,1,0S0,0.4,0,1S0.4,2,1,2z"></path> <path class="st0" d="M23,2c0.6,0,1-0.4,1-1s-0.4-1-1-1s-1,0.4-1,1S22.4,2,23,2z"></path> <path class="st0" d="M23,24c0.6,0,1-0.4,1-1s-0.4-1-1-1s-1,0.4-1,1S22.4,24,23,24z"></path> <path class="st0" d="M1,24c0.6,0,1-0.4,1-1s-0.4-1-1-1s-1,0.4-1,1S0.4,24,1,24z"></path> <path class="st0" d="M45,2c0.6,0,1-0.4,1-1s-0.4-1-1-1s-1,0.4-1,1S44.4,2,45,2z"></path> <path class="st0" d="M67,2c0.6,0,1-0.4,1-1s-0.4-1-1-1s-1,0.4-1,1S66.4,2,67,2z"></path> <path class="st0" d="M67,24c0.6,0,1-0.4,1-1s-0.4-1-1-1s-1,0.4-1,1S66.4,24,67,24z"></path> <path class="st0" d="M45,24c0.6,0,1-0.4,1-1s-0.4-1-1-1s-1,0.4-1,1S44.4,24,45,24z"></path> <path class="st0" d="M89,2c0.6,0,1-0.4,1-1s-0.4-1-1-1s-1,0.4-1,1S88.4,2,89,2z"></path> <path class="st0" d="M111,2c0.6,0,1-0.4,1-1s-0.4-1-1-1s-1,0.4-1,1S110.4,2,111,2z"></path> <path class="st0" d="M111,24c0.6,0,1-0.4,1-1s-0.4-1-1-1s-1,0.4-1,1S110.4,24,111,24z"></path> <path class="st0" d="M89,24c0.6,0,1-0.4,1-1s-0.4-1-1-1s-1,0.4-1,1S88.4,24,89,24z"></path> <path class="st0" d="M133,2c0.6,0,1-0.4,1-1s-0.4-1-1-1s-1,0.4-1,1S132.4,2,133,2z"></path> <path class="st0" d="M155,2c0.6,0,1-0.4,1-1s-0.4-1-1-1s-1,0.4-1,1S154.4,2,155,2z"></path> <path class="st0" d="M155,24c0.6,0,1-0.4,1-1s-0.4-1-1-1s-1,0.4-1,1S154.4,24,155,24z"></path> <path class="st0" d="M133,24c0.6,0,1-0.4,1-1s-0.4-1-1-1s-1,0.4-1,1S132.4,24,133,24z"></path> <path class="st0" d="M89,90c0.6,0,1-0.4,1-1s-0.4-1-1-1s-1,0.4-1,1S88.4,90,89,90z"></path> <path class="st0" d="M111,90c0.6,0,1-0.4,1-1s-0.4-1-1-1s-1,0.4-1,1S110.4,90,111,90z"></path> <path class="st0" d="M111,112c0.6,0,1-0.4,1-1s-0.4-1-1-1s-1,0.4-1,1S110.4,112,111,112z"></path> <path class="st0" d="M89,112c0.6,0,1-0.4,1-1s-0.4-1-1-1s-1,0.4-1,1S88.4,112,89,112z"></path> <path class="st0" d="M133,90c0.6,0,1-0.4,1-1s-0.4-1-1-1s-1,0.4-1,1S132.4,90,133,90z"></path> <path class="st0" d="M155,90c0.6,0,1-0.4,1-1s-0.4-1-1-1s-1,0.4-1,1S154.4,90,155,90z"></path> <path class="st0" d="M155,112c0.6,0,1-0.4,1-1s-0.4-1-1-1s-1,0.4-1,1S154.4,112,155,112z"></path> <path class="st0" d="M133,112c0.6,0,1-0.4,1-1s-0.4-1-1-1s-1,0.4-1,1S132.4,112,133,112z"></path> <path class="st0" d="M1,134c0.6,0,1-0.4,1-1s-0.4-1-1-1s-1,0.4-1,1S0.4,134,1,134z"></path> <path class="st0" d="M23,134c0.6,0,1-0.4,1-1s-0.4-1-1-1s-1,0.4-1,1S22.4,134,23,134z"></path> <path class="st0" d="M23,156c0.6,0,1-0.4,1-1s-0.4-1-1-1s-1,0.4-1,1S22.4,156,23,156z"></path> <path class="st0" d="M1,156c0.6,0,1-0.4,1-1s-0.4-1-1-1s-1,0.4-1,1S0.4,156,1,156z"></path> <path class="st0" d="M45,134c0.6,0,1-0.4,1-1s-0.4-1-1-1s-1,0.4-1,1S44.4,134,45,134z"></path> <path class="st0" d="M67,134c0.6,0,1-0.4,1-1s-0.4-1-1-1s-1,0.4-1,1S66.4,134,67,134z"></path> <path class="st0" d="M67,156c0.6,0,1-0.4,1-1s-0.4-1-1-1s-1,0.4-1,1S66.4,156,67,156z"></path> <path class="st0" d="M45,156c0.6,0,1-0.4,1-1s-0.4-1-1-1s-1,0.4-1,1S44.4,156,45,156z"></path> <path class="st0" d="M1,178c0.6,0,1-0.4,1-1s-0.4-1-1-1s-1,0.4-1,1S0.4,178,1,178z"></path> <path class="st0" d="M23,178c0.6,0,1-0.4,1-1s-0.4-1-1-1s-1,0.4-1,1S22.4,178,23,178z"></path> <path class="st0" d="M23,200c0.6,0,1-0.4,1-1s-0.4-1-1-1s-1,0.4-1,1S22.4,200,23,200z"></path> <path class="st0" d="M1,200c0.6,0,1-0.4,1-1s-0.4-1-1-1s-1,0.4-1,1S0.4,200,1,200z"></path> <path class="st0" d="M45,178c0.6,0,1-0.4,1-1s-0.4-1-1-1s-1,0.4-1,1S44.4,178,45,178z"></path> <path class="st0" d="M67,178c0.6,0,1-0.4,1-1s-0.4-1-1-1s-1,0.4-1,1S66.4,178,67,178z"></path> <path class="st0" d="M67,200c0.6,0,1-0.4,1-1s-0.4-1-1-1s-1,0.4-1,1S66.4,200,67,200z"></path> <path class="st0" d="M45,200c0.6,0,1-0.4,1-1s-0.4-1-1-1s-1,0.4-1,1S44.4,200,45,200z"></path> <path class="st0" d="M89,134c0.6,0,1-0.4,1-1s-0.4-1-1-1s-1,0.4-1,1S88.4,134,89,134z"></path> <path class="st0" d="M111,134c0.6,0,1-0.4,1-1s-0.4-1-1-1s-1,0.4-1,1S110.4,134,111,134z"></path> <path class="st0" d="M111,156c0.6,0,1-0.4,1-1s-0.4-1-1-1s-1,0.4-1,1S110.4,156,111,156z"></path> <path class="st0" d="M89,156c0.6,0,1-0.4,1-1s-0.4-1-1-1s-1,0.4-1,1S88.4,156,89,156z"></path> <path class="st0" d="M133,134c0.6,0,1-0.4,1-1s-0.4-1-1-1s-1,0.4-1,1S132.4,134,133,134z"></path> <path class="st0" d="M155,134c0.6,0,1-0.4,1-1s-0.4-1-1-1s-1,0.4-1,1S154.4,134,155,134z"></path> <path class="st0" d="M155,156c0.6,0,1-0.4,1-1s-0.4-1-1-1s-1,0.4-1,1S154.4,156,155,156z"></path> <path class="st0" d="M133,156c0.6,0,1-0.4,1-1s-0.4-1-1-1s-1,0.4-1,1S132.4,156,133,156z"></path> <path class="st0" d="M89,178c0.6,0,1-0.4,1-1s-0.4-1-1-1s-1,0.4-1,1S88.4,178,89,178z"></path> <path class="st0" d="M111,178c0.6,0,1-0.4,1-1s-0.4-1-1-1s-1,0.4-1,1S110.4,178,111,178z"></path> <path class="st0" d="M111,200c0.6,0,1-0.4,1-1s-0.4-1-1-1s-1,0.4-1,1S110.4,200,111,200z"></path> <path class="st0" d="M89,200c0.6,0,1-0.4,1-1s-0.4-1-1-1s-1,0.4-1,1S88.4,200,89,200z"></path> <path class="st0" d="M133,178c0.6,0,1-0.4,1-1s-0.4-1-1-1s-1,0.4-1,1S132.4,178,133,178z"></path> <path class="st0" d="M155,178c0.6,0,1-0.4,1-1s-0.4-1-1-1s-1,0.4-1,1S154.4,178,155,178z"></path> <path class="st0" d="M155,200c0.6,0,1-0.4,1-1s-0.4-1-1-1s-1,0.4-1,1S154.4,200,155,200z"></path> <path class="st0" d="M133,200c0.6,0,1-0.4,1-1s-0.4-1-1-1s-1,0.4-1,1S132.4,200,133,200z"></path> <path class="st0" d="M177,46c0.6,0,1-0.4,1-1s-0.4-1-1-1s-1,0.4-1,1S176.4,46,177,46z"></path> <path class="st0" d="M199,46c0.6,0,1-0.4,1-1s-0.4-1-1-1s-1,0.4-1,1S198.4,46,199,46z"></path> <path class="st0" d="M199,68c0.6,0,1-0.4,1-1s-0.4-1-1-1s-1,0.4-1,1S198.4,68,199,68z"></path> <path class="st0" d="M177,68c0.6,0,1-0.4,1-1s-0.4-1-1-1s-1,0.4-1,1S176.4,68,177,68z"></path> <path class="st0" d="M177,2c0.6,0,1-0.4,1-1s-0.4-1-1-1s-1,0.4-1,1S176.4,2,177,2z"></path> <path class="st0" d="M199,2c0.6,0,1-0.4,1-1s-0.4-1-1-1s-1,0.4-1,1S198.4,2,199,2z"></path> <path class="st0" d="M199,24c0.6,0,1-0.4,1-1s-0.4-1-1-1s-1,0.4-1,1S198.4,24,199,24z"></path> <path class="st0" d="M177,24c0.6,0,1-0.4,1-1s-0.4-1-1-1s-1,0.4-1,1S176.4,24,177,24z"></path> <path class="st0" d="M177,90c0.6,0,1-0.4,1-1s-0.4-1-1-1s-1,0.4-1,1S176.4,90,177,90z"></path> <path class="st0" d="M199,90c0.6,0,1-0.4,1-1s-0.4-1-1-1s-1,0.4-1,1S198.4,90,199,90z"></path> <path class="st0" d="M199,112c0.6,0,1-0.4,1-1s-0.4-1-1-1s-1,0.4-1,1S198.4,112,199,112z"></path> <path class="st0" d="M177,112c0.6,0,1-0.4,1-1s-0.4-1-1-1s-1,0.4-1,1S176.4,112,177,112z"></path> <path class="st0" d="M177,134c0.6,0,1-0.4,1-1s-0.4-1-1-1s-1,0.4-1,1S176.4,134,177,134z"></path> <path class="st0" d="M199,134c0.6,0,1-0.4,1-1s-0.4-1-1-1s-1,0.4-1,1S198.4,134,199,134z"></path> <path class="st0" d="M199,156c0.6,0,1-0.4,1-1s-0.4-1-1-1s-1,0.4-1,1S198.4,156,199,156z"></path> <path class="st0" d="M177,156c0.6,0,1-0.4,1-1s-0.4-1-1-1s-1,0.4-1,1S176.4,156,177,156z"></path> <path class="st0" d="M177,178c0.6,0,1-0.4,1-1s-0.4-1-1-1s-1,0.4-1,1S176.4,178,177,178z"></path> <path class="st0" d="M199,178c0.6,0,1-0.4,1-1s-0.4-1-1-1s-1,0.4-1,1S198.4,178,199,178z"></path> <path class="st0" d="M199,200c0.6,0,1-0.4,1-1s-0.4-1-1-1s-1,0.4-1,1S198.4,200,199,200z"></path> <path class="st0" d="M177,200c0.6,0,1-0.4,1-1s-0.4-1-1-1s-1,0.4-1,1S176.4,200,177,200z"></path> <path class="st0" d="M23,222c0.6,0,1-0.4,1-1s-0.4-1-1-1s-1,0.4-1,1S22.4,222,23,222z"></path> <path class="st0" d="M1,222c0.6,0,1-0.4,1-1s-0.4-1-1-1s-1,0.4-1,1S0.4,222,1,222z"></path> <path class="st0" d="M67,222c0.6,0,1-0.4,1-1s-0.4-1-1-1s-1,0.4-1,1S66.4,222,67,222z"></path> <path class="st0" d="M45,222c0.6,0,1-0.4,1-1s-0.4-1-1-1s-1,0.4-1,1S44.4,222,45,222z"></path> <path class="st0" d="M1,244c0.6,0,1-0.4,1-1s-0.4-1-1-1s-1,0.4-1,1S0.4,244,1,244z"></path> <path class="st0" d="M23,244c0.6,0,1-0.4,1-1s-0.4-1-1-1s-1,0.4-1,1S22.4,244,23,244z"></path> <path class="st0" d="M23,266c0.6,0,1-0.4,1-1s-0.4-1-1-1s-1,0.4-1,1S22.4,266,23,266z"></path> <path class="st0" d="M1,266c0.6,0,1-0.4,1-1s-0.4-1-1-1s-1,0.4-1,1S0.4,266,1,266z"></path> <path class="st0" d="M45,244c0.6,0,1-0.4,1-1s-0.4-1-1-1s-1,0.4-1,1S44.4,244,45,244z"></path> <path class="st0" d="M67,244c0.6,0,1-0.4,1-1s-0.4-1-1-1s-1,0.4-1,1S66.4,244,67,244z"></path> <path class="st0" d="M67,266c0.6,0,1-0.4,1-1s-0.4-1-1-1s-1,0.4-1,1S66.4,266,67,266z"></path> <path class="st0" d="M45,266c0.6,0,1-0.4,1-1s-0.4-1-1-1s-1,0.4-1,1S44.4,266,45,266z"></path> <path class="st0" d="M111,222c0.6,0,1-0.4,1-1s-0.4-1-1-1s-1,0.4-1,1S110.4,222,111,222z"></path> <path class="st0" d="M89,222c0.6,0,1-0.4,1-1s-0.4-1-1-1s-1,0.4-1,1S88.4,222,89,222z"></path> <path class="st0" d="M155,222c0.6,0,1-0.4,1-1s-0.4-1-1-1s-1,0.4-1,1S154.4,222,155,222z"></path> <path class="st0" d="M133,222c0.6,0,1-0.4,1-1s-0.4-1-1-1s-1,0.4-1,1S132.4,222,133,222z"></path> <path class="st0" d="M89,244c0.6,0,1-0.4,1-1s-0.4-1-1-1s-1,0.4-1,1S88.4,244,89,244z"></path> <path class="st0" d="M111,244c0.6,0,1-0.4,1-1s-0.4-1-1-1s-1,0.4-1,1S110.4,244,111,244z"></path> <path class="st0" d="M111,266c0.6,0,1-0.4,1-1s-0.4-1-1-1s-1,0.4-1,1S110.4,266,111,266z"></path> <path class="st0" d="M89,266c0.6,0,1-0.4,1-1s-0.4-1-1-1s-1,0.4-1,1S88.4,266,89,266z"></path> <path class="st0" d="M133,244c0.6,0,1-0.4,1-1s-0.4-1-1-1s-1,0.4-1,1S132.4,244,133,244z"></path> <path class="st0" d="M155,244c0.6,0,1-0.4,1-1s-0.4-1-1-1s-1,0.4-1,1S154.4,244,155,244z"></path> <path class="st0" d="M155,266c0.6,0,1-0.4,1-1s-0.4-1-1-1s-1,0.4-1,1S154.4,266,155,266z"></path> <path class="st0" d="M133,266c0.6,0,1-0.4,1-1s-0.4-1-1-1s-1,0.4-1,1S132.4,266,133,266z"></path> <path class="st0" d="M199,222c0.6,0,1-0.4,1-1s-0.4-1-1-1s-1,0.4-1,1S198.4,222,199,222z"></path> <path class="st0" d="M177,222c0.6,0,1-0.4,1-1s-0.4-1-1-1s-1,0.4-1,1S176.4,222,177,222z"></path> <path class="st0" d="M177,244c0.6,0,1-0.4,1-1s-0.4-1-1-1s-1,0.4-1,1S176.4,244,177,244z"></path> <path class="st0" d="M199,244c0.6,0,1-0.4,1-1s-0.4-1-1-1s-1,0.4-1,1S198.4,244,199,244z"></path> <path class="st0" d="M199,266c0.6,0,1-0.4,1-1s-0.4-1-1-1s-1,0.4-1,1S198.4,266,199,266z"></path> <path class="st0" d="M177,266c0.6,0,1-0.4,1-1s-0.4-1-1-1s-1,0.4-1,1S176.4,266,177,266z"></path> <path class="st0" d="M221,46c0.6,0,1-0.4,1-1s-0.4-1-1-1s-1,0.4-1,1S220.4,46,221,46z"></path> <path class="st0" d="M221,68c0.6,0,1-0.4,1-1s-0.4-1-1-1s-1,0.4-1,1S220.4,68,221,68z"></path> <path class="st0" d="M221,2c0.6,0,1-0.4,1-1s-0.4-1-1-1s-1,0.4-1,1S220.4,2,221,2z"></path> <path class="st0" d="M221,24c0.6,0,1-0.4,1-1s-0.4-1-1-1s-1,0.4-1,1S220.4,24,221,24z"></path> <path class="st0" d="M221,90c0.6,0,1-0.4,1-1s-0.4-1-1-1s-1,0.4-1,1S220.4,90,221,90z"></path> <path class="st0" d="M221,112c0.6,0,1-0.4,1-1s-0.4-1-1-1s-1,0.4-1,1S220.4,112,221,112z"></path> <path class="st0" d="M221,134c0.6,0,1-0.4,1-1s-0.4-1-1-1s-1,0.4-1,1S220.4,134,221,134z"></path> <path class="st0" d="M221,156c0.6,0,1-0.4,1-1s-0.4-1-1-1s-1,0.4-1,1S220.4,156,221,156z"></path> <path class="st0" d="M221,178c0.6,0,1-0.4,1-1s-0.4-1-1-1s-1,0.4-1,1S220.4,178,221,178z"></path> <path class="st0" d="M221,200c0.6,0,1-0.4,1-1s-0.4-1-1-1s-1,0.4-1,1S220.4,200,221,200z"></path> <path class="st0" d="M243,46c0.6,0,1-0.4,1-1s-0.4-1-1-1s-1,0.4-1,1S242.4,46,243,46z"></path> <path class="st0" d="M265,46c0.6,0,1-0.4,1-1s-0.4-1-1-1s-1,0.4-1,1S264.4,46,265,46z"></path> <path class="st0" d="M265,68c0.6,0,1-0.4,1-1s-0.4-1-1-1s-1,0.4-1,1S264.4,68,265,68z"></path> <path class="st0" d="M243,68c0.6,0,1-0.4,1-1s-0.4-1-1-1s-1,0.4-1,1S242.4,68,243,68z"></path> <path class="st0" d="M243,2c0.6,0,1-0.4,1-1s-0.4-1-1-1s-1,0.4-1,1S242.4,2,243,2z"></path> <path class="st0" d="M265,2c0.6,0,1-0.4,1-1s-0.4-1-1-1s-1,0.4-1,1S264.4,2,265,2z"></path> <path class="st0" d="M265,24c0.6,0,1-0.4,1-1s-0.4-1-1-1s-1,0.4-1,1S264.4,24,265,24z"></path> <path class="st0" d="M243,24c0.6,0,1-0.4,1-1s-0.4-1-1-1s-1,0.4-1,1S242.4,24,243,24z"></path> <path class="st0" d="M243,90c0.6,0,1-0.4,1-1s-0.4-1-1-1s-1,0.4-1,1S242.4,90,243,90z"></path> <path class="st0" d="M265,90c0.6,0,1-0.4,1-1s-0.4-1-1-1s-1,0.4-1,1S264.4,90,265,90z"></path> <path class="st0" d="M265,112c0.6,0,1-0.4,1-1s-0.4-1-1-1s-1,0.4-1,1S264.4,112,265,112z"></path> <path class="st0" d="M243,112c0.6,0,1-0.4,1-1s-0.4-1-1-1s-1,0.4-1,1S242.4,112,243,112z"></path> <path class="st0" d="M243,134c0.6,0,1-0.4,1-1s-0.4-1-1-1s-1,0.4-1,1S242.4,134,243,134z"></path> <path class="st0" d="M265,134c0.6,0,1-0.4,1-1s-0.4-1-1-1s-1,0.4-1,1S264.4,134,265,134z"></path> <path class="st0" d="M265,156c0.6,0,1-0.4,1-1s-0.4-1-1-1s-1,0.4-1,1S264.4,156,265,156z"></path> <path class="st0" d="M243,156c0.6,0,1-0.4,1-1s-0.4-1-1-1s-1,0.4-1,1S242.4,156,243,156z"></path> <path class="st0" d="M243,178c0.6,0,1-0.4,1-1s-0.4-1-1-1s-1,0.4-1,1S242.4,178,243,178z"></path> <path class="st0" d="M265,178c0.6,0,1-0.4,1-1s-0.4-1-1-1s-1,0.4-1,1S264.4,178,265,178z"></path> <path class="st0" d="M265,200c0.6,0,1-0.4,1-1s-0.4-1-1-1s-1,0.4-1,1S264.4,200,265,200z"></path> <path class="st0" d="M243,200c0.6,0,1-0.4,1-1s-0.4-1-1-1s-1,0.4-1,1S242.4,200,243,200z"></path> <path class="st0" d="M221,222c0.6,0,1-0.4,1-1s-0.4-1-1-1s-1,0.4-1,1S220.4,222,221,222z"></path> <path class="st0" d="M221,244c0.6,0,1-0.4,1-1s-0.4-1-1-1s-1,0.4-1,1S220.4,244,221,244z"></path> <path class="st0" d="M221,266c0.6,0,1-0.4,1-1s-0.4-1-1-1s-1,0.4-1,1S220.4,266,221,266z"></path> <path class="st0" d="M265,222c0.6,0,1-0.4,1-1s-0.4-1-1-1s-1,0.4-1,1S264.4,222,265,222z"></path> <path class="st0" d="M243,222c0.6,0,1-0.4,1-1s-0.4-1-1-1s-1,0.4-1,1S242.4,222,243,222z"></path> <path class="st0" d="M243,244c0.6,0,1-0.4,1-1s-0.4-1-1-1s-1,0.4-1,1S242.4,244,243,244z"></path> <path class="st0" d="M265,244c0.6,0,1-0.4,1-1s-0.4-1-1-1s-1,0.4-1,1S264.4,244,265,244z"></path> <path class="st0" d="M265,266c0.6,0,1-0.4,1-1s-0.4-1-1-1s-1,0.4-1,1S264.4,266,265,266z"></path> <path class="st0" d="M243,266c0.6,0,1-0.4,1-1s-0.4-1-1-1s-1,0.4-1,1S242.4,266,243,266z"></path> </svg> 