<?xml version="1.0" encoding="UTF-8"?> <svg xmlns="http://www.w3.org/2000/svg" viewBox="0 0 217.06 124.57"> <defs> <style>.cls-1{fill:#00aee6;}.cls-2{fill:#fff;}.cls-3{fill:#6d6e71;}</style> </defs> <g id="Слой_2" data-name="Слой 2"> <g id="Layer_1" data-name="Layer 1"> <rect class="cls-1" x="72.2" y="36.6" width="35.44" height="33.03"></rect> <rect class="cls-1" x="108.27" width="36.6" height="36.6"></rect> <rect class="cls-1" x="79.07" y="6.37" width="58.78" height="57.92"></rect> <polygon class="cls-2" points="89.97 22.03 89.97 57.04 101.39 57.04 101.39 10.92 89.97 22.03"></polygon> <polygon class="cls-2" points="127.63 22.03 127.63 57.04 116.2 57.04 116.2 10.92 127.63 22.03"></polygon> <polygon class="cls-2" points="114.51 31.12 114.51 57.04 103.08 57.04 103.08 20.02 114.51 31.12"></polygon> <polygon class="cls-3" points="0 92.31 0 110.2 3.53 110.2 3.53 99.11 10.67 110.2 17.66 99.22 17.66 110.2 21.5 110.2 21.5 92.31 17.66 92.31 10.75 103.24 3.53 92.31 0 92.31"></polygon> <polygon class="cls-3" points="40.96 95.92 40.96 92.31 23.15 92.31 23.15 110.2 40.96 110.2 40.96 106.57 26.68 106.57 26.68 102.83 37.2 102.83 37.2 99.32 26.68 99.32 26.68 95.92 40.96 95.92"></polygon> <polygon class="cls-3" points="60.66 92.31 42.61 92.31 42.61 95.92 49.83 95.92 49.83 110.2 53.36 110.2 53.36 95.92 60.66 95.92 60.66 92.31"></polygon> <polygon class="cls-3" points="143.61 106.75 143.61 92.31 139.76 92.31 139.76 110.2 141.69 110.2 143.61 110.2 154.21 110.2 154.21 106.75 143.61 106.75"></polygon> <rect class="cls-3" x="155.85" y="92.31" width="3.69" height="17.89"></rect> <polygon class="cls-3" points="178.93 92.31 161.19 92.31 161.19 95.92 168.33 95.92 168.33 110.2 171.86 110.2 171.86 95.92 178.93 95.92 178.93 92.31"></polygon> <polygon class="cls-3" points="213.45 92.31 213.45 104.42 203.02 92.31 199.09 92.31 199.09 110.2 203.02 110.2 203.02 98.16 213.45 110.2 214.66 110.2 217.06 110.2 217.06 92.31 213.45 92.31"></polygon> <path class="cls-3" d="M94.94,92.31H85.15a4,4,0,0,0-3.94,3.94v10a4,4,0,0,0,3.94,3.94h9.79a4,4,0,0,0,3.94-3.94v-10A4,4,0,0,0,94.94,92.31Zm.43,13.41A1.34,1.34,0,0,1,94,107.06h-8.3a1.34,1.34,0,0,1-1.34-1.34V96.9a1.34,1.34,0,0,1,1.34-1.35H94a1.34,1.34,0,0,1,1.34,1.35Z"></path> <path class="cls-3" d="M134,92.31h-9.8a4,4,0,0,0-3.93,3.94v10a4,4,0,0,0,3.93,3.94H134a4,4,0,0,0,3.94-3.94v-10A4,4,0,0,0,134,92.31Zm.43,13.41a1.34,1.34,0,0,1-1.34,1.34h-8.3a1.34,1.34,0,0,1-1.34-1.34V96.9a1.34,1.34,0,0,1,1.34-1.35h8.3a1.34,1.34,0,0,1,1.34,1.35Z"></path> <path class="cls-3" d="M80.12,101.07V95.92c0-2.15-2.17-3.61-4.52-3.61H62.31V110.2h3.85v-5.6h3.28l5.69,5.6h5l-5.57-5.6h1.57A3.93,3.93,0,0,0,80.12,101.07Zm-14,.18V95.92h9c1.31,0,1.73.57,1.73,2.54s-.32,2.79-1.83,2.79Z"></path> <path class="cls-3" d="M114.56,92.31h-14V110.2h3.69v-5.6h10.34a4,4,0,0,0,3.94-3.93V96.25A4,4,0,0,0,114.56,92.31Zm.25,7.84a1.16,1.16,0,0,1-1.15,1.16h-9.44V95.92h9.44a1.15,1.15,0,0,1,1.15,1.15Z"></path> <path class="cls-3" d="M193.51,92.31h-9.86a4,4,0,0,0-3.94,3.94v14h3.53v-3.63h10.44v3.63h3.77v-14A4,4,0,0,0,193.51,92.31ZM183.24,103V97a1,1,0,0,1,1-1h8.36a1,1,0,0,1,1,1v6Z"></path> <path class="cls-1" d="M47.08,116.76a1.84,1.84,0,0,1,1.53.58,2.7,2.7,0,0,1,.46,1.72v.82a2.71,2.71,0,0,1-.46,1.72,1.84,1.84,0,0,1-1.53.58H43.24v2.14c0,.17-.07.25-.2.25H42c-.14,0-.21-.08-.21-.25v-7.23c0-.22.09-.33.28-.33Zm-3.84,3.95h3.55a.79.79,0,0,0,.67-.25,1.18,1.18,0,0,0,.19-.75v-.42a1.22,1.22,0,0,0-.19-.75.81.81,0,0,0-.67-.24H43.36c-.08,0-.12,0-.12.13Z"></path> <path class="cls-1" d="M55.25,116.76a1.84,1.84,0,0,1,1.53.58,2.69,2.69,0,0,1,.47,1.72v.63a3,3,0,0,1-.33,1.52,1.52,1.52,0,0,1-1.06.71l1.59,2.37a.22.22,0,0,1,0,.17c0,.07-.06.11-.15.11h-1.2a.3.3,0,0,1-.16,0,.36.36,0,0,1-.1-.11l-1.46-2.33h-3v2.22c0,.17-.07.25-.2.25h-1c-.15,0-.22-.08-.22-.25v-7.23c0-.22.1-.33.28-.33Zm-3.84,4H55a.81.81,0,0,0,.67-.24,1.22,1.22,0,0,0,.2-.75v-.47a1.2,1.2,0,0,0-.2-.75.81.81,0,0,0-.67-.24H51.53c-.08,0-.12,0-.12.13Z"></path> <path class="cls-1" d="M64.82,116.76c.15,0,.22.08.22.24v1.06c0,.17-.07.25-.22.25h-4a2.06,2.06,0,0,0-.6.07.77.77,0,0,0-.38.25,1.08,1.08,0,0,0-.2.47,4.81,4.81,0,0,0-.05.73v.11h5.24c.13,0,.2.08.2.24v.89c0,.16-.07.24-.2.24H59.54v.19a4.91,4.91,0,0,0,.05.73,1.08,1.08,0,0,0,.2.47.77.77,0,0,0,.38.25,2.06,2.06,0,0,0,.6.07h4c.15,0,.22.08.22.24v1.06c0,.17-.07.25-.22.25H60.74a3.72,3.72,0,0,1-1.19-.16,1.77,1.77,0,0,1-.81-.5,2.33,2.33,0,0,1-.45-.92,5.4,5.4,0,0,1-.14-1.37V119.7a5.36,5.36,0,0,1,.14-1.36,2.35,2.35,0,0,1,.45-.91,1.87,1.87,0,0,1,.81-.51,3.72,3.72,0,0,1,1.19-.16Z"></path> <path class="cls-1" d="M67.94,116.76a1.75,1.75,0,0,1,.35,0,.5.5,0,0,1,.26.13.85.85,0,0,1,.2.25,3.11,3.11,0,0,1,.18.43L70.86,123a.13.13,0,0,0,.13.1h.11a.12.12,0,0,0,.13-.1l1.93-5.36.18-.43a1,1,0,0,1,.2-.25.53.53,0,0,1,.26-.13,1.69,1.69,0,0,1,.35,0h1a.7.7,0,0,1,.65.26,1.75,1.75,0,0,1,.17.9v6.4c0,.17-.08.25-.22.25H74.8c-.14,0-.21-.08-.21-.25V118.5c0-.08,0-.11-.07-.11h-.09a.12.12,0,0,0-.12.09l-1.87,5a2.62,2.62,0,0,1-.23.5,1.15,1.15,0,0,1-.25.34.83.83,0,0,1-.3.2,1.64,1.64,0,0,1-.41,0h-.44a1.64,1.64,0,0,1-.41,0,.83.83,0,0,1-.3-.2,1.15,1.15,0,0,1-.25-.34,2.62,2.62,0,0,1-.23-.5l-1.87-5a.12.12,0,0,0-.12-.09h-.09c-.05,0-.07,0-.07.11v5.82c0,.17-.07.25-.21.25h-.94c-.14,0-.22-.08-.22-.25v-6.4a1.75,1.75,0,0,1,.17-.9.71.71,0,0,1,.66-.26Z"></path> <path class="cls-1" d="M78.39,116.76q.21,0,.21.24v7.32c0,.17-.07.25-.21.25h-1c-.14,0-.21-.08-.21-.25V117q0-.24.21-.24Z"></path> <path class="cls-1" d="M81,116.76c.14,0,.2.08.2.24v4.46a3.88,3.88,0,0,0,.06.74,1.13,1.13,0,0,0,.2.47.83.83,0,0,0,.38.24,2,2,0,0,0,.6.08H85a1.91,1.91,0,0,0,.59-.08.78.78,0,0,0,.38-.24,1,1,0,0,0,.19-.47,3.88,3.88,0,0,0,.06-.74V117c0-.16.07-.24.2-.24h1c.13,0,.2.08.2.24v4.62a5.89,5.89,0,0,1-.14,1.37,2.09,2.09,0,0,1-.45.92,1.77,1.77,0,0,1-.81.5,3.83,3.83,0,0,1-1.2.16H82.41a3.83,3.83,0,0,1-1.2-.16,1.79,1.79,0,0,1-.8-.5A2.2,2.2,0,0,1,80,123a5.35,5.35,0,0,1-.15-1.37V117c0-.16.08-.24.22-.24Z"></path> <path class="cls-1" d="M90.73,116.76a1.69,1.69,0,0,1,.35,0,.5.5,0,0,1,.26.13.85.85,0,0,1,.2.25,3.11,3.11,0,0,1,.18.43L93.65,123a.13.13,0,0,0,.13.1h.12A.12.12,0,0,0,94,123L96,117.6l.18-.43a1,1,0,0,1,.2-.25.53.53,0,0,1,.26-.13,1.75,1.75,0,0,1,.35,0h1a.7.7,0,0,1,.65.26,1.75,1.75,0,0,1,.17.9v6.4c0,.17-.08.25-.22.25h-.94c-.14,0-.21-.08-.21-.25V118.5c0-.08,0-.11-.07-.11h-.09a.12.12,0,0,0-.12.09l-1.87,5a2.62,2.62,0,0,1-.23.5,1.15,1.15,0,0,1-.25.34.83.83,0,0,1-.3.2,1.64,1.64,0,0,1-.41,0H93.6a1.64,1.64,0,0,1-.41,0,.83.83,0,0,1-.3-.2,1.36,1.36,0,0,1-.25-.34,3.43,3.43,0,0,1-.23-.5l-1.87-5a.12.12,0,0,0-.12-.09h-.09s-.07,0-.07.11v5.82c0,.17-.07.25-.21.25h-.94c-.14,0-.21-.08-.21-.25v-6.4a1.77,1.77,0,0,1,.16-.9.71.71,0,0,1,.66-.26Z"></path> <path class="cls-1" d="M108.34,116.76a1.84,1.84,0,0,1,1.53.58,2.7,2.7,0,0,1,.46,1.72v.82a2.71,2.71,0,0,1-.46,1.72,1.84,1.84,0,0,1-1.53.58H104.5v2.14c0,.17-.07.25-.21.25h-1c-.14,0-.21-.08-.21-.25v-7.23c0-.22.09-.33.28-.33Zm-3.84,3.95h3.55a.8.8,0,0,0,.67-.25,1.18,1.18,0,0,0,.19-.75v-.42a1.22,1.22,0,0,0-.19-.75.83.83,0,0,0-.67-.24h-3.43c-.08,0-.12,0-.12.13Z"></path> <path class="cls-1" d="M116.51,116.76a1.84,1.84,0,0,1,1.53.58,2.7,2.7,0,0,1,.46,1.72v.63a3,3,0,0,1-.32,1.52,1.52,1.52,0,0,1-1.06.71l1.59,2.37a.22.22,0,0,1,0,.17.14.14,0,0,1-.15.11h-1.2a.34.34,0,0,1-.17,0,.35.35,0,0,1-.09-.11l-1.47-2.33h-3v2.22c0,.17-.07.25-.21.25h-1c-.14,0-.21-.08-.21-.25v-7.23c0-.22.09-.33.28-.33Zm-3.84,4h3.55a.81.81,0,0,0,.67-.24,1.22,1.22,0,0,0,.19-.75v-.47a1.2,1.2,0,0,0-.19-.75.81.81,0,0,0-.67-.24h-3.43c-.08,0-.12,0-.12.13Z"></path> <path class="cls-1" d="M124.87,116.76a3.83,3.83,0,0,1,1.2.16,1.78,1.78,0,0,1,.8.51,2.11,2.11,0,0,1,.45.91,5.36,5.36,0,0,1,.14,1.36v1.92a5.4,5.4,0,0,1-.14,1.37,2.09,2.09,0,0,1-.45.92,1.69,1.69,0,0,1-.8.5,3.83,3.83,0,0,1-1.2.16H122a3.83,3.83,0,0,1-1.2-.16,1.79,1.79,0,0,1-.8-.5,2.09,2.09,0,0,1-.45-.92,5.35,5.35,0,0,1-.15-1.37V119.7a5.32,5.32,0,0,1,.15-1.36,2.11,2.11,0,0,1,.45-.91,1.9,1.9,0,0,1,.8-.51,3.83,3.83,0,0,1,1.2-.16Zm-4.05,4.74a3.77,3.77,0,0,0,.06.73,1.08,1.08,0,0,0,.2.47.73.73,0,0,0,.38.25,2,2,0,0,0,.6.07h2.75a2.06,2.06,0,0,0,.6-.07.7.7,0,0,0,.37-.25,1,1,0,0,0,.2-.47,3.77,3.77,0,0,0,.06-.73v-1.67a3.69,3.69,0,0,0-.06-.73,1,1,0,0,0-.2-.47.7.7,0,0,0-.37-.25,2.06,2.06,0,0,0-.6-.07h-2.75a2,2,0,0,0-.6.07.73.73,0,0,0-.38.25,1.08,1.08,0,0,0-.2.47,3.69,3.69,0,0,0-.06.73Z"></path> <path class="cls-1" d="M133.87,116.76a1.84,1.84,0,0,1,1.53.58,2.69,2.69,0,0,1,.47,1.72v.82a2.71,2.71,0,0,1-.47,1.72,1.84,1.84,0,0,1-1.53.58H130v2.14c0,.17-.07.25-.2.25h-1c-.15,0-.22-.08-.22-.25v-7.23c0-.22.1-.33.28-.33ZM130,120.71h3.56a.78.78,0,0,0,.66-.25,1.18,1.18,0,0,0,.2-.75v-.42a1.22,1.22,0,0,0-.2-.75.81.81,0,0,0-.66-.24h-3.44c-.08,0-.12,0-.12.13Z"></path> <path class="cls-1" d="M143.39,116.76q.21,0,.21.24v1.06c0,.17-.07.25-.21.25h-4a2.06,2.06,0,0,0-.6.07.73.73,0,0,0-.38.25,1,1,0,0,0-.2.47,3.69,3.69,0,0,0-.06.73v.11h5.24q.21,0,.21.24v.89q0,.24-.21.24H138.1v.19a3.77,3.77,0,0,0,.06.73,1,1,0,0,0,.2.47.73.73,0,0,0,.38.25,2.06,2.06,0,0,0,.6.07h4q.21,0,.21.24v1.06c0,.17-.07.25-.21.25h-4.08a3.83,3.83,0,0,1-1.2-.16,1.74,1.74,0,0,1-.8-.5,2.09,2.09,0,0,1-.45-.92,5.35,5.35,0,0,1-.15-1.37V119.7a5.32,5.32,0,0,1,.15-1.36,2.11,2.11,0,0,1,.45-.91,1.84,1.84,0,0,1,.8-.51,3.83,3.83,0,0,1,1.2-.16Z"></path> <path class="cls-1" d="M149.93,116.76a1.84,1.84,0,0,1,1.53.58,2.7,2.7,0,0,1,.46,1.72v.63a3,3,0,0,1-.32,1.52,1.52,1.52,0,0,1-1.06.71l1.59,2.37a.22.22,0,0,1,0,.17.14.14,0,0,1-.15.11h-1.2a.34.34,0,0,1-.17,0,.35.35,0,0,1-.09-.11l-1.46-2.33h-3v2.22c0,.17-.07.25-.2.25h-1c-.14,0-.21-.08-.21-.25v-7.23c0-.22.09-.33.28-.33Zm-3.84,4h3.55a.81.81,0,0,0,.67-.24,1.22,1.22,0,0,0,.19-.75v-.47a1.2,1.2,0,0,0-.19-.75.81.81,0,0,0-.67-.24h-3.43c-.08,0-.12,0-.12.13Z"></path> <path class="cls-1" d="M160,116.76c.14,0,.22.08.22.24v1.1c0,.17-.08.25-.22.25H157.1v6c0,.17-.07.25-.2.25h-1c-.14,0-.21-.08-.21-.25v-6h-2.91c-.14,0-.22-.08-.22-.25V117c0-.16.08-.24.22-.24Z"></path> <path class="cls-1" d="M162.27,116.76c.13,0,.2.08.2.24v7.32c0,.17-.07.25-.2.25h-1c-.14,0-.21-.08-.21-.25V117q0-.24.21-.24Z"></path> <path class="cls-1" d="M170.31,116.76q.21,0,.21.24v1.06c0,.17-.07.25-.21.25h-4.05a2,2,0,0,0-.6.07.73.73,0,0,0-.38.25.89.89,0,0,0-.2.47,3.69,3.69,0,0,0-.06.73v.11h5.24q.21,0,.21.24v.89q0,.24-.21.24H165v.19a3.77,3.77,0,0,0,.06.73.89.89,0,0,0,.2.47.73.73,0,0,0,.38.25,2,2,0,0,0,.6.07h4.05q.21,0,.21.24v1.06c0,.17-.07.25-.21.25h-4.08a3.83,3.83,0,0,1-1.2-.16,1.74,1.74,0,0,1-.8-.5,2.21,2.21,0,0,1-.46-.92,5.89,5.89,0,0,1-.14-1.37V119.7a5.86,5.86,0,0,1,.14-1.36,2.23,2.23,0,0,1,.46-.91,1.84,1.84,0,0,1,.8-.51,3.83,3.83,0,0,1,1.2-.16Z"></path> <path class="cls-1" d="M178,116.76c.13,0,.2.08.2.24v1.06c0,.17-.07.25-.2.25h-4.65a.4.4,0,0,0-.38.17.75.75,0,0,0-.11.45v.38q0,.63.48.63h3.48a1.46,1.46,0,0,1,1.21.49,2.23,2.23,0,0,1,.41,1.43v.89a2.06,2.06,0,0,1-.4,1.32,1.49,1.49,0,0,1-1.24.5H171.7c-.14,0-.21-.08-.21-.25v-1.06q0-.24.21-.24h4.87a.42.42,0,0,0,.38-.17.84.84,0,0,0,.11-.46v-.45q0-.63-.48-.63H173.1a1.44,1.44,0,0,1-1.21-.5,2.13,2.13,0,0,1-.41-1.42v-.81a2,2,0,0,1,.4-1.32,1.47,1.47,0,0,1,1.24-.5Z"></path> </g> </g> </svg> 