<?xml version="1.0" encoding="UTF-8"?> <svg xmlns="http://www.w3.org/2000/svg" viewBox="0 0 316.91 58.45"> <title>Asset 4</title> <g id="Layer_2" data-name="Layer 2"> <g id="Layer_1-2" data-name="Layer 1"> <rect y="30.72" width="29.75" height="27.73" style="fill:#00aee6"></rect> <rect x="30.28" width="30.72" height="30.72" style="fill:#00aee6"></rect> <rect x="5.77" y="5.35" width="49.34" height="48.62" style="fill:#00aee6"></rect> <polygon points="14.92 18.49 14.92 47.88 24.51 47.88 24.51 9.17 14.92 18.49" style="fill:#fff"></polygon> <polygon points="46.53 18.49 46.53 47.88 36.94 47.88 36.94 9.17 46.53 18.49" style="fill:#fff"></polygon> <polygon points="35.52 26.13 35.52 47.88 25.93 47.88 25.93 16.8 35.52 26.13" style="fill:#fff"></polygon> <polygon points="71.3 14.58 71.3 34.83 75.3 34.83 75.3 22.28 83.38 34.83 91.28 22.4 91.28 34.83 95.63 34.83 95.63 14.58 91.28 14.58 83.47 26.95 75.3 14.58 71.3 14.58" style="fill:#6d6e71"></polygon> <polygon points="117.66 18.67 117.66 14.58 97.5 14.58 97.5 34.83 117.66 34.83 117.66 30.72 101.49 30.72 101.49 26.48 113.39 26.48 113.39 22.52 101.49 22.52 101.49 18.67 117.66 18.67" style="fill:#6d6e71"></polygon> <polygon points="139.94 14.58 119.52 14.58 119.52 18.67 127.69 18.67 127.69 34.83 131.69 34.83 131.69 18.67 139.94 18.67 139.94 14.58" style="fill:#6d6e71"></polygon> <polygon points="233.8 30.92 233.8 14.58 229.45 14.58 229.45 34.83 231.62 34.83 233.8 34.83 245.79 34.83 245.79 30.92 233.8 30.92" style="fill:#6d6e71"></polygon> <rect x="247.65" y="14.58" width="4.17" height="20.25" style="fill:#6d6e71"></rect> <polygon points="273.76 14.58 253.69 14.58 253.69 18.67 261.77 18.67 261.77 34.83 265.77 34.83 265.77 18.67 273.76 18.67 273.76 14.58" style="fill:#6d6e71"></polygon> <polygon points="312.83 14.58 312.83 28.28 301.02 14.58 296.58 14.58 296.58 34.83 301.02 34.83 301.02 21.2 312.83 34.83 314.19 34.83 316.91 34.83 316.91 14.58 312.83 14.58" style="fill:#6d6e71"></polygon> <path d="M179.22,29.75a1.53,1.53,0,0,1-1.52,1.53h-9.39a1.53,1.53,0,0,1-1.52-1.53v-10a1.52,1.52,0,0,1,1.52-1.52h9.39a1.52,1.52,0,0,1,1.52,1.52Zm-.49-15.17H167.65A4.48,4.48,0,0,0,163.19,19V30.37a4.48,4.48,0,0,0,4.46,4.46h11.08a4.48,4.48,0,0,0,4.46-4.46V19a4.48,4.48,0,0,0-4.46-4.46" style="fill:#6d6e71"></path> <path d="M223.45,29.75a1.53,1.53,0,0,1-1.52,1.53h-9.39A1.53,1.53,0,0,1,211,29.75v-10a1.52,1.52,0,0,1,1.52-1.52h9.39a1.52,1.52,0,0,1,1.52,1.52ZM223,14.58H211.87A4.47,4.47,0,0,0,207.42,19V30.37a4.47,4.47,0,0,0,4.45,4.46H223a4.47,4.47,0,0,0,4.45-4.46V19A4.47,4.47,0,0,0,223,14.58" style="fill:#6d6e71"></path> <path d="M146.16,24.71v-6h10.21c1.48,0,1.95.65,1.95,2.87s-.35,3.17-2.07,3.17ZM162,24.5V18.67c0-2.43-2.45-4.09-5.12-4.09h-15V34.83h4.35V28.49h3.71l6.44,6.34H162l-6.31-6.34h1.79a4.45,4.45,0,0,0,4.52-4" style="fill:#6d6e71"></path> <path d="M201.21,23.46a1.3,1.3,0,0,1-1.3,1.3H189.22V18.67h10.69a1.3,1.3,0,0,1,1.3,1.3Zm-.28-8.88H185.05V34.83h4.17V28.49h11.71A4.47,4.47,0,0,0,205.39,24V19a4.48,4.48,0,0,0-4.46-4.46" style="fill:#6d6e71"></path> <path d="M278.64,26.66V19.84a1.17,1.17,0,0,1,1.17-1.17h9.47a1.17,1.17,0,0,1,1.17,1.17v6.82Zm11.62-12.08H279.1A4.47,4.47,0,0,0,274.65,19V34.83h4V30.72h11.81v4.11h4.26V19a4.47,4.47,0,0,0-4.45-4.46" style="fill:#6d6e71"></path> <path d="M120.23,46.72h4a.87.87,0,0,0,.75-.28,1.35,1.35,0,0,0,.23-.85v-.48a1.3,1.3,0,0,0-.23-.84.87.87,0,0,0-.75-.28h-3.88c-.1,0-.14,0-.14.15Zm4.34-4.47a2.12,2.12,0,0,1,1.74.65,3.09,3.09,0,0,1,.52,2v.93a3.09,3.09,0,0,1-.52,1.95,2.09,2.09,0,0,1-1.74.66h-4.34v2.42c0,.19-.08.28-.23.28h-1.14c-.16,0-.24-.09-.24-.28V42.63c0-.26.11-.38.32-.38Z" style="fill:#00aee6"></path> <path d="M129.48,46.76h4a.93.93,0,0,0,.75-.28,1.35,1.35,0,0,0,.22-.85V45.1a1.35,1.35,0,0,0-.22-.85.93.93,0,0,0-.75-.27h-3.89c-.09,0-.13.05-.13.15Zm4.34-4.51a2.1,2.1,0,0,1,1.73.65,3.08,3.08,0,0,1,.53,2v.72a3.38,3.38,0,0,1-.37,1.72,1.67,1.67,0,0,1-1.2.8l1.8,2.68a.27.27,0,0,1,0,.19c0,.09-.07.13-.17.13h-1.35a.3.3,0,0,1-.19,0,.37.37,0,0,1-.11-.13l-1.65-2.62h-3.39v2.51c0,.19-.08.28-.23.28h-1.14c-.16,0-.24-.09-.24-.28V42.63c0-.26.11-.38.32-.38Z" style="fill:#00aee6"></path> <path d="M144.65,42.25q.24,0,.24.27v1.2c0,.19-.08.28-.24.28h-4.58a2.53,2.53,0,0,0-.68.08.92.92,0,0,0-.43.28,1.23,1.23,0,0,0-.23.53,4.87,4.87,0,0,0-.06.83v.13h5.93c.15,0,.23.09.23.27v1c0,.19-.08.28-.23.28h-5.93v.21a4.79,4.79,0,0,0,.06.83A1.18,1.18,0,0,0,139,49a.85.85,0,0,0,.43.28,2.18,2.18,0,0,0,.68.08h4.58c.16,0,.24.1.24.28v1.2c0,.19-.08.28-.24.28H140a4.41,4.41,0,0,1-1.35-.18,2.08,2.08,0,0,1-.91-.57,2.53,2.53,0,0,1-.51-1,6.26,6.26,0,0,1-.16-1.55V45.58a6.17,6.17,0,0,1,.16-1.54,2.55,2.55,0,0,1,.51-1,2.1,2.1,0,0,1,.91-.58,4.41,4.41,0,0,1,1.35-.18Z" style="fill:#00aee6"></path> <path d="M148.18,42.25a2.33,2.33,0,0,1,.4,0,.73.73,0,0,1,.29.15,1,1,0,0,1,.23.29,3.72,3.72,0,0,1,.2.49l2.19,6.06a.13.13,0,0,0,.14.11h.13a.15.15,0,0,0,.15-.11l2.18-6.06a3.72,3.72,0,0,1,.2-.49,1.18,1.18,0,0,1,.23-.29.73.73,0,0,1,.29-.15,2.21,2.21,0,0,1,.39,0h1.12a.83.83,0,0,1,.74.29,2,2,0,0,1,.19,1v7.25c0,.19-.08.28-.24.28h-1.07c-.16,0-.23-.09-.23-.28V44.22c0-.09,0-.13-.09-.13h-.09a.13.13,0,0,0-.14.1l-2.12,5.66a3.56,3.56,0,0,1-.26.58,1.63,1.63,0,0,1-.28.38,1,1,0,0,1-.35.22,1.53,1.53,0,0,1-.45.06h-.51A1.53,1.53,0,0,1,151,51a1,1,0,0,1-.35-.22,1.63,1.63,0,0,1-.28-.38,3.56,3.56,0,0,1-.26-.58L148,44.19a.13.13,0,0,0-.14-.1h-.09c-.06,0-.09,0-.09.13v6.59c0,.19-.07.28-.23.28h-1.07c-.16,0-.24-.09-.24-.28V43.56a2,2,0,0,1,.19-1,.84.84,0,0,1,.75-.29Z" style="fill:#00aee6"></path> <path d="M160,42.25c.15,0,.23.09.23.27v8.29c0,.19-.08.28-.23.28h-1.14c-.16,0-.24-.09-.24-.28V42.52q0-.27.24-.27Z" style="fill:#00aee6"></path> <path d="M163,42.25c.15,0,.23.09.23.27v5a3.93,3.93,0,0,0,.07.84,1.18,1.18,0,0,0,.22.53.79.79,0,0,0,.43.28,2.18,2.18,0,0,0,.68.08h2.9a2.18,2.18,0,0,0,.68-.08.73.73,0,0,0,.42-.28,1.18,1.18,0,0,0,.23-.53,4.84,4.84,0,0,0,.06-.84v-5c0-.18.07-.27.23-.27h1.14c.16,0,.23.09.23.27v5.23a6.83,6.83,0,0,1-.15,1.55,2.53,2.53,0,0,1-.51,1,2.06,2.06,0,0,1-.92.57,4.44,4.44,0,0,1-1.36.18h-3a4.41,4.41,0,0,1-1.35-.18,2,2,0,0,1-.91-.57,2.42,2.42,0,0,1-.51-1,6.21,6.21,0,0,1-.17-1.55V42.52q0-.27.24-.27Z" style="fill:#00aee6"></path> <path d="M174,42.25a2.41,2.41,0,0,1,.4,0,.73.73,0,0,1,.29.15,1.18,1.18,0,0,1,.23.29,3.72,3.72,0,0,1,.2.49l2.18,6.06a.15.15,0,0,0,.15.11h.13c.07,0,.11,0,.14-.11l2.19-6.06a2.71,2.71,0,0,1,.2-.49,1,1,0,0,1,.23-.29.76.76,0,0,1,.28-.15,2.25,2.25,0,0,1,.4,0h1.12a.84.84,0,0,1,.74.29,2.1,2.1,0,0,1,.18,1v7.25c0,.19-.08.28-.24.28h-1.07c-.15,0-.23-.09-.23-.28V44.22c0-.09,0-.13-.08-.13h-.1a.12.12,0,0,0-.13.1l-2.12,5.66a4.68,4.68,0,0,1-.26.58,2,2,0,0,1-.28.38,1.08,1.08,0,0,1-.35.22,1.56,1.56,0,0,1-.46.06h-.5a1.56,1.56,0,0,1-.46-.06,1,1,0,0,1-.34-.22,2,2,0,0,1-.29-.38,4.78,4.78,0,0,1-.25-.58l-2.12-5.66a.13.13,0,0,0-.14-.1h-.09c-.06,0-.09,0-.09.13v6.59c0,.19-.08.28-.23.28h-1.07c-.16,0-.24-.09-.24-.28V43.56a2,2,0,0,1,.19-1,.82.82,0,0,1,.74-.29Z" style="fill:#00aee6"></path> <path d="M189.54,46.72h4a.91.91,0,0,0,.76-.28,1.42,1.42,0,0,0,.22-.85v-.48a1.36,1.36,0,0,0-.22-.84.91.91,0,0,0-.76-.28h-3.88c-.09,0-.14,0-.14.15Zm4.35-4.47a2.11,2.11,0,0,1,1.73.65,3.09,3.09,0,0,1,.52,2v.93a3.09,3.09,0,0,1-.52,1.95,2.09,2.09,0,0,1-1.73.66h-4.35v2.42c0,.19-.07.28-.23.28h-1.13c-.16,0-.24-.09-.24-.28V42.63c0-.26.1-.38.31-.38Z" style="fill:#00aee6"></path> <path d="M198.79,46.76h4a.9.9,0,0,0,.75-.28,1.35,1.35,0,0,0,.23-.85V45.1a1.35,1.35,0,0,0-.23-.85.9.9,0,0,0-.75-.27h-3.88c-.1,0-.14.05-.14.15Zm4.34-4.51a2.12,2.12,0,0,1,1.74.65,3.09,3.09,0,0,1,.52,2v.72a3.38,3.38,0,0,1-.37,1.72,1.67,1.67,0,0,1-1.19.8l1.79,2.68a.2.2,0,0,1,0,.19.14.14,0,0,1-.16.13h-1.36a.32.32,0,0,1-.19,0,.36.36,0,0,1-.1-.13l-1.66-2.62h-3.39v2.51c0,.19-.08.28-.23.28h-1.14c-.16,0-.24-.09-.24-.28V42.63c0-.26.11-.38.32-.38Z" style="fill:#00aee6"></path> <path d="M208,47.61a4.68,4.68,0,0,0,.07.83,1.18,1.18,0,0,0,.23.53.83.83,0,0,0,.42.28,2.22,2.22,0,0,0,.68.08h3.12a2.12,2.12,0,0,0,.67-.08.85.85,0,0,0,.43-.28,1.3,1.3,0,0,0,.23-.53,4.79,4.79,0,0,0,.06-.83V45.72a4.87,4.87,0,0,0-.06-.83,1.37,1.37,0,0,0-.23-.53.92.92,0,0,0-.43-.28,2.45,2.45,0,0,0-.67-.08h-3.12a2.59,2.59,0,0,0-.68.08.89.89,0,0,0-.42.28,1.23,1.23,0,0,0-.23.53,4.77,4.77,0,0,0-.07.83Zm4.58-5.36a4.48,4.48,0,0,1,1.36.18,2,2,0,0,1,.91.58,2.32,2.32,0,0,1,.51,1,6.17,6.17,0,0,1,.16,1.54v2.17a6.26,6.26,0,0,1-.16,1.55,2.31,2.31,0,0,1-.51,1,2,2,0,0,1-.91.57,4.48,4.48,0,0,1-1.36.18h-3.24a4.48,4.48,0,0,1-1.36-.18,2,2,0,0,1-.9-.57,2.43,2.43,0,0,1-.52-1,6.26,6.26,0,0,1-.16-1.55V45.58a6.17,6.17,0,0,1,.16-1.54,2.45,2.45,0,0,1,.52-1,2,2,0,0,1,.9-.58,4.48,4.48,0,0,1,1.36-.18Z" style="fill:#00aee6"></path> <path d="M218.44,46.72h4a.9.9,0,0,0,.75-.28,1.35,1.35,0,0,0,.22-.85v-.48a1.3,1.3,0,0,0-.22-.84.9.9,0,0,0-.75-.28h-3.89c-.09,0-.13,0-.13.15Zm4.34-4.47a2.1,2.1,0,0,1,1.73.65,3.08,3.08,0,0,1,.53,2v.93a3.08,3.08,0,0,1-.53,1.95,2.07,2.07,0,0,1-1.73.66h-4.34v2.42c0,.19-.08.28-.23.28h-1.14c-.16,0-.24-.09-.24-.28V42.63c0-.26.11-.38.32-.38Z" style="fill:#00aee6"></path> <path d="M233.55,42.25q.24,0,.24.27v1.2c0,.19-.08.28-.24.28H229a2.51,2.51,0,0,0-.67.08.88.88,0,0,0-.43.28,1.13,1.13,0,0,0-.23.53,4.87,4.87,0,0,0-.06.83v.13h5.93c.15,0,.23.09.23.27v1c0,.19-.08.28-.23.28h-5.93v.21a4.79,4.79,0,0,0,.06.83,1.08,1.08,0,0,0,.23.53.81.81,0,0,0,.43.28,2.16,2.16,0,0,0,.67.08h4.59c.16,0,.24.1.24.28v1.2c0,.19-.08.28-.24.28h-4.62a4.41,4.41,0,0,1-1.35-.18,2,2,0,0,1-.91-.57,2.42,2.42,0,0,1-.51-1,6.21,6.21,0,0,1-.17-1.55V45.58a6.13,6.13,0,0,1,.17-1.54,2.43,2.43,0,0,1,.51-1,2,2,0,0,1,.91-.58,4.41,4.41,0,0,1,1.35-.18Z" style="fill:#00aee6"></path> <path d="M236.6,46.76h4a.94.94,0,0,0,.76-.28,1.35,1.35,0,0,0,.22-.85V45.1a1.35,1.35,0,0,0-.22-.85.94.94,0,0,0-.76-.27h-3.88c-.09,0-.14.05-.14.15ZM241,42.25a2.11,2.11,0,0,1,1.73.65,3.08,3.08,0,0,1,.53,2v.72a3.49,3.49,0,0,1-.37,1.72,1.71,1.71,0,0,1-1.2.8l1.8,2.68a.27.27,0,0,1,0,.19.15.15,0,0,1-.17.13H242a.3.3,0,0,1-.19,0,.37.37,0,0,1-.11-.13L240,48.3H236.6v2.51c0,.19-.07.28-.23.28h-1.13c-.16,0-.24-.09-.24-.28V42.63c0-.26.1-.38.31-.38Z" style="fill:#00aee6"></path> <path d="M252.36,42.25q.24,0,.24.27v1.24c0,.2-.08.29-.24.29h-3.3v6.76c0,.19-.07.28-.23.28h-1.14c-.16,0-.23-.09-.23-.28V44.05h-3.3c-.16,0-.24-.09-.24-.29V42.52q0-.27.24-.27Z" style="fill:#00aee6"></path> <path d="M254.91,42.25c.15,0,.23.09.23.27v8.29c0,.19-.08.28-.23.28h-1.14c-.16,0-.24-.09-.24-.28V42.52q0-.27.24-.27Z" style="fill:#00aee6"></path> <path d="M264,42.25q.24,0,.24.27v1.2c0,.19-.08.28-.24.28h-4.59a2.59,2.59,0,0,0-.68.08,1,1,0,0,0-.43.28,1.23,1.23,0,0,0-.22.53,4.87,4.87,0,0,0-.06.83v.13H264c.15,0,.23.09.23.27v1c0,.19-.08.28-.23.28H258v.21a4.79,4.79,0,0,0,.06.83,1.18,1.18,0,0,0,.22.53.9.9,0,0,0,.43.28,2.22,2.22,0,0,0,.68.08H264c.16,0,.24.1.24.28v1.2c0,.19-.08.28-.24.28h-4.62a4.41,4.41,0,0,1-1.35-.18,2,2,0,0,1-.91-.57,2.43,2.43,0,0,1-.52-1,6.77,6.77,0,0,1-.16-1.55V45.58a6.68,6.68,0,0,1,.16-1.54,2.45,2.45,0,0,1,.52-1,2,2,0,0,1,.91-.58,4.41,4.41,0,0,1,1.35-.18Z" style="fill:#00aee6"></path> <path d="M272.75,42.25c.15,0,.23.09.23.27v1.2c0,.19-.08.28-.23.28h-5.26a.5.5,0,0,0-.43.19,1,1,0,0,0-.12.52v.43c0,.47.18.71.54.71h3.94a1.65,1.65,0,0,1,1.37.56,2.45,2.45,0,0,1,.46,1.61v1a2.34,2.34,0,0,1-.45,1.49,1.68,1.68,0,0,1-1.4.57h-5.82c-.16,0-.24-.09-.24-.28v-1.2c0-.18.08-.28.24-.28h5.51a.46.46,0,0,0,.43-.19.86.86,0,0,0,.13-.51v-.52c0-.47-.18-.71-.55-.71h-3.93a1.7,1.7,0,0,1-1.38-.56,2.47,2.47,0,0,1-.46-1.61v-.92a2.35,2.35,0,0,1,.45-1.5,1.71,1.71,0,0,1,1.41-.56Z" style="fill:#00aee6"></path> </g> </g> </svg> 