<?xml version="1.0" encoding="UTF-8"?> <!-- Generator: Adobe Illustrator 25.0.0, SVG Export Plug-In . SVG Version: 6.00 Build 0) --> <svg xmlns="http://www.w3.org/2000/svg" xmlns:xlink="http://www.w3.org/1999/xlink" id="Слой_1" x="0px" y="0px" viewBox="0 0 600 208" style="enable-background:new 0 0 600 208;" xml:space="preserve"> <style type="text/css"> .st0{fill:#FFFFFF;} .st1{fill:#D6B17C;} </style> <rect class="st0" width="600" height="208"></rect> <path class="st1" d="M163.9,81.7V179h65l30.9-97.4C259.9,81.7,163.9,81.7,163.9,81.7z M206.9,159.2h-7.1v-45.9h-10.3v-4.9h0.3 c7.1-0.5,10.4-2.6,11.3-7.1V101h5.6L206.9,159.2L206.9,159.2z M265.3,81.7l-31.1,97.2h201.9V81.5H265.3V81.7z M309,136.9 c0,15.6-6.4,23.3-19.6,23.3c-9.2,0-15.1-4.5-18.3-14.3l-0.2-0.3l6.8-2.3l0.2,0.3c2.6,7,5.9,9.7,11.8,9.7c8.7,0,12.3-4.9,12.3-16.9 V101h7.1L309,136.9L309,136.9z M341.8,159.2h-20.7V101h21c10.1,0,15.8,5.4,15.8,14.8c0.3,5-2.6,9.7-7.3,11.6 c4.9,1.6,9.9,5.4,9.9,14.4C360.6,153.3,354.2,159.2,341.8,159.2z M409.6,159.2h-8.2l-12.2-24.5h-12.7v24.5h-7.1V101h22.8 c11.3,0,18.1,6.3,18.1,16.7c0,8.5-4.7,14.6-13,16.5L409.6,159.2z M341.8,131.4h-13.6v21.4h13.9c7.7,0,11.3-3.5,11.3-10.4 S349.1,131.4,341.8,131.4z M392.1,107.7h-15.5v20.5h14.6c8.2,0,12-3.3,12-10.3S399.4,107.7,392.1,107.7z M350.9,116.1 c0-5.4-3.1-8.3-8.9-8.3h-13.7v17h13.2C349.6,124.8,350.9,119.2,350.9,116.1z"></path> </svg> 