<?xml version="1.0" encoding="UTF-8"?> <svg xmlns="http://www.w3.org/2000/svg" width="20" height="20" viewBox="0 0 20 20" fill="none"> <path id="Shape" fill-rule="evenodd" clip-rule="evenodd" d="M9.9975 0H10.0025C15.5162 0 20 4.48625 20 10C20 15.5138 15.5162 20 10.0025 20C7.96875 20 6.0825 19.395 4.50125 18.3475L0.6575 19.5763L1.90375 15.8612C0.705 14.215 0 12.1875 0 10C0 4.485 4.48375 0 9.9975 0ZM13.8587 15.533C14.6224 15.368 15.5799 14.803 15.8212 14.1217C16.0624 13.4392 16.0624 12.858 15.9924 12.7342C15.9359 12.636 15.8023 12.5717 15.6027 12.4756C15.5508 12.4506 15.4944 12.4234 15.4337 12.393C15.1399 12.2467 13.7112 11.5405 13.4412 11.4467C13.1762 11.3467 12.9237 11.3817 12.7237 11.6642C12.6856 11.7175 12.6477 11.7708 12.61 11.8239C12.3687 12.1633 12.1359 12.4906 11.9424 12.6992C11.7662 12.8867 11.4787 12.9105 11.2374 12.8105C11.2111 12.7995 11.181 12.7873 11.1472 12.7737C10.7653 12.6194 9.91801 12.2772 8.89244 11.3642C8.02744 10.5942 7.43994 9.63547 7.26994 9.34797C7.10303 9.05956 7.247 8.89044 7.38006 8.73414L7.38744 8.72547C7.47323 8.61932 7.55648 8.53094 7.64015 8.44211C7.70033 8.37822 7.76073 8.31409 7.82244 8.24297C7.83161 8.23241 7.84052 8.22216 7.8492 8.21217C7.98024 8.06151 8.05827 7.97179 8.14619 7.78422C8.24619 7.59047 8.17494 7.39047 8.10369 7.24297C8.05467 7.13967 7.75182 6.40486 7.49185 5.7741C7.38061 5.50422 7.27723 5.25339 7.20494 5.07922C7.01119 4.61547 6.86369 4.59797 6.56994 4.58547C6.56095 4.58502 6.55186 4.58456 6.54268 4.58409C6.44982 4.57939 6.34756 4.57422 6.23494 4.57422C5.85244 4.57422 5.45369 4.68672 5.21244 4.93297C5.20401 4.94158 5.19522 4.95052 5.1861 4.95979C4.87747 5.27368 4.18994 5.9729 4.18994 7.36672C4.18994 8.76323 5.18082 10.1148 5.36416 10.3648C5.36921 10.3717 5.37365 10.3778 5.37744 10.383C5.38847 10.3975 5.40927 10.4276 5.43953 10.4714C5.81388 11.0135 7.63723 13.654 10.3562 14.7805C12.6537 15.733 13.3362 15.6442 13.8587 15.533Z" fill="white"></path> </svg> 