<?xml version="1.0" encoding="UTF-8"?> <!-- Generator: Adobe Illustrator 24.0.0, SVG Export Plug-In . SVG Version: 6.00 Build 0) --> <svg xmlns="http://www.w3.org/2000/svg" xmlns:xlink="http://www.w3.org/1999/xlink" id="Layer_1" x="0px" y="0px" viewBox="0 0 512 512" style="enable-background:new 0 0 512 512;" xml:space="preserve"> <style type="text/css"> .st0{fill:#D6B180;} </style> <g> <g> <g> <path class="st0" d="M493.3,159.7c-12.5-30.9-31.2-59.8-56.2-84.8c-25-25-53.9-43.7-84.8-56.2C321.4,6.2,288.6,0,255.8,0 c-32.7,0-65.5,6.2-96.3,18.7C128.7,31.2,99.8,50,74.9,74.9C50,99.8,31.2,128.7,18.7,159.5C6.2,190.3,0,223.1,0,255.8 c0,32.8,6.2,65.6,18.7,96.5c12.5,30.9,31.2,59.8,56.2,84.8c25,25,53.9,43.7,84.8,56.2c30.9,12.5,63.7,18.7,96.5,18.7 c32.7,0,65.5-6.2,96.3-18.7c30.8-12.5,59.7-31.2,84.6-56.2c24.9-24.9,43.7-53.8,56.2-84.6c12.5-30.8,18.7-63.6,18.7-96.3 C512,223.4,505.8,190.6,493.3,159.7z M461.6,339.7c-10.8,26.7-27,51.6-48.7,73.3c-21.6,21.6-46.6,37.8-73.3,48.7 c-26.7,10.8-55.1,16.2-83.5,16.2c-28.5,0-56.9-5.4-83.7-16.2c-26.7-10.8-51.8-27-73.4-48.7c-21.7-21.7-37.9-46.7-48.7-73.4 c-10.8-26.7-16.2-55.2-16.2-83.7c0-28.4,5.4-56.8,16.2-83.5c10.8-26.7,27-51.6,48.7-73.3c21.6-21.6,46.6-37.8,73.3-48.7 c26.7-10.8,55.1-16.2,83.5-16.2c28.5,0,56.9,5.4,83.7,16.2c26.7,10.8,51.8,27,73.4,48.7c21.7,21.7,37.9,46.7,48.7,73.4 c10.8,26.7,16.2,55.2,16.2,83.7C477.9,284.6,472.4,313,461.6,339.7z"></path> </g> </g> <g> <g> <path class="st0" d="M362.3,149.7c-6.5-6.5-17.1-6.5-23.6,0l-189,189c-6.5,6.5-6.5,17.1,0,23.6c6.5,6.5,17.1,6.5,23.6,0l189-189 C368.8,166.8,368.8,156.2,362.3,149.7z"></path> </g> </g> <g> <g> <path class="st0" d="M246.8,137.1c-2.4-6-6.1-11.7-11-16.6c-4.9-4.9-10.5-8.6-16.6-11c-6-2.5-12.5-3.7-18.9-3.7 s-12.8,1.2-18.9,3.7c-6,2.4-11.7,6.1-16.6,11c-4.9,4.9-8.6,10.5-11,16.6c-2.5,6-3.7,12.5-3.7,18.9s1.2,12.8,3.7,18.9 c2.4,6,6.1,11.7,11,16.6c4.9,4.9,10.5,8.6,16.6,11c6,2.5,12.5,3.7,18.9,3.7s12.8-1.2,18.9-3.7c6-2.4,11.7-6.1,16.6-11 c4.9-4.9,8.6-10.5,11-16.6c2.5-6,3.7-12.5,3.7-18.9S249.2,143.1,246.8,137.1z M215.8,162.2c-0.8,2-2,3.9-3.7,5.5 c-1.7,1.7-3.5,2.9-5.5,3.7c-2,0.8-4.1,1.2-6.3,1.2c-2.2,0-4.3-0.4-6.3-1.2c-2-0.8-3.9-2-5.5-3.7c-1.7-1.7-2.9-3.5-3.7-5.5 c-0.8-2-1.2-4.1-1.2-6.3c0-2.2,0.4-4.3,1.2-6.3c0.8-2,2-3.9,3.7-5.5c1.7-1.7,3.5-2.9,5.5-3.7c2-0.8,4.1-1.2,6.3-1.2 c2.2,0,4.3,0.4,6.3,1.2c2,0.8,3.9,2,5.5,3.7c1.7,1.7,2.9,3.5,3.7,5.5c0.8,2,1.2,4.1,1.2,6.3C217,158.1,216.6,160.2,215.8,162.2z"></path> </g> </g> <g> <g> <path class="st0" d="M369.3,326.3c-2.4-6-6.1-11.7-11-16.6c-4.9-4.9-10.5-8.6-16.6-11c-6-2.5-12.5-3.7-18.9-3.7 s-12.8,1.2-18.9,3.7c-6,2.4-11.7,6.1-16.6,11c-4.9,4.9-8.6,10.5-11,16.6c-2.5,6-3.7,12.5-3.7,18.9s1.2,12.8,3.7,18.9 c2.4,6,6.1,11.7,11,16.6c4.9,4.9,10.5,8.6,16.6,11c6,2.5,12.5,3.7,18.9,3.7s12.8-1.2,18.9-3.7c6-2.4,11.7-6.1,16.6-11 c4.9-4.9,8.6-10.5,11-16.6c2.5-6,3.7-12.5,3.7-18.9S371.7,332.3,369.3,326.3z M338.3,351.4c-0.8,2-2,3.9-3.7,5.5 c-1.7,1.7-3.5,2.9-5.5,3.7c-2,0.8-4.1,1.2-6.3,1.2c-2.2,0-4.3-0.4-6.3-1.2c-2-0.8-3.9-2-5.5-3.7c-1.7-1.7-2.9-3.5-3.7-5.5 c-0.8-2-1.2-4.1-1.2-6.3c0-2.2,0.4-4.3,1.2-6.3c0.8-2,2-3.9,3.7-5.5c1.7-1.7,3.5-2.9,5.5-3.7c2-0.8,4.1-1.2,6.3-1.2 c2.2,0,4.3,0.4,6.3,1.2c2,0.8,3.9,2,5.5,3.7c1.7,1.7,2.9,3.5,3.7,5.5c0.8,2,1.2,4.1,1.2,6.3C339.5,347.3,339.1,349.4,338.3,351.4 z"></path> </g> </g> </g> </svg> 