<?xml version="1.0" encoding="UTF-8"?> <!-- Generator: Adobe Illustrator 24.0.0, SVG Export Plug-In . SVG Version: 6.00 Build 0) --> <svg xmlns="http://www.w3.org/2000/svg" xmlns:xlink="http://www.w3.org/1999/xlink" id="Слой_1" x="0px" y="0px" viewBox="0 0 51.5 52.7" style="enable-background:new 0 0 51.5 52.7;" xml:space="preserve"> <style type="text/css"> .st0{fill:none;stroke:#D6B180;stroke-width:0.53;stroke-miterlimit:10;} .st1{fill:#D6B180;} </style> <title>Ресурс 1</title> <g id="Слой_2_1_"> <g id="Слой_1-2"> <path class="st0" d="M51.2,26.3c0,14.4-11.4,26.1-25.5,26.1S0.3,40.7,0.3,26.3S11.7,0.3,25.8,0.3S51.2,11.9,51.2,26.3"></path> <path class="st1" d="M23.8,14.2l-0.1,0.7c0,0.2-0.1,0.5-0.1,0.7l0,0c-0.1-0.2-0.2-0.5-0.3-0.7L23,14.3l-0.6,0.1l0.1,2l0.4-0.1 l-0.1-0.8c0-0.2,0-0.6-0.1-0.8l0,0c0.1,0.2,0.2,0.5,0.3,0.8l0.3,0.7h0.4l0.1-0.8c0-0.2,0.1-0.5,0.1-0.8l0,0c0,0.3,0.1,0.6,0.1,0.8 l0.1,0.8l0.4-0.1l-0.4-2L23.8,14.2z"></path> <path class="st1" d="M26.7,14.1h-0.6l-0.6,2h0.5l0.1-0.5h0.6l0.1,0.5h0.5L26.7,14.1z M26.1,15.2l0.1-0.4c0-0.1,0.1-0.3,0.1-0.4 l0,0c0,0.1,0.1,0.3,0.1,0.4l0.1,0.4H26.1z"></path> <polygon class="st1" points="29.4,15.7 28.6,15.7 28.7,14.1 28.2,14 28.1,16 29.3,16.1 "></polygon> <polygon class="st1" points="31.4,15.9 30.6,15.9 30.8,14.2 30.4,14.2 30.1,16.2 31.4,16.3 "></polygon> <path class="st1" d="M36.2,33.3c0,0.7-0.6,1.2-1.3,1.2c-0.7,0-1.2-0.6-1.2-1.3c0-0.7,0.6-1.2,1.2-1.2C35.6,32,36.2,32.6,36.2,33.3 "></path> <path class="st1" d="M41,33.3c0,0.7-0.6,1.2-1.3,1.2c-0.7,0-1.2-0.6-1.2-1.3c0-0.7,0.6-1.2,1.3-1.2C40.5,32,41,32.6,41,33.3 C41,33.3,41,33.3,41,33.3"></path> <path class="st1" d="M35.4,38.4h-2.2v-3.5c-0.4-0.4-0.6-1-0.6-1.6c0-0.4,0.1-0.8,0.3-1.1c-0.2-0.2-0.3-0.5-0.4-0.9h-0.2 c-1-0.2-1.9-0.3-2.9-0.4v-3.7c0.9,0.1,1.7,0.2,2.5,0.3l-0.1-1c-0.8-0.1-1.5-0.2-2.4-0.3v-3.7l0,0c0.1-0.3,0.2-0.7,0.5-0.9h-0.5V18 c1,0.1,1.9,0.2,2.9,0.4v3.2l0.9,0.4v-3.4c0.8,0.2,1.5,0.4,2.2,0.7v3.6c-0.5-0.2-0.9-0.3-1.4-0.5c0.2,0.2,0.4,0.6,0.5,0.9v0.2 c0.3,0.1,0.6,0.2,0.8,0.3h1v-9.5c0-0.2-0.1-0.4-0.2-0.5c-2-1-5.4-1.6-9.1-1.6s-7.1,0.6-9.1,1.6c-0.2,0.1-0.3,0.3-0.2,0.5v4.5 c0,0,0,0.1,0,0.1v4.5c0,0,0,0.1,0,0.1v4.2l-7,2.5c-0.2,0.1-0.3,0.3-0.3,0.5v8c0,0.3,0.2,0.5,0.5,0.5c0,0,0,0,0,0h25.3 c0.3,0,0.5-0.2,0.5-0.5c0,0,0,0,0,0v-3.6c-0.3,0.2-0.6,0.3-0.9,0.4L35.4,38.4z M13.8,38.4h-2.8V35l2.8-0.6V38.4z M13.8,33.4 L11.1,34v-2.8l2.8-1V33.4z M17.5,38.4h-2.8v-4.3l2.8-0.6V38.4z M17.5,32.5l-2.8,0.6v-3.3l2.8-1V32.5z M18.5,14.6 c2.7-1,5.6-1.5,8.5-1.4c2.9-0.1,5.8,0.4,8.5,1.4v3.6c-2.7-0.9-5.6-1.4-8.5-1.3c-2.9-0.1-5.7,0.4-8.5,1.3V14.6z M20.7,38.4h-2.3 v-5.2c0.7-0.3,1.5-0.6,2.2-0.7L20.7,38.4z M20.7,31.5c-0.8,0.2-1.5,0.4-2.2,0.7v-3.6c0.7-0.3,1.5-0.6,2.2-0.7V31.5z M20.7,26.8 c-0.8,0.2-1.5,0.4-2.2,0.7v-3.6c0.7-0.3,1.5-0.6,2.2-0.7V26.8z M20.7,22.2c-0.8,0.2-1.5,0.4-2.2,0.7v-3.6c0.7-0.3,1.5-0.6,2.2-0.7 V22.2z M24.6,38.4h-2.9v-6.1c1-0.2,1.9-0.3,2.9-0.4V38.4z M24.6,30.9c-1,0.1-1.9,0.2-2.9,0.4v-3.7c1-0.2,1.9-0.3,2.9-0.4V30.9z M24.6,26.3c-1,0.1-1.9,0.2-2.9,0.4V23c1-0.2,1.9-0.3,2.9-0.4V26.3z M24.6,21.7c-1,0.1-1.9,0.2-2.9,0.4v-3.7 c1-0.2,1.9-0.3,2.9-0.4V21.7z M28.4,38.4h-2.9v-6.6c0.5,0,1,0,1.5,0s1,0,1.4,0V38.4z M28.4,30.9c-0.5,0-1,0-1.4,0 c-0.5,0-1,0-1.5,0v-3.7c0.5,0,1,0,1.5,0s1,0,1.4,0V30.9z M28.4,26.2c-0.5,0-1,0-1.4,0c-0.5,0-1,0-1.5,0v-3.7c0.5,0,1,0,1.5,0 s1,0,1.4,0V26.2z M28.4,21.6c-0.5,0-1,0-1.4,0c-0.5,0-1,0-1.5,0v-3.7c0.5,0,1,0,1.5,0s1,0,1.4,0V21.6z M32.2,38.4h-2.9v-6.5 c1,0.1,1.9,0.2,2.9,0.4V38.4z"></path> <path class="st1" d="M41,29.3l0.9-3.7c0-0.1,0-0.3-0.1-0.4c-0.1-0.1-0.2-0.2-0.4-0.2h-7.9l-0.2-1.5c0-0.2-0.1-0.3-0.3-0.4 l-1.9-0.8c-0.2-0.1-0.5,0-0.6,0.2c-0.1,0.2,0,0.5,0.2,0.6c0,0,0.1,0,0.1,0l1.6,0.7l1.1,7.2c0,0.2,0.2,0.4,0.5,0.4h7 c0.3,0,0.5-0.1,0.5-0.4c0-0.3-0.1-0.5-0.4-0.5c0,0-0.1,0-0.1,0h-6.6l-0.2-0.9h6.2C40.7,29.7,40.9,29.5,41,29.3 M37.7,26h3.2 l-0.2,0.9h-2.9V26z M36.7,28.7h-2.6L34,27.8h2.7V28.7z M36.7,26.9h-2.8L33.8,26h2.9L36.7,26.9z M40.2,28.7h-2.5v-0.9h2.7 L40.2,28.7z"></path> </g> </g> </svg> 