<?xml version="1.0" encoding="UTF-8"?> <!-- Generator: Adobe Illustrator 24.0.0, SVG Export Plug-In . SVG Version: 6.00 Build 0) --> <svg xmlns="http://www.w3.org/2000/svg" xmlns:xlink="http://www.w3.org/1999/xlink" id="Слой_1" x="0px" y="0px" viewBox="0 0 51.5 52.7" style="enable-background:new 0 0 51.5 52.7;" xml:space="preserve"> <style type="text/css"> .st0{display:none;} .st1{display:inline;} .st2{fill:none;stroke:#D6B180;stroke-width:0.53;stroke-miterlimit:10;} .st3{display:none;fill:#D6B180;stroke:#D6B180;stroke-miterlimit:10;} .st4{display:inline;clip-path:url(#SVGID_2_);fill:#D6B180;} .st5{fill:none;stroke:#D6B180;stroke-width:0.529;stroke-miterlimit:10;} .st6{fill:#D6B180;} </style> <title>Ресурс 1</title> <g id="Слой_2_1_" class="st0"> <g id="Слой_1-2" class="st1"> <path class="st2" d="M51.2,26.3c0,14.4-11.4,26.1-25.5,26.1S0.3,40.7,0.3,26.3S11.7,0.3,25.8,0.3S51.2,11.9,51.2,26.3"></path> <path class="st3" d="M23.8,14.2l-0.1,0.7c0,0.2-0.1,0.5-0.1,0.7l0,0c-0.1-0.2-0.2-0.5-0.3-0.7L23,14.3l-0.6,0.1l0.1,2l0.4-0.1 l-0.1-0.8c0-0.2,0-0.6-0.1-0.8l0,0c0.1,0.2,0.2,0.5,0.3,0.8l0.3,0.7h0.4l0.1-0.8c0-0.2,0.1-0.5,0.1-0.8l0,0c0,0.3,0.1,0.6,0.1,0.8 l0.1,0.8l0.4-0.1l-0.4-2L23.8,14.2z"></path> <path class="st3" d="M26.7,14.1h-0.6l-0.6,2h0.5l0.1-0.5h0.6l0.1,0.5h0.5L26.7,14.1z M26.1,15.2l0.1-0.4c0-0.1,0.1-0.3,0.1-0.4 l0,0c0,0.1,0.1,0.3,0.1,0.4l0.1,0.4H26.1z"></path> <polygon class="st3" points="29.4,15.7 28.6,15.7 28.7,14.1 28.2,14 28.1,16 29.3,16.1 "></polygon> <polygon class="st3" points="31.4,15.9 30.6,15.9 30.8,14.2 30.4,14.2 30.1,16.2 31.4,16.3 "></polygon> <path class="st3" d="M36.2,33.3c0,0.7-0.6,1.2-1.3,1.2c-0.7,0-1.2-0.6-1.2-1.3c0-0.7,0.6-1.2,1.2-1.2C35.6,32,36.2,32.6,36.2,33.3 "></path> <path class="st3" d="M41,33.3c0,0.7-0.6,1.2-1.3,1.2c-0.7,0-1.2-0.6-1.2-1.3c0-0.7,0.6-1.2,1.3-1.2C40.5,32,41,32.6,41,33.3 C41,33.3,41,33.3,41,33.3"></path> <path class="st3" d="M35.4,38.4h-2.2v-3.5c-0.4-0.4-0.6-1-0.6-1.6c0-0.4,0.1-0.8,0.3-1.1c-0.2-0.2-0.3-0.5-0.4-0.9h-0.2 c-1-0.2-1.9-0.3-2.9-0.4v-3.7c0.9,0.1,1.7,0.2,2.5,0.3l-0.1-1c-0.8-0.1-1.5-0.2-2.4-0.3v-3.7l0,0c0.1-0.3,0.2-0.7,0.5-0.9h-0.5V18 c1,0.1,1.9,0.2,2.9,0.4v3.2l0.9,0.4v-3.4c0.8,0.2,1.5,0.4,2.2,0.7v3.6c-0.5-0.2-0.9-0.3-1.4-0.5c0.2,0.2,0.4,0.6,0.5,0.9v0.2 c0.3,0.1,0.6,0.2,0.8,0.3h1v-9.5c0-0.2-0.1-0.4-0.2-0.5c-2-1-5.4-1.6-9.1-1.6s-7.1,0.6-9.1,1.6c-0.2,0.1-0.3,0.3-0.2,0.5v4.5 c0,0,0,0.1,0,0.1v4.5c0,0,0,0.1,0,0.1v4.2l-7,2.5c-0.2,0.1-0.3,0.3-0.3,0.5v8c0,0.3,0.2,0.5,0.5,0.5c0,0,0,0,0,0h25.3 c0.3,0,0.5-0.2,0.5-0.5c0,0,0,0,0,0v-3.6c-0.3,0.2-0.6,0.3-0.9,0.4L35.4,38.4z M13.8,38.4h-2.8V35l2.8-0.6V38.4z M13.8,33.4 L11.1,34v-2.8l2.8-1V33.4z M17.5,38.4h-2.8v-4.3l2.8-0.6V38.4z M17.5,32.5l-2.8,0.6v-3.3l2.8-1V32.5z M18.5,14.6 c2.7-1,5.6-1.5,8.5-1.4c2.9-0.1,5.8,0.4,8.5,1.4v3.6c-2.7-0.9-5.6-1.4-8.5-1.3c-2.9-0.1-5.7,0.4-8.5,1.3V14.6z M20.7,38.4h-2.3 v-5.2c0.7-0.3,1.5-0.6,2.2-0.7L20.7,38.4z M20.7,31.5c-0.8,0.2-1.5,0.4-2.2,0.7v-3.6c0.7-0.3,1.5-0.6,2.2-0.7V31.5z M20.7,26.8 c-0.8,0.2-1.5,0.4-2.2,0.7v-3.6c0.7-0.3,1.5-0.6,2.2-0.7V26.8z M20.7,22.2c-0.8,0.2-1.5,0.4-2.2,0.7v-3.6c0.7-0.3,1.5-0.6,2.2-0.7 V22.2z M24.6,38.4h-2.9v-6.1c1-0.2,1.9-0.3,2.9-0.4V38.4z M24.6,30.9c-1,0.1-1.9,0.2-2.9,0.4v-3.7c1-0.2,1.9-0.3,2.9-0.4V30.9z M24.6,26.3c-1,0.1-1.9,0.2-2.9,0.4V23c1-0.2,1.9-0.3,2.9-0.4V26.3z M24.6,21.7c-1,0.1-1.9,0.2-2.9,0.4v-3.7 c1-0.2,1.9-0.3,2.9-0.4V21.7z M28.4,38.4h-2.9v-6.6c0.5,0,1,0,1.5,0s1,0,1.4,0V38.4z M28.4,30.9c-0.5,0-1,0-1.4,0 c-0.5,0-1,0-1.5,0v-3.7c0.5,0,1,0,1.5,0s1,0,1.4,0V30.9z M28.4,26.2c-0.5,0-1,0-1.4,0c-0.5,0-1,0-1.5,0v-3.7c0.5,0,1,0,1.5,0 s1,0,1.4,0V26.2z M28.4,21.6c-0.5,0-1,0-1.4,0c-0.5,0-1,0-1.5,0v-3.7c0.5,0,1,0,1.5,0s1,0,1.4,0V21.6z M32.2,38.4h-2.9v-6.5 c1,0.1,1.9,0.2,2.9,0.4V38.4z"></path> <path class="st3" d="M41,29.3l0.9-3.7c0-0.1,0-0.3-0.1-0.4c-0.1-0.1-0.2-0.2-0.4-0.2h-7.9l-0.2-1.5c0-0.2-0.1-0.3-0.3-0.4 l-1.9-0.8c-0.2-0.1-0.5,0-0.6,0.2c-0.1,0.2,0,0.5,0.2,0.6c0,0,0.1,0,0.1,0l1.6,0.7l1.1,7.2c0,0.2,0.2,0.4,0.5,0.4h7 c0.3,0,0.5-0.1,0.5-0.4c0-0.3-0.1-0.5-0.4-0.5c0,0-0.1,0-0.1,0h-6.6l-0.2-0.9h6.2C40.7,29.7,40.9,29.5,41,29.3 M37.7,26h3.2 l-0.2,0.9h-2.9V26z M36.7,28.7h-2.6L34,27.8h2.7V28.7z M36.7,26.9h-2.8L33.8,26h2.9L36.7,26.9z M40.2,28.7h-2.5v-0.9h2.7 L40.2,28.7z"></path> </g> </g> <g class="st0"> <defs> <path id="SVGID_1_" d="M5.9,27c0,11,8.8,20,19.6,20S45,38,45,27c0-11.1-8.8-20-19.6-20S5.9,15.9,5.9,27"></path> </defs> <clipPath id="SVGID_2_" class="st1"> <use xlink:href="#SVGID_1_" style="overflow:visible;"></use> </clipPath> <path class="st4" d="M51.6,35.7v-3.5h-3.2v4.6l-1,0.7v-2h-1.2v-4.8V30h-3.2v0.8h-0.7v3.8h-0.3v-0.8l-3.5-1.6V37l-1.7-1.7v1.1 l-0.2,0.1V22h-0.2v-7h-0.3v-1.5h-0.4v-0.9h-0.3v-0.9h-0.6v-0.7h-0.5v-2h-0.1v2h-0.5v0.7h-0.6v0.9h-0.3v0.9h-0.4v1.5h-0.3v0.5v0.3v1 v2v3.1h0v1h-0.2v6.9v0.9v1v0.9v2.7l-1-0.4v-2.4v-0.9v-1v-0.9v-6.9h-0.2v-1V21v-2.3v-2v-1v-0.3v-0.5h-0.3v-1.5h-0.4v-0.9h-0.3v-0.9 H29v-0.7h-0.5v-2h-0.1v2h-0.5v0.7h-0.6v0.9H27v0.9h-0.4v1.5h-0.3v7h-0.2v9.9h-0.1v4.7l-0.5-0.2v-2.2h-0.8V35h-0.9l-0.6,1.8v0.5 h-0.6v-4l-1.3-1.9v-4.1l-5.6-2v-0.4l2.7,1v-4.5h-0.7v-1.3v-0.4v-1.4h-0.7l-0.1-1.2l-0.1,1.2h-0.7v1.4h-1.7v1.8h-3.1v13.4h-0.7v0.8 H9.5v-3.5H6.3v4.6l-1,0.7v-2H4.1v-4.8V30H0.9v0.8H0.2v3.8H0v-0.8l-3.5-1.6V37l-1.7-1.7v1.1L-6,36.8v1h-0.7v1.6h-0.6v-5h-0.3v-0.7 h-0.7l-1.1-1.5v1.5v0.7v0.9v0.5v3.5l-0.7-0.3v-3.8l-1.8-0.7v5.5l-7.7,0.7h7.7h10.6h1.6H2l25.1,9.5L43,46l1.2-5.3h8.3v-5H51.6z M15.9,22h0.4v0.4h-0.4V22z M12.2,24.1h-0.4v-0.4h0.4V24.1z M12.2,23.3h-0.4v-0.4h0.4V23.3z M12.2,22.5h-0.4V22h0.4V22.5z M13,23.3 h-0.4v-0.4H13V23.3z M13,22.5h-0.4V22H13V22.5z M13.9,23.3h-0.4v-0.4h0.4V23.3z M13.9,22.5h-0.4V22h0.4V22.5z M14.7,23.3h-0.4v-0.4 h0.4V23.3z M14.7,22.5h-0.4V22h0.4V22.5z M15.5,22.5h-0.4V22h0.4V22.5z M16.6,34.3h-0.3v-7.7l0.3,0.1V34.3z M17.5,34.3h-0.3v-7.4 l0.3,0.1V34.3z M18.3,33.4H18v-6.3l0.3,0.1V33.4z M19.1,33.4h-0.3v-6l0.3,0.1V33.4z M20,36L20,36l0-1.7h-0.3v-0.9v-5.7l0.3,0.1V36z M20.8,36h-0.3v-8l0.3,0.1V36z"></path> </g> <g> <path class="st5" d="M51.5,26.4c0,14.4-11.4,26.1-25.5,26.1c-14.1,0-25.5-11.7-25.5-26.1S11.9,0.3,26,0.3 C40.1,0.3,51.5,12,51.5,26.4"></path> <path class="st6" d="M20.8,8.8h1.9c1.3,0,2.3,1,2.3,2.3v3h2.2v-3c0-1.3,1-2.3,2.3-2.3c1.1,0,2.1,0.8,2.3,1.9c1,5.5,2,11.1,3,16.6 c0.3,1.4-0.8,2.7-2.3,2.7h-3c-1.3,0-2.3-1-2.3-2.3v-3.4h-2.2v3.4c0,1.3-1,2.3-2.3,2.3h-3c-1.4,0-2.5-1.3-2.3-2.7 C18.6,21.1,19.7,14.9,20.8,8.8 M27.2,16.3h-2.1v6.2h2.1V16.3z"></path> <path class="st6" d="M34.6,43.1l-8.4,2.4c-0.1,0-0.3,0-0.4,0l-8.4-2.4C17.2,43,17,42.7,17,42.4v-9.7c0-0.4,0.3-0.7,0.7-0.7h16.7 c0.4,0,0.7,0.3,0.7,0.7v9.7C35.1,42.7,34.9,43,34.6,43.1 M20.5,40.8h3.6v-0.7h-2.8v-1.8h2v-0.7h-2V36h2.6v-0.7h-3.4V40.8z M25.6,40.8h2.5v-0.7h-0.9v-4.6h-0.7l-1.4,0.8l0.3,0.6l1.1-0.6v3.8h-0.9V40.8z M30,40.8h2.5v-0.7h-0.9v-4.6H31l-1.4,0.8l0.3,0.6 l1.1-0.6v3.8H30V40.8z"></path> </g> </svg> 