<?xml version="1.0" encoding="UTF-8"?> <svg xmlns="http://www.w3.org/2000/svg" viewBox="0 0 379.04 101.18"> <title>bvlgari</title> <g id="Layer_2" data-name="Layer 2"> <g id="Layer_1-2" data-name="Layer 1"> <path d="M307.49,3.61v15h9.67c7.63,0,11.23-2.86,11.23-7.59S324.89,3.61,317,3.61Zm15.16,17.22c4.36.37,5.41,1.52,7.1,4.15l3.6,6.55c1.88,2.7,3.46,4.15,7.14,4.15v.93h-4.57c-2.07,0-6,.24-8.26-2.37l-4.76-7.58c-1.68-2.24-2.19-4.05-7.74-4.05h-8.67V32.8s1.56,2.56,3.07,2.81h.93v1h-13v-1h1.2c1.51-.25,1.8-2.81,1.8-2.81V5.24s-.29-2.56-1.8-2.63h-1.2v-1h21.24c12.1,0,15.48,4.95,15.48,9.72,0,5.4-4.26,8.57-11.31,9.74" style="fill:#8b7053"></path> <path d="M374.49,5.19c0-1.87.78-2.58,2.22-2.58h.78v-1h-13v1h.78c1.45,0,2.22.71,2.22,2.58V33c0,1.87-.77,2.59-2.22,2.59h-.78v1h13v-1h-.78c-1.44,0-2.22-.72-2.22-2.59Z" style="fill:#8b7053"></path> <path d="M3.49,33c0,1.87-.77,2.59-2.22,2.59H.49v1H25c9.78,0,15.38-3.17,15.38-9.88,0-5-3.17-8.06-11-9,3.8-1,7.18-3.64,7.18-7.74,0-5.94-5.94-8.36-13.82-8.36H.49v1h.78c1.45,0,2.22.71,2.22,2.58Zm6-28.41H19.91C27.68,4.61,30.3,6.29,30.3,10S28,16.61,19.55,16.61H9.49ZM22.3,19.82c7.75,0,9.77,3.17,9.77,7,0,3.55-1.14,5.94-9.95,5.94H9.37V19.82Z" style="fill:#8b7053"></path> <path d="M132.49,1.61v1h-.78c-1.44,0-2.22.71-2.22,2.56V32.61h17.2A7.67,7.67,0,0,0,153,28.74l1.19.47-3.51,7.4-30.23,0v-1h.79c1.44,0,2.21-.71,2.21-2.59V5.19c0-1.87-.77-2.58-2.21-2.58h-.79v-1Z" style="fill:#8b7053"></path> <path d="M100.49,1.61v1h-.81c-1.84,0-2.05,1-2.85,2.45L80.68,36.61H75.5L59.16,5.07c-.8-1.49-1-2.46-2.85-2.46h-.82v-1h13v1h-1s-2.4,1.25-1.6,2.83L79.16,30.92l13-25.48c.8-1.58.13-2.76-1.59-2.83H89.49v-1Z" style="fill:#8b7053"></path> <path d="M217.49,19.61v1H215.8c-1.5,0-2.31.71-2.31,2.56v6.54c-2.19,3.67-9.19,7.59-19.88,7.59-15.14,0-24.79-8.41-24.79-18.8,0-8.58,9.08-18.5,24.55-18.5a33.56,33.56,0,0,1,16.9,4.25c0,.13,1.87,7.87,1.87,7.88s-1.34.51-1.34.51-4.05-9.7-16.68-9.74c-10.89,0-18.33,7.89-18.33,15.62,0,8.53,7.33,15.56,18.33,15.52,6.87,0,13.38-3.6,13.36-6.2l0-4.67c0-1.85-.81-2.56-2.3-2.56h-1.72v-1Z" style="fill:#8b7053"></path> <path d="M262.24,23.61,253.68,7.06v0l-8.28,16.53Zm15.25,12v1h-13v-1h.8c1.69,0,2.34-1.15,1.56-2.69l-3-5.31H243.54l-2.76,5.31c-.78,1.54-.13,2.69,1.55,2.69h.16v1h-11v-1h.83c1.29,0,1.89-.47,2.63-1.85L252,1.61h4.78l16.94,31.51c.12.23.24.44.36.64.74,1.38,1.34,1.85,2.63,1.85Z" style="fill:#8b7053"></path> <text transform="translate(0 64.67)" style="font-size:20.5px;fill:#8b7053;font-family:GillSans-SemiBold, Gill Sans;font-weight:600;letter-spacing:0.40901295731707316em">R<tspan x="21.59" y="0" style="letter-spacing:0.41001333841463417em">E</tspan><tspan x="41.69" y="0" style="letter-spacing:0.4089891387195122em">SO</tspan><tspan x="86.82" y="0" style="letter-spacing:0.35999428353658536em">R</tspan><tspan x="107.4" y="0" style="letter-spacing:0.4089891387195122em">T</tspan><tspan x="129.44" y="0" xml:space="preserve" style="letter-spacing:0.41001333841463417em"> &amp; </tspan><tspan x="180.25" y="0" style="letter-spacing:0.4089891387195122em">R</tspan><tspan x="201.84" y="0" style="letter-spacing:0.41001333841463417em">E</tspan><tspan x="221.94" y="0" style="letter-spacing:0.4089891387195122em">SI</tspan><tspan x="255.57" y="0" style="letter-spacing:0.4099657012195122em">DEN</tspan><tspan x="324.73" y="0">C</tspan><tspan x="347.98" y="0" style="letter-spacing:0.41001333841463417em">E</tspan><tspan x="368.08" y="0" style="letter-spacing:0.00004763719512195122em">S</tspan></text> <text transform="translate(139.09 96.05)" style="font-size:20.5px;fill:#8b7053;font-family:GillSans-SemiBold, Gill Sans;font-weight:600"> <tspan style="letter-spacing:0.40998951981707316em">D</tspan> <tspan x="24.25" y="0" style="letter-spacing:0.4089891387195122em">U</tspan> <tspan x="48.28" y="0" style="letter-spacing:0.40998951981707316em">B</tspan> <tspan x="69.56" y="0" style="letter-spacing:0.4089891387195122em">A</tspan> <tspan x="92.85" y="0">I</tspan> </text> </g> </g> </svg> 