<?xml version="1.0" encoding="UTF-8"?> <svg xmlns="http://www.w3.org/2000/svg" viewBox="0 0 173.48 79.14"> <title>la-mer-maisons</title> <g id="Layer_2" data-name="Layer 2"> <g id="Layer_1-2" data-name="Layer 1"> <path d="M90.78,78.86v-.35h-.66a1.68,1.68,0,0,1-.5-.07.93.93,0,0,1-.41-.2.56.56,0,0,1-.19-.38,1.76,1.76,0,0,1,0-.42V67l.17,0,4.11,11.63c.67-1.9,1.33-3.79,2-5.69s1.29-3.79,1.94-5.69l.16,0,0,11.2H96.15v.37H101v-.35H99.86V65.24H101v-.36H97.55l-3.27,9.46L91,64.88H87v.36h1.53a2,2,0,0,1,.07.6c0,.37,0,.85,0,1.43s0,1.26,0,2,0,1.51,0,2.28v2.1c0,.7,0,1.32,0,1.89s0,1,0,1.45,0,.66,0,.78c0,.38-.2.6-.47.65a3.83,3.83,0,0,1-.93.07h-.25v.37Z" style="fill:#005d6b"></path> <path d="M102.14,78.51a3.22,3.22,0,0,0,.76-.07,1.08,1.08,0,0,0,.48-.23,1.12,1.12,0,0,0,.31-.49c.09-.22.19-.49.3-.83.6-2,1.21-4.07,1.82-6.11s1.23-4.07,1.85-6.11h.71l4.46,13.84h.92v.35h-5v-.35h1.4l-1.34-4.22h-3.65l-.14.42c-.08.21-.16.48-.26.8s-.19.64-.28,1l-.24.88a2.81,2.81,0,0,0-.11.55.43.43,0,0,0,.2.38,1.36,1.36,0,0,0,.48.17,2.51,2.51,0,0,0,.55.06h.49v.35h-3.71Zm3.13-4.57h3.43l-1.76-5.49Z" style="fill:#005d6b"></path> <polygon points="114.97 64.88 120.19 64.88 120.19 65.24 118.68 65.24 118.68 78.51 120.19 78.51 120.19 78.86 114.97 78.86 114.97 78.51 116.29 78.51 116.29 65.24 114.97 65.24 114.97 64.88" style="fill:#005d6b"></polygon> <path d="M122.68,73.87H123a9.11,9.11,0,0,0,.33,1.94,4.56,4.56,0,0,0,.73,1.5,3.13,3.13,0,0,0,1.18,1,3.85,3.85,0,0,0,1.7.34,3,3,0,0,0,1.1-.19,2.12,2.12,0,0,0,.82-.53,1.9,1.9,0,0,0,.44-.83,2.22,2.22,0,0,0,0-1,1.65,1.65,0,0,0-.8-1q-.65-.37-1.5-.78c-.49-.22-1-.47-1.5-.73a6.57,6.57,0,0,1-1.41-1A4.48,4.48,0,0,1,123,71.11a4.59,4.59,0,0,1-.41-2.06c0-.12,0-.26,0-.42a3.8,3.8,0,0,1,0-.46,4,4,0,0,1,1.15-2.52,3.92,3.92,0,0,1,2.5-.91,3,3,0,0,1,1.46.27,6.26,6.26,0,0,1,1,.56,1,1,0,0,0,.59.3.33.33,0,0,0,.35-.29,2.46,2.46,0,0,0,.06-.53h.34v4.21h-.36a10.92,10.92,0,0,0-.39-1.68,4.4,4.4,0,0,0-.66-1.3,2.84,2.84,0,0,0-1-.83,3,3,0,0,0-1.4-.29,3.6,3.6,0,0,0-1,.14,2.4,2.4,0,0,0-.87.45,2,2,0,0,0-.57.79,2.72,2.72,0,0,0-.16,1.15,2.17,2.17,0,0,0,.3,1,2.57,2.57,0,0,0,.65.71,4.36,4.36,0,0,0,.9.53c.33.16.68.3,1,.44s.92.39,1.39.62a6.24,6.24,0,0,1,1.3.86,4.35,4.35,0,0,1,1.52,3,4.48,4.48,0,0,1-.24,1.75,4.13,4.13,0,0,1-.8,1.35,3.36,3.36,0,0,1-1.23.87,4.11,4.11,0,0,1-1.57.31,4,4,0,0,1-1.44-.25,10.75,10.75,0,0,1-1.09-.47,4.21,4.21,0,0,0-.47-.24,1.14,1.14,0,0,0-.43-.09c-.16,0-.26.11-.33.33A3.13,3.13,0,0,0,123,79h-.32Z" style="fill:#005d6b"></path> <path d="M138.61,64.61a3.92,3.92,0,0,1,2.19.64,6,6,0,0,1,1.72,1.68,8.17,8.17,0,0,1,1.12,2.34,8.89,8.89,0,0,1,.4,2.63,8.69,8.69,0,0,1-.4,2.63,8,8,0,0,1-1.12,2.31,6,6,0,0,1-1.72,1.65,4.07,4.07,0,0,1-2.19.62,4,4,0,0,1-2.22-.64,5.85,5.85,0,0,1-1.72-1.68,8.91,8.91,0,0,1-1.11-2.37,9.46,9.46,0,0,1-.4-2.68,8.39,8.39,0,0,1,1.61-4.87,6.47,6.47,0,0,1,1.72-1.63,3.89,3.89,0,0,1,2.12-.63m0,.34a1.93,1.93,0,0,0-1.15.34,3.06,3.06,0,0,0-.82.92,5.62,5.62,0,0,0-.53,1.3,14.59,14.59,0,0,0-.32,1.49c-.07.51-.12,1-.15,1.51s0,.94,0,1.33,0,.86,0,1.35.06,1,.13,1.51a12.44,12.44,0,0,0,.3,1.5,5,5,0,0,0,.51,1.31,2.8,2.8,0,0,0,.81.92,2,2,0,0,0,1.17.35,1.89,1.89,0,0,0,1.17-.36,2.79,2.79,0,0,0,.8-.93,4.89,4.89,0,0,0,.48-1.32,12.85,12.85,0,0,0,.25-1.51c.06-.51.09-1,.11-1.51s0-.94,0-1.33,0-.76,0-1.24-.07-1-.14-1.46-.16-1-.28-1.51a5.41,5.41,0,0,0-.49-1.34,3.2,3.2,0,0,0-.76-1,1.63,1.63,0,0,0-1.07-.36" style="fill:#005d6b"></path> <path d="M146.05,78.51a8.63,8.63,0,0,0,1,0,.73.73,0,0,0,.51-.21.93.93,0,0,0,.19-.54c0-.24,0-.6,0-1.06V65.51l-.27-.27h-1.45v-.36h4.21l6.08,10V67c0-.45,0-.79,0-1a.88.88,0,0,0-.16-.51.45.45,0,0,0-.36-.18l-.66,0h-.46v-.36h3.79v.36H158l-.67,0a.48.48,0,0,0-.38.18,1,1,0,0,0-.16.51c0,.24,0,.58,0,1V79h-1.05l-7.52-12.45V76.3c0,.56,0,1,0,1.29a1.07,1.07,0,0,0,.18.65.65.65,0,0,0,.51.23,9.08,9.08,0,0,0,1,0v.35h-3.86Z" style="fill:#005d6b"></path> <path d="M160.64,73.87H161a9.76,9.76,0,0,0,.34,1.94,4.75,4.75,0,0,0,.72,1.5,3.24,3.24,0,0,0,1.19,1,3.83,3.83,0,0,0,1.69.34,2.92,2.92,0,0,0,1.1-.19,2,2,0,0,0,.82-.53,1.72,1.72,0,0,0,.44-.83,2.09,2.09,0,0,0,0-1,1.63,1.63,0,0,0-.81-1q-.63-.37-1.5-.78c-.48-.22-1-.47-1.49-.73a6.63,6.63,0,0,1-1.42-1,4.8,4.8,0,0,1-1.06-1.43,4.73,4.73,0,0,1-.41-2.06c0-.12,0-.26,0-.42a3.87,3.87,0,0,1,.06-.46,4,4,0,0,1,1.15-2.52,3.92,3.92,0,0,1,2.49-.91,3,3,0,0,1,1.47.27,7.39,7.39,0,0,1,1,.56,1,1,0,0,0,.58.3.33.33,0,0,0,.36-.29,2.46,2.46,0,0,0,.06-.53H168v4.21h-.36a10.9,10.9,0,0,0-.4-1.68,4.4,4.4,0,0,0-.66-1.3,2.72,2.72,0,0,0-1-.83,3.06,3.06,0,0,0-1.41-.29,3.69,3.69,0,0,0-1,.14,2.57,2.57,0,0,0-.87.45,2.07,2.07,0,0,0-.56.79,2.57,2.57,0,0,0-.16,1.15,2.3,2.3,0,0,0,.29,1,2.74,2.74,0,0,0,.65.71,4.72,4.72,0,0,0,.91.53c.33.16.68.3,1,.44s.93.39,1.4.62a6.24,6.24,0,0,1,1.3.86,4.45,4.45,0,0,1,1.52,3,4.88,4.88,0,0,1-.24,1.75,4.13,4.13,0,0,1-.8,1.35,3.4,3.4,0,0,1-1.24.87,4.17,4.17,0,0,1-3,.06,9.85,9.85,0,0,1-1.09-.47,3.57,3.57,0,0,0-.48-.24,1.11,1.11,0,0,0-.43-.09c-.15,0-.26.11-.32.33A4.41,4.41,0,0,0,161,79h-.31Z" style="fill:#005d6b"></path> <path d="M115.51,41.23a26.63,26.63,0,0,0-11.76,3.57l2.75-3.7a11.11,11.11,0,0,0,1.22-4v-1.4c-.22-.9-1.29-1.64-3.19-2.24a5.15,5.15,0,0,1-2.3.89q-4.87,3.48-24.7,15.52l.35-2.55c2.08-3.75,4.88-9.3,7-13,.49-.88-.54-2.12-1.46-1.47L73.3,40c-1.11.79,0,2.65,1.09,1.85l6.32-4.47c-2.66,4.79-6,11.39-8.69,16.18v0L71.14,55v1.4a.8.8,0,0,0,.9.9h1.4q9.69-8.3,29.24-20.11h1.4V38a20.32,20.32,0,0,0-1.54,2.55c-.77,1.44-1.28,3-1.91,4.52-.5,1.21-1.67,2.61-.57,3.78a1.05,1.05,0,0,0,1,.26,22.38,22.38,0,0,0,3.56-1.9,45.4,45.4,0,0,1,9.44-2.82q3.75,0,7.33,4.59l.9-.44q-1.52-7.35-6.83-7.34" style="fill:#231f20"></path> <path d="M144.36,54.34a34.89,34.89,0,0,0-3.87.84h-4.31a11.12,11.12,0,0,1-8.69-3.48c0-3,1.12-5.19,3.37-6.49.48.85,1,1.28,1.45,1.28h.95q9.26-2.85,15.91-12.21c0-.86-.32-1.29-.95-1.29a41.36,41.36,0,0,0-5.32.45Q123.63,43.7,123.63,50.86a3.86,3.86,0,0,1,.5,2.19,14,14,0,0,0,7.23,4.76q10.08-.9,12.49-2.19,0,.45.51.45h.44l1-.45c-.52-.85-1-1.28-1.45-1.28m-3.37-17h1.4q-1.62,2.69-8.62,6.5a.94.94,0,0,1-1-.84A64.32,64.32,0,0,1,141,37.36" style="fill:#231f20"></path> <path d="M173.48,36l-.61-1.17q-4.65,1.07-4.65,2.35-5.17.88-12,6.9l3.61-7.1a1.1,1.1,0,0,0-.64-1.58,5,5,0,0,0-5.83,2c-.79,1.13,1.07,2.2,1.85,1.08a2.73,2.73,0,0,1,2.06-1.21q-2.89,5.69-5.77,11.37C150,50.24,148.36,52,146.71,54v1.18l1.17,1.73a8.81,8.81,0,0,0,5.83-2.35,4.09,4.09,0,0,0-.62-1.74,4,4,0,0,0,1.18-2.29Q158.19,46.6,173.48,36" style="fill:#231f20"></path> <path d="M45.54,59.54h-.45c-.48,0-1.06-1.06-1.73-3.19a63.27,63.27,0,0,0,.84-9.69v-.5c-.23-1.09-1.24-2-3-2.69a12.21,12.21,0,0,1-1.73.5q-9.19,6.11-13,8.07H23c-.49,0-.77-.36-.84-1.06V49.91A39,39,0,0,1,37.7,36V35.7a23.83,23.83,0,0,1,4.81-2.09c1.32-.39,3.08-.7,3.56,1.1.34,1.28-1.66,2.72-2.48,3.35-1.08.82,0,2.69,1.09,1.85,2.31-1.77,5.7-6,1.83-8.26-3.06-1.79-7.8.87-10.78,2.69h-.61Q18.2,43.7,18.21,51.54a5.22,5.22,0,0,0,.6,2.5l-1.95.41H12.55l-1,.5q-7.23-1.74-7.23-7.22Q4.31,44,17.37,26,28.9,7.84,36.63,1c0-.52-.31-.84-1-.95a3.92,3.92,0,0,1-2.41,1q-10.7,10.43-14.5,18.32Q0,44,0,49.13a3.47,3.47,0,0,1,.51,1.45c1.15,4.19,4.2,6.28,9.12,6.28H13.5a26.94,26.94,0,0,0,6.06-1.78,8.06,8.06,0,0,0,2.57,1.78,2.92,2.92,0,0,1,1.73-.51h3q12.77-8.06,13.44-8.06h.84q0,.66-.84,8.06,0,4.09,4.32,6.44a2.64,2.64,0,0,0,1.28-.56c0,.38.15.56.45.56,2.32-1.38,3.47-2.27,3.47-2.68v-.57l-.44-1.06a13.42,13.42,0,0,1-3.87,1.06" style="fill:#231f20"></path> </g> </g> </svg> 