<?xml version="1.0" encoding="UTF-8"?> <svg xmlns="http://www.w3.org/2000/svg" xmlns:xlink="http://www.w3.org/1999/xlink" viewBox="0 0 238.08 125.3" id="Contentpage_projectlogo" class="img-responsive PJ-fill-black project-fancyname svg-img replaced-svg replaced-svg"> <defs> <clipPath id="a" transform="translate(-313.1 -374.36)"> <rect x="313.1" y="373" width="238.08" height="87.69" fill="none"></rect> </clipPath> <linearGradient id="b" x1="408.18" y1="395.98" x2="457.89" y2="395.98" gradientUnits="userSpaceOnUse"> <stop offset="0" stop-color="#f4b891"></stop> <stop offset="0.18" stop-color="#e0b8a0"></stop> <stop offset="0.26" stop-color="#d5a58c"></stop> <stop offset="0.38" stop-color="#c78a71"></stop> <stop offset="0.41" stop-color="#be836b"></stop> <stop offset="0.53" stop-color="#a46c59"></stop> <stop offset="0.6" stop-color="#9a6452"></stop> <stop offset="0.67" stop-color="#9e6755"></stop> <stop offset="0.74" stop-color="#aa715c"></stop> <stop offset="0.81" stop-color="#bd8269"></stop> <stop offset="0.87" stop-color="#d19275"></stop> <stop offset="1" stop-color="#e0b8a0"></stop> </linearGradient> </defs> <title>La-quinta-new-logo</title> <path d="M313.1,460.69H551.18v-2.76H313.1v2.76Zm0-43.05h83.85v-2.76H313.1v2.76Zm154.24,0h83.85v-2.76H467.33v2.76Z" transform="translate(-313.1 -374.36)" fill="#004650"></path> <g clip-path="url(#a)"> <path d="M320.12,427.54a0.59,0.59,0,0,1,.57-0.87h3.43a0.62,0.62,0,0,1,.57.37l6.45,14.45h0.24L337.83,427a0.62,0.62,0,0,1,.57-0.37h3.43a0.59,0.59,0,0,1,.57.87L332,450.15a0.61,0.61,0,0,1-.57.37h-0.34a0.61,0.61,0,0,1-.57-0.37Z" transform="translate(-313.1 -374.36)" fill="#004650"></path> <rect x="37.4" y="52.3" width="4.4" height="23.52" rx="0.64" ry="0.64" fill="#004650"></rect> <path d="M366.05,427.31a0.64,0.64,0,0,1,.64-0.64h3.09a0.66,0.66,0,0,1,.64.64v18.85H379a0.64,0.64,0,0,1,.64.64v2.76a0.64,0.64,0,0,1-.64.64h-12.3a0.64,0.64,0,0,1-.64-0.64V427.31Z" transform="translate(-313.1 -374.36)" fill="#004650"></path> <path d="M388.06,427.31a0.64,0.64,0,0,1,.64-0.64h3.09a0.66,0.66,0,0,1,.64.64v18.85H401a0.64,0.64,0,0,1,.64.64v2.76a0.64,0.64,0,0,1-.64.64H388.7a0.64,0.64,0,0,1-.64-0.64V427.31Z" transform="translate(-313.1 -374.36)" fill="#004650"></path> <path d="M422.59,442.16l-3.36-7.39h-0.1l-3.29,7.39h6.75Zm-14.51,7.16,10.45-22.61a0.6,0.6,0,0,1,.57-0.37h0.34a0.57,0.57,0,0,1,.57.37l10.35,22.61a0.59,0.59,0,0,1-.57.87h-2.92a1,1,0,0,1-1-.67l-1.64-3.63h-10l-1.65,3.63a1,1,0,0,1-1,.67h-2.92a0.59,0.59,0,0,1-.57-0.87" transform="translate(-313.1 -374.36)" fill="#004650"></path> <path d="M438.45,426.94a0.63,0.63,0,0,1,.64-0.6h0.84l14,14.85h0V427.31a0.64,0.64,0,0,1,.64-0.64h3.09a0.66,0.66,0,0,1,.64.64v22.61a0.63,0.63,0,0,1-.64.61h-0.81l-14-15.42h0v14.45a0.64,0.64,0,0,1-.64.64h-3.06a0.66,0.66,0,0,1-.64-0.64V426.94Z" transform="translate(-313.1 -374.36)" fill="#004650"></path> <path d="M479.85,446.15a7.73,7.73,0,1,0-7.69-7.69,7.74,7.74,0,0,0,7.69,7.69m0-19.82a12.1,12.1,0,1,1-12.06,12.13,12.07,12.07,0,0,1,12.06-12.13" transform="translate(-313.1 -374.36)" fill="#004650"></path> <path d="M498.16,427.54a0.59,0.59,0,0,1,.57-0.87h3.43a0.62,0.62,0,0,1,.57.37l6.45,14.45h0.24L515.86,427a0.62,0.62,0,0,1,.57-0.37h3.43a0.59,0.59,0,0,1,.57.87L510,450.15a0.61,0.61,0,0,1-.57.37h-0.34a0.6,0.6,0,0,1-.57-0.37Z" transform="translate(-313.1 -374.36)" fill="#004650"></path> <path d="M538.3,442.16l-3.36-7.39h-0.1l-3.29,7.39h6.75Zm-14.51,7.16,10.45-22.61a0.6,0.6,0,0,1,.57-0.37h0.34a0.57,0.57,0,0,1,.57.37l10.35,22.61a0.59,0.59,0,0,1-.57.87h-2.92a1,1,0,0,1-1-.67L540,445.89h-10l-1.65,3.63a1,1,0,0,1-1,.67h-2.92a0.59,0.59,0,0,1-.57-0.87" transform="translate(-313.1 -374.36)" fill="#004650"></path> </g> <polygon points="57.13 110.8 58.06 110.8 58.06 122.92 65.43 122.92 65.43 123.8 57.13 123.8 57.13 110.8" fill="#004650"></polygon> <path d="M392.12,493.09l-2.71-6.74-2.71,6.74h5.42ZM389,485.16h0.94l5.32,13h-1.07l-1.7-4.19h-6.12l-1.68,4.19h-1Z" transform="translate(-313.1 -374.36)" fill="#004650"></path> <path d="M415.32,494.81l0.68-.57,1.87,2.2a5.48,5.48,0,0,0,1.54-2.06,6.66,6.66,0,0,0,.54-2.72,6.85,6.85,0,0,0-.39-2.32,5.74,5.74,0,0,0-1.1-1.89,5.18,5.18,0,0,0-1.73-1.27,5.61,5.61,0,0,0-4.48,0,5.2,5.2,0,0,0-1.73,1.27,5.71,5.71,0,0,0-1.1,1.89,6.88,6.88,0,0,0-.39,2.32,6.8,6.8,0,0,0,.39,2.31,5.82,5.82,0,0,0,1.1,1.89,5,5,0,0,0,1.73,1.27,5.38,5.38,0,0,0,2.24.46,5.73,5.73,0,0,0,1.4-.17,5,5,0,0,0,1.23-.48Zm2.4,2.83a7,7,0,0,1-1.51.61,6.41,6.41,0,0,1-1.71.22,6.23,6.23,0,0,1-4.62-2,6.68,6.68,0,0,1-1.35-2.16,7.57,7.57,0,0,1,0-5.35,6.83,6.83,0,0,1,1.35-2.17,6.21,6.21,0,0,1,2-1.45,6.63,6.63,0,0,1,5.17,0,6.2,6.2,0,0,1,2,1.45,6.83,6.83,0,0,1,1.35,2.17,7.27,7.27,0,0,1,.49,2.67,7.14,7.14,0,0,1-.67,3.12,6.59,6.59,0,0,1-1.84,2.34l1.7,2-0.68.57Z" transform="translate(-313.1 -374.36)" fill="#004650"></path> <path d="M427.52,485.16h0.94v7.33a11.1,11.1,0,0,0,.18,2,4.28,4.28,0,0,0,.63,1.62,3.1,3.1,0,0,0,1.24,1.06,5.41,5.41,0,0,0,4,0,3.1,3.1,0,0,0,1.24-1.06,4.28,4.28,0,0,0,.63-1.62,11.23,11.23,0,0,0,.18-2v-7.33h0.93V493a9.07,9.07,0,0,1-.24,2.15,4.58,4.58,0,0,1-.82,1.75,4,4,0,0,1-1.53,1.17,6.81,6.81,0,0,1-4.76,0,3.92,3.92,0,0,1-1.53-1.17,4.61,4.61,0,0,1-.82-1.75,9.15,9.15,0,0,1-.24-2.15v-7.82Z" transform="translate(-313.1 -374.36)" fill="#004650"></path> <rect x="131.53" y="110.79" width="0.94" height="13" fill="#004650"></rect> <polygon points="139.71 110.8 140.69 110.8 149.03 122.4 149.03 110.8 149.95 110.8 149.95 123.8 148.97 123.8 140.63 112.35 140.63 123.8 139.71 123.8 139.71 110.8" fill="#004650"></polygon> <polygon points="161.06 111.63 156.01 111.63 156.01 110.8 167.05 110.8 167.05 111.63 162 111.63 162 123.8 161.06 123.8 161.06 111.63" fill="#004650"></polygon> <path d="M491.14,493.09l-2.71-6.74-2.71,6.74h5.42ZM488,485.16h0.93l5.32,13h-1.07l-1.7-4.19h-6.12l-1.68,4.19h-1Z" transform="translate(-313.1 -374.36)" fill="#004650"></path> <path d="M422.61,397a18.32,18.32,0,0,1,8.81,15.22A21.47,21.47,0,0,1,422.61,397M440,399.71a18.37,18.37,0,0,1,3.47-2.72,21.47,21.47,0,0,1-8.84,15.25A18.35,18.35,0,0,1,440,399.71m-23.71,9.77a18.33,18.33,0,0,1-5.25-15,18.29,18.29,0,0,1,8.77,1.15c0,7.44,3.93,14.47,10.51,19.21q-0.53,0-1.06,0a18.35,18.35,0,0,1-13-5.37m19.48,5.34c6.59-4.74,10.47-11.77,10.51-19.22a18.27,18.27,0,0,1,8.74-1.14,18.33,18.33,0,0,1-18.18,20.39c-0.36,0-.72,0-1.07,0M428,397.77a21.06,21.06,0,0,0-5.38-3.9c0.54-6.41,4.34-12.37,10.43-16.29,6.08,3.92,9.88,9.87,10.43,16.28a21,21,0,0,0-10.44,12,21.1,21.1,0,0,0-5-8.06m5-23.41-0.71.43c-7,4.2-11.45,10.77-12.36,18a21,21,0,0,0-10.38-.86l-1,.16-0.16,1a21.06,21.06,0,0,0,24.29,24.29l0.28,0,0.27,0A21.07,21.07,0,0,0,457.59,393l-0.16-1-1-.16a21,21,0,0,0-10.36.85c-0.91-7.19-5.39-13.76-12.36-18l-0.71-.43h0Z" transform="translate(-313.1 -374.36)" fill="url(#b)"></path> </svg> 