<?xml version="1.0" encoding="UTF-8"?> <svg xmlns="http://www.w3.org/2000/svg" viewBox="0 0 262.81 118.05"> <defs> <style>.cls-1{fill:#00809d;}</style> </defs> <title>La Vie</title> <g id="Слой_2" data-name="Слой 2"> <g id="Слой_1-2" data-name="Слой 1"> <polygon class="cls-1" points="148.87 106.7 118.15 26.6 113.43 26.6 146.63 112.84 151.12 112.84 184.43 26.6 179.71 26.6 148.87 106.7"></polygon> <rect class="cls-1" x="192.47" y="26.6" width="4.49" height="86.24"></rect> <polygon class="cls-1" points="262.81 30.73 262.81 26.6 209.76 26.6 209.76 112.84 262.81 112.84 262.81 108.59 214.14 108.59 214.14 71.73 262.81 71.73 262.81 67.6 214.14 67.6 214.14 30.73 262.81 30.73"></polygon> <path class="cls-1" d="M-70.93,28.53l.19-.25A73.21,73.21,0,0,1-65,21.84c3-3,6.07-6.1,9.28-9.21s5.87-5.34,7.81-7C-39.46-1.85-31.57-8.1-24-13.6c6.84-5,12.21-8.39,15.28-9.61.32-.13,1.72-.59,2-.41a1,1,0,0,1,.12.61c0,1.81-1.91,4.8-5.67,8.88A157,157,0,0,1-27-1.36C-35.1,5-44.34,11.28-47.69,13.6c-6.25,4.33-11.78,8-16.42,10.92Zm34.83,15.6a17.62,17.62,0,0,1,2.74-2.83,43.48,43.48,0,0,1,4.09-3.14c.39-.26.73-.47,1-.65a2.07,2.07,0,0,1,2.94.89s0,0,0,.05l-4.81,2.6c-1.37.73-2.46,1.3-3.29,1.71l-1.92,1-.79.41m68.62-9.42C30.06,35,16.63,39.39-5.85,49.29c-6.49,2.86-11.32,4.79-14.29,5.91S-25,56.92-26,56.82a1.81,1.81,0,0,1-1.72-1.93c0-1.76,1-4.25,2.9-7.43a80.66,80.66,0,0,1,7.59-10.32c1.75-1.9,2.93-3.2,3.18-4.18a1.21,1.21,0,0,0-.6-1.43,2.68,2.68,0,0,0-1.87.24A21.43,21.43,0,0,0-21,35.48c-.42.42-.93.89-1.5,1.42l-.16-.93c-.4-2.2-1.67-3.36-3.7-3.36a8.39,8.39,0,0,0-2.55.44A14.46,14.46,0,0,0-32,34.51a28.14,28.14,0,0,0-4.87,3.85A17.3,17.3,0,0,0-41,44a5,5,0,0,0-.3,1.5A2.85,2.85,0,0,0-41,46.81l.08.11a6.73,6.73,0,0,0,.91.77S-85.44,76-90,78.8s-8,4.82-10.3,6a32.33,32.33,0,0,1-5.29,2.38c-1.2.36-3.1.69-3.3-.81-.53-3.9,5.85-16.74,17.84-33.37,3.66-4.84,7.13-9.23,10.31-13,1.33-1.6,2.37-2.8,3.2-3.7a26.56,26.56,0,0,1,4-3.55c.22-.13,17.21-9.51,24-14.12s13.73-9,20.13-13.73C-12.83-7.21-4.3-16.61-3.79-22.87a5.93,5.93,0,0,0,0-.73,2.93,2.93,0,0,0-3.43-3,13.82,13.82,0,0,0-2.82.7c-4,1.5-9.74,4.82-17.22,9.9a252.62,252.62,0,0,0-26,20.33A320.79,320.79,0,0,0-90.85,45.12c-11.3,14.65-18.57,26.68-21.59,35.76a17,17,0,0,0-1,5.22,5.43,5.43,0,0,0,1.66,4.43,4.29,4.29,0,0,0,2.88.92c3,0,7.56-2,13.58-5.46,5.09-2.88,52.21-33.51,57.07-36.49s7.84-4.74,8.92-5.29c.83-.44,1.81-1,2.91-1.67-3.22,5.07-4.86,9.22-4.86,12.35a5.14,5.14,0,0,0,1.51,4A4.83,4.83,0,0,0-26.46,60a13.09,13.09,0,0,0,3.82-.79c.75-.24,2.57-.94,5.55-2.2s6.42-2.64,10.14-4.31c11.39-5.12,20-8.84,25.56-11.1a133.74,133.74,0,0,1,13.75-4.69c.91-.22,2-.58,2-1.35,0-.38-.35-1-1.8-.82" transform="translate(113.43 26.6)"></path> </g> </g> </svg> 