<?xml version="1.0" encoding="UTF-8"?> <!-- Generator: Adobe Illustrator 23.0.1, SVG Export Plug-In . SVG Version: 6.00 Build 0) --> <svg xmlns="http://www.w3.org/2000/svg" xmlns:xlink="http://www.w3.org/1999/xlink" id="Слой_1" x="0px" y="0px" viewBox="0 0 187.9 82.2" style="enable-background:new 0 0 187.9 82.2;" xml:space="preserve"> <style type="text/css"> .st0{fill:#02B8C1;} </style> <title>nikki-beach</title> <g> <g id="Layer_1-2"> <polygon class="st0" points="186.5,1.1 185.6,1.1 185.6,0.7 187.8,0.7 187.8,1.1 186.9,1.1 186.9,3.7 186.5,3.7 "></polygon> <polygon class="st0" points="14.9,41.9 11.8,41.9 11.8,10.6 3.2,5.3 3.2,41.9 0.1,41.9 0.1,0 11.8,7.1 11.8,0.7 14.9,0.7 "></polygon> <rect x="20.6" y="0.7" class="st0" width="3" height="41.1"></rect> <polygon class="st0" points="46.1,41.9 42.9,41.9 32.5,10.9 32.5,41.9 29.5,41.9 29.5,0.7 32.5,0.7 32.5,10.2 40.5,0.7 44.3,0.7 35.6,10.9 "></polygon> <polygon class="st0" points="65.7,41.9 62.5,41.9 52.1,10.9 52.1,41.9 49.1,41.9 49.1,0.7 52.1,0.7 52.1,10.2 60.1,0.7 63.9,0.7 55.2,10.9 "></polygon> <rect x="68.7" y="0.7" class="st0" width="3" height="41.1"></rect> <path class="st0" d="M106,26.4c0.1-3.2-1.1-6.3-3.4-8.6c-2.4-2.3-5.6-3.7-9-3.9v24.9c3.3,0,6.5-1.3,8.9-3.6 C104.8,32.8,106.1,29.7,106,26.4 M97.3,7.3c0-2.4-1.2-3.6-3.7-3.8V11C96,10.8,97.3,9.5,97.3,7.3 M109,26.4c0.1,4.1-1.6,8.1-4.5,11 c-2.9,3-6.8,4.6-10.9,4.6h-3V0.7h2.7c1.9-0.1,3.7,0.6,5.1,1.8c1.3,1.2,2.1,3,2,4.8c-0.1,1.7-0.8,3.4-2.1,4.5 c3.2,0.9,5.9,2.8,7.9,5.5C108,19.9,109,23.1,109,26.4"></path> <polygon class="st0" points="124.3,13.9 116.1,13.9 116.1,38.9 123.6,38.9 123.6,41.9 113,41.9 113,13.9 111.5,13.9 110.4,10.9 113,10.9 113,0.7 123.6,0.7 123.6,3.8 116.1,3.8 116.1,10.9 123.2,10.9 "></polygon> <path class="st0" d="M138.5,10.9V7.1c0-2.6-1.1-3.9-3.3-3.9c-1,0-1.9,0.4-2.6,1.1c-0.7,0.8-1,1.8-1,2.8v3.7H138.5z M141.5,41.9h-3 v-28h-6.9v28h-3v-28h-1.6l-1-3h2.6V8.4c0-2.9,0.6-5,1.7-6.3c1.2-1.3,2.9-2,4.7-1.9c4.3,0,6.5,2.7,6.5,8L141.5,41.9z"></path> <path class="st0" d="M166,41.9c-5.9-0.1-11.5-2.6-15.4-7.1c-3.3-3.7-5.2-8.5-5.1-13.5c-0.1-5.3,1.9-10.5,5.7-14.3 c3.9-3.9,9.2-6.1,14.7-6.3v3c-4.7,0.1-9.2,2.1-12.6,5.4c-3.2,3.2-5,7.6-4.9,12.2c-0.1,4.6,1.7,9,4.9,12.3 c3.3,3.3,7.8,5.3,12.6,5.4V41.9z"></path> <polygon class="st0" points="183.2,41.9 180.2,41.9 180.2,14 172.7,14 172.7,41.9 169.7,41.9 169.7,14 168.1,14 167.1,11 169.7,11 169.7,0.7 172.7,0.7 172.7,11 180.2,11 180.2,0.7 183.2,0.7 "></polygon> <path class="st0" d="M2.6,58.9c2,0,3.7-1.6,3.7-3.7c0-2-1.6-3.7-3.7-3.7H2.3v7.3H2.6z M2.3,65.7h-2v-16h2.3 c3.1-0.1,5.7,2.4,5.7,5.5c0,0,0,0,0,0l0,0c0,2.2-1.3,4.2-3.3,5l3.3,5.5H6l-3.7-6L2.3,65.7z"></path> <polygon class="st0" points="20.4,65.7 20.4,49.7 26.1,49.7 26.1,51.6 22.4,51.6 22.4,58.4 25.9,58.4 25.9,60.3 22.4,60.3 22.4,63.9 26.4,63.9 26.4,65.7 "></polygon> <polygon class="st0" points="93.2,65.7 93.2,49.7 99,49.7 99,51.6 95.3,51.6 95.3,58.4 98.8,58.4 98.8,60.3 95.3,60.3 95.3,63.9 99.3,63.9 99.3,65.7 "></polygon> <polygon class="st0" points="158.6,65.7 158.6,49.7 164.3,49.7 164.3,51.6 160.6,51.6 160.6,58.4 164.1,58.4 164.1,60.3 160.6,60.3 160.6,63.9 164.6,63.9 164.6,65.7 "></polygon> <path class="st0" d="M45.1,51.7c-0.3-0.1-0.6-0.1-0.9-0.1c-1.6,0-3.5,0.9-3.5,2.7c0,2.8,4.7,3.5,4.7,7.3c0,2.4-2.3,4.3-5,4.3 c-0.4,0-0.8-0.1-1.3-0.1v-1.8c0.4,0.1,0.8,0.1,1.3,0.1c1.4,0.1,2.7-1,2.8-2.4l0,0c0-2.7-4.8-3.4-4.8-7.2c0-2.7,2.5-4.7,5.5-4.7 c0.3,0,0.7,0,1,0.1L45.1,51.7z"></path> <rect x="57.6" y="49.6" class="st0" width="2" height="16.4"></rect> <path class="st0" d="M183.3,51.7c-0.3-0.1-0.6-0.1-0.8-0.1c-1.7,0-3.5,0.9-3.5,2.7c0,2.8,4.7,3.5,4.7,7.3c0,2.4-2.3,4.3-5,4.3 c-0.4,0-0.8-0.1-1.3-0.1v-1.8c0.4,0.1,0.8,0.1,1.3,0.1c1.4,0.1,2.7-1,2.8-2.4l0,0c0-2.7-4.8-3.4-4.8-7.2c0-2.7,2.5-4.7,5.5-4.7 c0.3,0,0.7,0,1,0.1L183.3,51.7z"></path> <path class="st0" d="M68.5,76.2c-0.1-0.2-0.1-0.4-0.1-0.6c0-0.7,0.5-1.3,1.6-1.9c1.1-0.6,2.4-0.9,3.6-0.9c1.2-0.1,2.4,0.3,3.3,0.9 c0.8,0.6,1.3,1.6,1.2,2.6c0,1.5-0.7,2.9-1.9,3.8c-0.7,0.6-1.6,1.1-2.5,1.4c-0.9,0.4-1.9,0.5-2.9,0.6c-0.9,0-1.3-0.3-1.3-1 c0-0.5,0.1-1,0.2-1.5l0.7-3.8c0.1-0.2,0.1-0.5,0.1-0.7c0-0.1,0-0.3-0.1-0.4c0.3-0.1,0.7-0.2,1.1-0.3c0.2,0,0.4,0.1,0.4,0.4 c0,0.1-0.1,0.4-0.2,1l-0.6,3.2c-0.1,0.5-0.2,1-0.2,1.5c0,0.2,0.1,0.4,0.2,0.5c0.3,0.1,0.6,0.1,0.9,0.1c1.3,0,2.5-0.4,3.5-1.3 c0.9-0.8,1.4-1.9,1.4-3.1c0-0.9-0.3-1.8-1-2.3c-0.8-0.6-1.8-0.9-2.7-0.9c-0.9,0-1.8,0.2-2.6,0.7C69.8,74.8,69.1,75.4,68.5,76.2"></path> <path class="st0" d="M84.5,78.1c-0.4,1-1.1,1.9-1.8,2.7c-0.4,0.6-1.1,0.9-1.8,1c-0.4,0-0.7-0.2-1-0.4c-0.3-0.3-0.4-0.7-0.4-1.2 c0.1-1.1,0.3-2.2,0.6-3.3c0.1-0.3,0.1-0.6,0.2-0.8c0-0.1,0-0.3-0.1-0.4H81c0.3,0,0.5,0.1,0.5,0.4c-0.1,0.5-0.2,1-0.3,1.4 c-0.1,0.2-0.1,0.4-0.1,0.5L81,78.3c-0.1,0.5-0.2,1.1-0.2,1.6c0,0.6,0.2,0.8,0.6,0.8c0.6,0,1.5-0.8,2.4-2.4 c0.6-0.8,1.1-1.8,1.2-2.8c0-0.1,0-0.2-0.1-0.2c0.3-0.1,0.5-0.1,0.8-0.1c0.3,0,0.5,0.1,0.5,0.3c0,0.1,0,0.1,0,0.2 c0,0.1-0.1,0.3-0.1,0.4L86,76.7c-0.1,0.3-0.1,0.3-0.1,0.4l-0.1,0.3c-0.1,0.6-0.2,1.2-0.2,1.8c0,0.8,0.2,1.3,0.6,1.3 c0.9,0,2-1.3,3.4-3.8l0.5,0.3c-1.6,3-3,4.6-4.3,4.6c-0.9,0-1.3-0.8-1.3-2.3L84.5,78.1"></path> <path class="st0" d="M94.5,77.7c0.1,0.2,0.1,0.4,0.1,0.6c0,0.9-0.3,1.8-1,2.5c-0.6,0.7-1.5,1.1-2.4,1.1c-0.6,0-1.2-0.2-1.6-0.6 c-0.4-0.4-0.7-1-0.6-1.5c0-0.7,0.1-1.3,0.2-2l1-4.9c-0.2,0-0.3,0-0.5,0c-0.8,0-1.2-0.4-1.2-1.3c0.3,0.3,0.8,0.4,1.2,0.4 c0.7,0,1.3-0.2,1.9-0.4l-1.4,6.9c-0.1,0.4-0.2,0.8-0.2,1.3c0,0.4,0.1,0.8,0.4,1.1c0.2,0.3,0.6,0.5,1,0.4c0.6,0,1.2-0.3,1.5-0.8 c0.4-0.6,0.7-1.3,0.6-2c0-0.4-0.1-0.8-0.2-1.1c-0.4-0.1-0.8-0.4-1.2-0.6c-0.3-0.2-0.4-0.5-0.5-0.8c0-0.2,0.1-0.4,0.2-0.5 c1,0,1.8,0.5,2.4,1.4c0.5,0.2,1,0.4,1.6,0.4c0.6,0,1.2-0.2,1.7-0.5l0.3,0.5c-0.6,0.5-1.4,0.8-2.3,0.8 C95.2,77.8,94.9,77.8,94.5,77.7"></path> <path class="st0" d="M101.2,78.2c-0.5,1-1.1,1.8-1.8,2.6c-0.5,0.6-1.1,1-1.9,1.1c-0.4,0-0.8-0.2-1-0.5c-0.3-0.4-0.4-0.9-0.4-1.5 c0-1.2,0.4-2.3,1.1-3.2c0.6-0.8,1.5-1.3,2.5-1.4c0.7,0,1.3,0.2,1.9,0.5c0.1-0.3,0.5-0.5,1.2-0.5h0.2c-0.3,0.4-0.4,0.9-0.5,1.4 l-0.1,0.5c-0.1,0.6-0.2,1.3-0.2,1.9c0,0.8,0.2,1.3,0.6,1.3c0.7-0.1,1.3-0.5,1.7-1c0.8-0.8,1.5-1.7,2.1-2.7l0.4,0.3 c-0.6,1.2-1.5,2.3-2.4,3.2c-0.6,0.7-1.4,1.2-2.4,1.3c-0.8,0-1.3-0.7-1.3-2.1L101.2,78.2 M101.4,76.9c-0.6-0.4-1.3-0.7-2-0.8 c-0.6,0.1-1.2,0.4-1.5,1c-0.4,0.8-0.7,1.6-0.6,2.5c0,0.8,0.2,1.2,0.8,1.2s1.6-1.2,3.2-3.6L101.4,76.9"></path> <path class="st0" d="M112.5,77c-0.7,1.3-1.6,2.5-2.6,3.6c-0.6,0.7-1.5,1.2-2.4,1.3c-0.4,0-0.7-0.2-1-0.4c-0.3-0.3-0.4-0.7-0.4-1.1 c0-0.3,0-0.6,0.1-0.8l0.1-0.6c0.1-0.6,0.2-1.3,0.3-2c0-0.2-0.1-0.4-0.2-0.5c0.3-0.1,0.6-0.1,0.9-0.2c0.3,0,0.4,0.2,0.4,0.6 c0,0.4-0.1,0.9-0.2,1.3l-0.2,1.1c-0.1,0.4-0.1,0.7-0.2,1.1c0,0.5,0.2,0.7,0.6,0.7c0.8-0.2,1.4-0.6,1.9-1.2c0.9-0.9,1.6-1.9,2.2-3 L112.5,77z M107.3,74L107.3,74c0.5-0.1,0.9-0.2,1.2-0.4c0.4-0.2,0.8-0.5,1.1-0.8c-0.2,0.5-0.5,1-0.9,1.3c-0.4,0.4-0.8,0.7-1.3,0.8 c-0.1,0-0.2-0.1-0.2-0.3C107.2,74.5,107.2,74.3,107.3,74"></path> <path class="st0" d="M73.6,49.7c4.2,0.2,7.5,3.6,7.5,7.9c0.1,4.2-3.2,7.7-7.5,7.9h-2V49.7H73.6z M73.6,51.7v11.8 c3.2-0.1,5.7-2.7,5.7-5.8C79.3,54.5,76.8,51.9,73.6,51.7"></path> <polygon class="st0" points="121.1,65.5 113.3,55.5 113.3,65.5 111.4,65.5 111.4,49.7 119.2,59.9 119.2,49.7 121.1,49.7 "></polygon> <path class="st0" d="M141,63.5c1.5,0,2.9-0.5,4-1.5l1.5,1.3c-1.5,1.4-3.4,2.2-5.4,2.1c-4.4,0-7.9-3.5-7.9-7.8 c0-4.4,3.5-7.9,7.8-7.9c2,0,4,0.8,5.5,2.2l-1.5,1.3c-1.1-1-2.6-1.5-4.1-1.5c-3.3-0.2-6.1,2.3-6.3,5.6c-0.2,3.3,2.3,6.1,5.6,6.3 c0.1,0,0.2,0,0.3,0H141"></path> </g> </g> </svg> 