<?xml version="1.0" encoding="UTF-8"?> <svg xmlns="http://www.w3.org/2000/svg" viewBox="0 0 93.38 81.5"> <title>logo</title> <g id="Layer_2" data-name="Layer 2"> <g id="Layer_1-2" data-name="Layer 1"> <path d="M29.64,37.77c-.62,2.61-.88,4.15.2,4.15a.84.84,0,0,0,.74-.4l.08,0a1.49,1.49,0,0,1-1.26.56c-2,0-1.86-1.72-1.5-3.22C27,41,25.73,42.14,24.55,42.14c-2.37,0-3.39-2.6-2.69-5.85s3.13-5.85,5.43-5.85A2.07,2.07,0,0,1,29.52,32l1.7-7.19c.16-.69-.24-.91-1-.83v-.06L33,23.5Zm-1.32-.62.6-2.52c.26-1.29.54-2,.34-2.67a1.81,1.81,0,0,0-1.87-1.44c-1.46,0-2.88,2-3.84,5.77s-.32,5.65,1.14,5.65,2.74-1.62,3.63-4.79" style="fill:#746723"></path> <path d="M33.83,35.35H40c.86-4-.9-4.83-2.6-4.83-2.29,0-4.88,2.56-5.46,5.81-.46,2.59.28,5.81,3.47,5.81h.08a3.78,3.78,0,0,0,3.67-3.38,1.44,1.44,0,0,0-1.36-1.51A1.56,1.56,0,0,0,36.17,39a.87.87,0,0,1,.74-.51A1.09,1.09,0,0,1,38,39.7,2.24,2.24,0,0,1,35.51,42c-1.94,0-2.92-1.78-1.92-5.69Zm3.65-4.75c1.41,0,1.85,1.77,1.17,4.41H34c.9-2.9,2.24-4.41,3.53-4.41" style="fill:#746723"></path> <path d="M36.17,52.51C39,49.64,40.73,45,41.71,41l.8-3.33c1.32-5.49,5.75-10.74,11.06-10.74h.09c2.55.05,4.68,1.55,4.68,3.53A2.56,2.56,0,0,1,56,33a1.21,1.21,0,0,1-1.32-1.23,2.07,2.07,0,0,1,.14-.69.73.73,0,0,0,.75.63c.89,0,1.49-1,1.49-2.07C57,28,55.35,27,53.6,27h0c-3.85,0-6.69,3-8.24,9.48l-.92,4C43.09,46,40.67,50.62,37.29,53.23c6.43,4.42,13.87,12,20.53,12,3.36,0,7.21-2,7.21-5.51,0-1.35-.75-2.41-1.93-2.41a1.65,1.65,0,0,0-1.58,1.09,2.43,2.43,0,0,1-.05-.6,2.23,2.23,0,0,1,2.27-2.36,2.89,2.89,0,0,1,2.81,3c0,4.48-6.43,7.75-10.68,7.75-8.88,0-13.79-8.18-19-12.63a10.42,10.42,0,0,1-6.11,2c-2.76,0-5.26-1.27-5.43-2.53s.69-2.61,4.1-2.61a12.68,12.68,0,0,1,6.7,2.12m-.23.2a10.82,10.82,0,0,0-6.09-2.12C27,50.59,26.11,52,26.29,53s1.29,2.21,3.64,2.21a8.61,8.61,0,0,0,6-2.5" style="fill:#746723"></path> <path d="M59.8,46.6c-.83,3.76-1.38,5.94.17,5.94A1.24,1.24,0,0,0,61,52l.11,0a2.2,2.2,0,0,1-1.84.81c-2.64,0-2.61-2-2.18-4-1.29,2.61-2.93,4-4.51,4-3.39,0-4.82-3.74-3.85-8.39s4.48-8.39,7.79-8.39a3,3,0,0,1,3.18,2.24l.46-1.86h2l-1.52,6Zm-.54-6.12a4.59,4.59,0,0,0,.11-2.21A2.59,2.59,0,0,0,56.7,36.2c-2.1,0-4.17,2.84-5.51,8.27s-.46,8.1,1.63,8.1c1.73,0,3.48-1.81,4.74-5.37l.14-.6,1.07-4.11Z" style="fill:#746723"></path> <rect x="0.08" y="37.71" width="17.07" height="0.36" style="fill:#746723"></rect> <rect x="66.55" y="37.71" width="26.84" height="0.36" style="fill:#746723"></rect> <path d="M.19.58H9.55C13.94.58,19,2.82,19,8.28s-4.72,8.16-9.4,8.16h-6V28.66c0,.29.13.41.42.41h1.9a.13.13,0,1,1,0,.25H.19c-.21,0-.25-.25,0-.25H2c.29,0,.41-.12.41-.41V1.24C2.42,1,2.3.83,2,.83H.19C-.06.83-.06.58.19.58M4,.83c-.29,0-.42.12-.42.41v15H9.59c4.51,0,8.2-2.28,8.2-7.91S13.77.83,9.55.83Z" style="fill:#414042"></path> <path d="M22.63,14.66C22.63,4.85,28.22.21,34.39,0h.42c6.13.21,11.76,4.85,11.76,14.66C46.57,25.05,41.23,30,34.64,30h-.08C28,30,22.63,25.05,22.63,14.66m22.65,0C45.28,4.47,40.65.41,34.85.25h-.42C28.55.37,23.92,4.43,23.92,14.66c0,10.93,4.63,15.07,10.64,15.12h.08c6-.05,10.64-4.19,10.64-15.12" style="fill:#414042"></path> <path d="M50,29.07h1.82c.29,0,.41-.12.41-.41V1.24c0-.29-.12-.41-.41-.41H50c-.25,0-.25-.25,0-.25h8.9c4,0,8.61,1.9,8.61,6.54,0,4.43-3.93,6.71-8.07,6.92,2.52.79,4.59,3.15,6.46,6.75,2.11,4.14,4.06,8.57,5,8.57a1,1,0,0,0,.58-.21c.16-.08.41.09.16.25a1.23,1.23,0,0,1-.74.21c-1.66,0-3.11-1.62-6-8.08-2.15-4.72-4.1-7.16-6.58-7.49h-5V28.66c0,.29.12.41.41.41h1.91a.13.13,0,0,1,0,.25H50c-.21,0-.25-.25,0-.25M53.36.83v13h5.55c4.14,0,7.49-1.9,7.49-6.67S62.76.83,58.91.83Z" style="fill:#414042"></path> <path d="M79.41,29.07h1.82c.29,0,.41-.12.41-.41V1.24c0-.29-.12-.41-.41-.41H73.61a2,2,0,0,0-2,2V5.43h-.25V.58H93.28V5.43H93V2.86a2,2,0,0,0-2.19-2H83.18c-.29,0-.42.12-.42.41V28.66c0,.29.13.41.42.41h1.9a.13.13,0,1,1,0,.25H79.41c-.25,0-.25-.25,0-.25" style="fill:#414042"></path> <path d="M67.1,80.85h2.2c.35,0,.5-.15.5-.5V47.24c0-.35-.15-.5-.5-.5H67.1c-.3,0-.3-.3,0-.3H77.85c4.8,0,10.41,2.3,10.41,7.9,0,5.35-4.76,8.1-9.76,8.35,3,1,5.55,3.8,7.8,8.16,2.56,5,4.91,10.35,6.06,10.35a1.29,1.29,0,0,0,.7-.25c.2-.1.5.1.2.3a1.54,1.54,0,0,1-.9.25c-2,0-3.75-2-7.26-9.75-2.6-5.71-4.95-8.66-7.95-9.06h-6V80.35c0,.35.15.5.5.5H74a.15.15,0,0,1,0,.3H67.1c-.25,0-.3-.3,0-.3m4.05-34.11V62.39h6.7c5,0,9.06-2.3,9.06-8s-4.41-7.6-9.06-7.6Z" style="fill:#414042"></path> <path d="M35.68,80.85h-2.3c-.35,0-.5-.15-.5-.5V51.12a9.94,9.94,0,0,0-1.35-.37v29.6c0,.35-.15.5-.5.5h-2.2c-.25,0-.25.3,0,.3h6.85a.15.15,0,1,0,0-.3" style="fill:#414042"></path> <path d="M27.9,55.06,18,79.65,4.62,46.44H.27c-.25,0-.25.3,0,.3h2.8V80.35c0,.35-.15.5-.5.5H.37c-.25,0-.25.3,0,.3H6.12a.15.15,0,0,0,0-.3H3.87c-.35,0-.5-.15-.5-.5V46.74l14,34.61h.3L28.17,55.14l-.27-.08" style="fill:#414042"></path> <path d="M62.7,75.9v1.95a3,3,0,0,1-2.56,3H44.54c-.25,0-.35-.1-.35-.35V61.64c0-.25.1-.35.35-.35h.22L44.42,61a.25.25,0,0,1-.22-.19V47.09c0-.25.1-.35.35-.35h3.94c0-.1,0-.2,0-.3H40.14c-.25,0-.25.3,0,.3h2.35c.25,0,.35.1.35.35V80.5c0,.25-.1.35-.35.35H40.14c-.25,0-.25.3,0,.3H63V75.9Z" style="fill:#414042"></path> </g> </g> </svg> 