<?xml version="1.0" encoding="UTF-8"?> <!-- Generator: Adobe Illustrator 24.0.0, SVG Export Plug-In . SVG Version: 6.00 Build 0) --> <svg xmlns="http://www.w3.org/2000/svg" xmlns:xlink="http://www.w3.org/1999/xlink" id="Capa_1" x="0px" y="0px" viewBox="0 0 512 512" style="enable-background:new 0 0 512 512;" xml:space="preserve"> <style type="text/css"> .st0{fill:#D6B180;} </style> <g> <g> <g> <path class="st0" d="M507.2,420.5l-121.3-56.6c-0.2-0.2-0.4-0.4-0.6-0.5c-0.2-0.2-0.4-0.4-0.6-0.6c-0.2-0.1-0.3-0.3-0.4-0.4 c-0.3-0.2-0.6-0.3-0.9-0.4c-0.2-0.1-0.3-0.2-0.4-0.3L322.9,336l-95.6-41l26.4-8.8l64.1,26.5l0,0l175.9,72.8 c1,0.4,2.1,0.6,3.2,0.6c1.6,0,3.3-0.5,4.7-1.4c2.3-1.6,3.7-4.2,3.7-7V109.8c0-3.4-2-6.5-5.2-7.7l-67-27.7l0,0L257.2,1.5 c-0.6-0.3-1.3-0.4-1.9-0.5l0,0c-1.3-0.2-2.5-0.1-3.7,0.3c-0.1,0-0.1,0-0.2,0L0,85.1L5.3,101l240.3-80.1v250.4l-33.5,11.2v-72.1 c0-2.7-1.3-5.2-3.4-6.7c-2.1-1.6-4.9-2.1-7.4-1.3L8.6,260.9c-3.5,1.1-5.9,4.3-5.9,8v83.8V403c0,3.2,1.9,6.2,4.8,7.6l89.1,42.6 l-38.7,17.6c-3,1.3-4.9,4.3-4.9,7.6s1.8,6.2,4.8,7.6l50.3,23.8l7.2-15.1l-34-16.1l35.1-15.9l83.8,40.1c0.2,0.1,0.5,0.2,0.7,0.2 c0.3,0.1,0.5,0.2,0.8,0.3c0.5,0.1,1,0.2,1.5,0.2c0.2,0,0.4,0.1,0.6,0.1c0.1,0,0.1,0,0.2,0c0.5,0,1-0.1,1.5-0.2 c0.2-0.1,0.4-0.1,0.7-0.1s0.4-0.2,0.6-0.3c0.1,0,0.2,0,0.3-0.1L383,427.5c3.1-1.3,5.1-4.3,5.1-7.7v-36.3l95.6,44.6L334.4,496 l6.9,15.2l165.9-75.4c3-1.3,4.9-4.3,4.9-7.6S510.1,421.9,507.2,420.5z M438.3,302.4v-83.8v-33.5V94.6l50.3,20.8v249.9l-50.3-20.8 V302.4z M421.5,337.6l-77.8-32.2l43.7-10.9l34.1,13.6L421.5,337.6L421.5,337.6z M362.9,283.3v-66.5l16.8-4.2v66.5L362.9,283.3z M421.5,290.1L396.4,280v-65.7l12.6,5l12.6,5v65.8H421.5z M421.5,206.3l-12.6-5l-12.6-5v-15.5l25.1,10.1v15.4H421.5z M329.4,49.5 l92.2,38.1v85.2l-25.1-10.1v-27.8h-16.8v27l-50.3,12.6V49.5z M329.4,191.7l50.3-12.6v16.2l-50.3,12.6V191.7z M329.4,225.2 l16.8-4.2v66.5l-16.8,4.2V225.2z M262.4,21.8l50.3,20.8v142.6v33.5v73.8l-50.3-20.8V21.8L262.4,21.8z M203.2,303l95.3,40.8 l-149.7,65.5L34.1,354.4l12.9-3.9l50.3-15.3l21.4-6.5l12.1-3.7l0,0l50.3-15.3L203.2,303z M52.9,331.2v-22.7l33.5-11.2V321 L52.9,331.2z M136.7,305.7v-22.4l33.5-11.2v23.3l-14,4.2L136.7,305.7z M19.4,275.1l175.9-53.5v66.3l-8.4,2.5v-29.9 c0-2.7-1.3-5.2-3.5-6.8s-5-2-7.5-1.2l-50.3,16.8c-3.4,1.1-5.7,4.3-5.7,8v33.5l-16.8,5.1v-30.2c0-2.7-1.3-5.2-3.5-6.8 c-2.2-1.6-5-2-7.5-1.2l-50.3,16.8c-3.4,1.1-5.7,4.3-5.7,8v33.9l-16.8,5.1v-66.4H19.4z M195.3,481.8l-75.4-36l0,0L19.4,397.7V366 l175.9,84.1L195.3,481.8L195.3,481.8z M203.9,435.7l-35.1-16.8l150.8-66l38.8,16.6L203.9,435.7z M371.3,414.2l-159.2,68.2v-32 l159.2-68.2V414.2z"></path> </g> </g> <g> <g> <path class="st0" d="M183.5,69.5c-2.2-1.6-5-2-7.5-1.2L25.1,118.6c-3.4,1.1-5.7,4.3-5.7,8V227c0,2.7,1.3,5.2,3.5,6.8 c1.4,1,3.2,1.6,4.9,1.6c0.9,0,1.8-0.1,2.6-0.4l150.8-50.3c3.4-1.1,5.7-4.3,5.7-8V76.3C187,73.6,185.7,71,183.5,69.5z M170.2,170.8l-134,44.7v-82.9l134-44.7V170.8z"></path> </g> </g> <g> <g> <path class="st0" d="M139.1,120.6l-29.8,29.9l-20.2-6.7c-2.5-0.8-5.1-0.5-7.3,1l-25.1,16.8l9.3,13.9L87.7,161l21.2,7.1 c3,1,6.3,0.2,8.6-2l33.5-33.5L139.1,120.6z"></path> </g> </g> </g> </svg> 